  0
SECTION
  2
HEADER
  9
$ANGBASE
  50
0.0
  9
$ANGDIR
  70
1
  9
$MEASUREMENT
  70
1
  0
ENDSEC
  0
SECTION
  2
TABLES
  0
TABLE
  2
LTYPE
  70
4
  0
LTYPE
  5
40F
  2
CONTINUOUS
  70
0
  3
Solid line
  72
65
  73
0
  40
0.0
  0
LTYPE
  5
410
  2
DASHDOT
 70
0
  3
Dash Dot ____ _ ____ _
 72
65
 73
4
 40
2.0
 49
1.25
 49
-0.25
 49
0.25
 49
-0.25
  0
LTYPE
  5
411
  2
DASHED
 70
0
  3
Dashed __ __ __ __ __
 72
65
 73
2
 40
0.75
 49
0.5
 49
-0.25
  0
LTYPE
  5
43B
  2
DOTTED
 70
0
  3
Dotted .  .  .  .
 72
65
 73
2
 40
0.2
 49
0.0
 49
-0.2
  0
ENDTAB
  0
TABLE
  2
STYLE
  70
4
  0
STYLE
  2
KICAD
  70
0
  40
0
  41
1
  42
1
  50
0
  71
0
  3
isocp.shx
  0
STYLE
  2
KICADB
  70
0
  40
0
  41
1
  42
1
  50
0
  71
0
  3
isocp.shx
  0
STYLE
  2
KICADI
  70
0
  40
0
  41
1
  42
1
  50
15
  71
0
  3
isocp.shx
  0
STYLE
  2
KICADBI
  70
0
  40
0
  41
1
  42
1
  50
15
  71
0
  3
isocp.shx
  0
ENDTAB
  0
TABLE
  2
LAYER
  70
1
  0
LAYER
  2
BLACK
  70
0
  62
7
  6
CONTINUOUS
  0
ENDTAB
  0
ENDSEC
  0
SECTION
  2
ENTITIES
0
LINE
8
BLACK
6
CONTINUOUS
10
67.1574999999999989
20
-115.0987499999999955
11
67.2798899999999946
21
-115.1125389999999982
0
LINE
8
BLACK
6
CONTINUOUS
10
67.2798899999999946
20
-115.1125389999999982
11
67.3961439999999925
21
-115.1532149999999888
0
LINE
8
BLACK
6
CONTINUOUS
10
67.3961439999999925
20
-115.1532149999999888
11
67.5004320000000035
21
-115.2187389999999994
0
LINE
8
BLACK
6
CONTINUOUS
10
67.5004320000000035
20
-115.2187389999999994
11
67.5875269999999944
21
-115.3058249999999987
0
LINE
8
BLACK
6
CONTINUOUS
10
67.5875269999999944
20
-115.3058249999999987
11
67.6530609999999939
21
-115.4101069999999964
0
LINE
8
BLACK
6
CONTINUOUS
10
67.6530609999999939
20
-115.4101069999999964
11
67.6937489999999968
21
-115.5263559999999927
0
LINE
8
BLACK
6
CONTINUOUS
10
67.6937489999999968
20
-115.5263559999999927
11
67.7075499999999977
21
-115.648744999999991
0
LINE
8
BLACK
6
CONTINUOUS
10
67.7075499999999977
20
-115.648744999999991
11
67.707499999999996
21
-115.648744999999991
0
LINE
8
BLACK
6
CONTINUOUS
10
67.707499999999996
20
-115.648744999999991
11
67.7074989999999985
21
-115.6487470000000002
0
LINE
8
BLACK
6
CONTINUOUS
10
67.7074989999999985
20
-115.6487470000000002
11
67.707499999999996
21
-115.6487499999999926
0
LINE
8
BLACK
6
CONTINUOUS
10
67.707499999999996
20
-115.6487499999999926
11
67.707499999999996
21
-128.6487500000000068
0
LINE
8
BLACK
6
CONTINUOUS
10
67.707499999999996
20
-128.6487500000000068
11
67.7074989999999985
21
-128.6487520000000018
0
LINE
8
BLACK
6
CONTINUOUS
10
67.7074989999999985
20
-128.6487520000000018
11
67.707499999999996
21
-128.6487549999999942
0
LINE
8
BLACK
6
CONTINUOUS
10
67.707499999999996
20
-128.6487549999999942
11
67.6936999999999927
21
-128.7711319999999944
0
LINE
8
BLACK
6
CONTINUOUS
10
67.6936999999999927
20
-128.7711319999999944
11
67.6530159999999938
21
-128.8873710000000017
0
LINE
8
BLACK
6
CONTINUOUS
10
67.6530159999999938
20
-128.8873710000000017
11
67.5874879999999933
21
-128.991644000000008
0
LINE
8
BLACK
6
CONTINUOUS
10
67.5874879999999933
20
-128.991644000000008
11
67.5004009999999965
21
-129.0787219999999991
0
LINE
8
BLACK
6
CONTINUOUS
10
67.5004009999999965
20
-129.0787219999999991
11
67.3961219999999912
21
-129.1442399999999964
0
LINE
8
BLACK
6
CONTINUOUS
10
67.3961219999999912
20
-129.1442399999999964
11
67.279878999999994
21
-129.1849119999999971
0
LINE
8
BLACK
6
CONTINUOUS
10
67.279878999999994
20
-129.1849119999999971
11
67.1576649999999944
21
-129.1986809999999934
0
LINE
8
BLACK
6
CONTINUOUS
10
67.1576649999999944
20
-129.1986809999999934
11
67.1574999999999989
21
-129.1987499999999898
0
LINE
8
BLACK
6
CONTINUOUS
10
67.1574999999999989
20
-129.1987499999999898
11
54.1574999999999989
21
-129.1987499999999898
0
LINE
8
BLACK
6
CONTINUOUS
10
54.1574999999999989
20
-129.1987499999999898
11
54.035109999999996
21
-129.1849609999999871
0
LINE
8
BLACK
6
CONTINUOUS
10
54.035109999999996
20
-129.1849609999999871
11
53.9188559999999981
21
-129.1442849999999964
0
LINE
8
BLACK
6
CONTINUOUS
10
53.9188559999999981
20
-129.1442849999999964
11
53.8145679999999942
21
-129.0787609999999859
0
LINE
8
BLACK
6
CONTINUOUS
10
53.8145679999999942
20
-129.0787609999999859
11
53.7274729999999963
21
-128.9916749999999865
0
LINE
8
BLACK
6
CONTINUOUS
10
53.7274729999999963
20
-128.9916749999999865
11
53.6619389999999967
21
-128.887393000000003
0
LINE
8
BLACK
6
CONTINUOUS
10
53.6619389999999967
20
-128.887393000000003
11
53.6212510000000009
21
-128.7711439999999925
0
LINE
8
BLACK
6
CONTINUOUS
10
53.6212510000000009
20
-128.7711439999999925
11
53.60745
21
-128.6487549999999942
0
LINE
8
BLACK
6
CONTINUOUS
10
53.60745
20
-128.6487549999999942
11
53.6074999999999946
21
-128.6487549999999942
0
LINE
8
BLACK
6
CONTINUOUS
10
53.6074999999999946
20
-128.6487549999999942
11
53.6074999999999946
21
-128.6487520000000018
0
LINE
8
BLACK
6
CONTINUOUS
10
53.6074999999999946
20
-128.6487520000000018
11
53.6074999999999946
21
-128.6487500000000068
0
LINE
8
BLACK
6
CONTINUOUS
10
53.6074999999999946
20
-128.6487500000000068
11
53.6074999999999946
21
-115.6487499999999926
0
LINE
8
BLACK
6
CONTINUOUS
10
53.6074999999999946
20
-115.6487499999999926
11
53.6074999999999946
21
-115.6487470000000002
0
LINE
8
BLACK
6
CONTINUOUS
10
53.6074999999999946
20
-115.6487470000000002
11
53.6074999999999946
21
-115.648744999999991
0
LINE
8
BLACK
6
CONTINUOUS
10
53.6074999999999946
20
-115.648744999999991
11
53.621299999999998
21
-115.5263679999999908
0
LINE
8
BLACK
6
CONTINUOUS
10
53.621299999999998
20
-115.5263679999999908
11
53.6619839999999968
21
-115.4101289999999977
0
LINE
8
BLACK
6
CONTINUOUS
10
53.6619839999999968
20
-115.4101289999999977
11
53.7275119999999973
21
-115.3058559999999915
0
LINE
8
BLACK
6
CONTINUOUS
10
53.7275119999999973
20
-115.3058559999999915
11
53.8145989999999941
21
-115.2187780000000004
0
LINE
8
BLACK
6
CONTINUOUS
10
53.8145989999999941
20
-115.2187780000000004
11
53.9188779999999994
21
-115.1532599999999888
0
LINE
8
BLACK
6
CONTINUOUS
10
53.9188779999999994
20
-115.1532599999999888
11
54.0351209999999966
21
-115.1125879999999881
0
LINE
8
BLACK
6
CONTINUOUS
10
54.0351209999999966
20
-115.1125879999999881
11
54.1573339999999988
21
-115.0988179999999943
0
LINE
8
BLACK
6
CONTINUOUS
10
54.1573339999999988
20
-115.0988179999999943
11
54.1574999999999989
21
-115.0987499999999955
0
LINE
8
BLACK
6
CONTINUOUS
10
54.1574999999999989
20
-115.0987499999999955
11
67.1574999999999989
21
-115.0987499999999955
0
LINE
8
BLACK
6
CONTINUOUS
10
54.1574999999999989
20
-115.1987499999999898
11
54.1574999999999989
21
-115.1987999999999914
0
LINE
8
BLACK
6
CONTINUOUS
10
54.1574999999999989
20
-115.1987999999999914
11
54.0982599999999962
21
-115.1987999999999914
0
LINE
8
BLACK
6
CONTINUOUS
10
54.0982599999999962
20
-115.1987999999999914
11
53.9838169999999948
21
-115.2294619999999981
0
LINE
8
BLACK
6
CONTINUOUS
10
53.9838169999999948
20
-115.2294619999999981
11
53.8812089999999984
21
-115.288698999999994
0
LINE
8
BLACK
6
CONTINUOUS
10
53.8812089999999984
20
-115.288698999999994
11
53.797426999999999
21
-115.3724729999999994
0
LINE
8
BLACK
6
CONTINUOUS
10
53.797426999999999
20
-115.3724729999999994
11
53.7381799999999998
21
-115.4750749999999897
0
LINE
8
BLACK
6
CONTINUOUS
10
53.7381799999999998
20
-115.4750749999999897
11
53.7075049999999976
21
-115.5895149999999916
0
LINE
8
BLACK
6
CONTINUOUS
10
53.7075049999999976
20
-115.5895149999999916
11
53.707499999999996
21
-115.6487499999999926
0
LINE
8
BLACK
6
CONTINUOUS
10
53.707499999999996
20
-115.6487499999999926
11
53.707499999999996
21
-128.6487500000000068
0
LINE
8
BLACK
6
CONTINUOUS
10
53.707499999999996
20
-128.6487500000000068
11
53.7074499999999944
21
-128.6488699999999881
0
LINE
8
BLACK
6
CONTINUOUS
10
53.7074499999999944
20
-128.6488699999999881
11
53.7074560000000005
21
-128.7079909999999927
0
LINE
8
BLACK
6
CONTINUOUS
10
53.7074560000000005
20
-128.7079909999999927
11
53.7381339999999952
21
-128.8224439999999902
0
LINE
8
BLACK
6
CONTINUOUS
10
53.7381339999999952
20
-128.8224439999999902
11
53.7973870000000005
21
-128.925058000000007
0
LINE
8
BLACK
6
CONTINUOUS
10
53.7973870000000005
20
-128.925058000000007
11
53.8811779999999985
21
-129.0088409999999897
0
LINE
8
BLACK
6
CONTINUOUS
10
53.8811779999999985
20
-129.0088409999999897
11
53.9837980000000002
21
-129.0680839999999989
0
LINE
8
BLACK
6
CONTINUOUS
10
53.9837980000000002
20
-129.0680839999999989
11
54.0982539999999972
21
-129.0987499999999955
0
LINE
8
BLACK
6
CONTINUOUS
10
54.0982539999999972
20
-129.0987499999999955
11
54.1574999999999989
21
-129.0987499999999955
0
LINE
8
BLACK
6
CONTINUOUS
10
54.1574999999999989
20
-129.0987499999999955
11
67.1574999999999989
21
-129.0987499999999955
0
LINE
8
BLACK
6
CONTINUOUS
10
67.1574999999999989
20
-129.0987499999999955
11
67.1574999999999989
21
-129.098700000000008
0
LINE
8
BLACK
6
CONTINUOUS
10
67.1574999999999989
20
-129.098700000000008
11
67.2167400000000015
21
-129.098700000000008
0
LINE
8
BLACK
6
CONTINUOUS
10
67.2167400000000015
20
-129.098700000000008
11
67.3311829999999958
21
-129.0680380000000014
0
LINE
8
BLACK
6
CONTINUOUS
10
67.3311829999999958
20
-129.0680380000000014
11
67.4337909999999994
21
-129.0088010000000054
0
LINE
8
BLACK
6
CONTINUOUS
10
67.4337909999999994
20
-129.0088010000000054
11
67.5175729999999987
21
-128.925027
0
LINE
8
BLACK
6
CONTINUOUS
10
67.5175729999999987
20
-128.925027
11
67.5768199999999979
21
-128.8224249999999813
0
LINE
8
BLACK
6
CONTINUOUS
10
67.5768199999999979
20
-128.8224249999999813
11
67.6074950000000001
21
-128.7079850000000079
0
LINE
8
BLACK
6
CONTINUOUS
10
67.6074950000000001
20
-128.7079850000000079
11
67.6075000000000017
21
-128.648744999999991
0
LINE
8
BLACK
6
CONTINUOUS
10
67.6075000000000017
20
-128.648744999999991
11
67.6075000000000017
21
-115.6487499999999926
0
LINE
8
BLACK
6
CONTINUOUS
10
67.6075000000000017
20
-115.6487499999999926
11
67.6075489999999917
21
-115.6486289999999997
0
LINE
8
BLACK
6
CONTINUOUS
10
67.6075489999999917
20
-115.6486289999999997
11
67.6075439999999901
21
-115.5895089999999925
0
LINE
8
BLACK
6
CONTINUOUS
10
67.6075439999999901
20
-115.5895089999999925
11
67.5768659999999954
21
-115.475055999999995
0
LINE
8
BLACK
6
CONTINUOUS
10
67.5768659999999954
20
-115.475055999999995
11
67.5176129999999972
21
-115.3724419999999924
0
LINE
8
BLACK
6
CONTINUOUS
10
67.5176129999999972
20
-115.3724419999999924
11
67.4338219999999922
21
-115.2886589999999956
0
LINE
8
BLACK
6
CONTINUOUS
10
67.4338219999999922
20
-115.2886589999999956
11
67.3312019999999904
21
-115.2294160000000005
0
LINE
8
BLACK
6
CONTINUOUS
10
67.3312019999999904
20
-115.2294160000000005
11
67.2167460000000005
21
-115.1987499999999898
0
LINE
8
BLACK
6
CONTINUOUS
10
67.2167460000000005
20
-115.1987499999999898
11
67.1574999999999989
21
-115.1987499999999898
0
LINE
8
BLACK
6
CONTINUOUS
10
67.1574999999999989
20
-115.1987499999999898
11
54.1574999999999989
21
-115.1987499999999898
0
LINE
8
BLACK
6
CONTINUOUS
10
90.9699999999999989
20
-115.0987499999999955
11
91.0923899999999946
21
-115.1125389999999982
0
LINE
8
BLACK
6
CONTINUOUS
10
91.0923899999999946
20
-115.1125389999999982
11
91.2086439999999925
21
-115.1532149999999888
0
LINE
8
BLACK
6
CONTINUOUS
10
91.2086439999999925
20
-115.1532149999999888
11
91.3129319999999893
21
-115.2187389999999994
0
LINE
8
BLACK
6
CONTINUOUS
10
91.3129319999999893
20
-115.2187389999999994
11
91.4000269999999944
21
-115.3058249999999987
0
LINE
8
BLACK
6
CONTINUOUS
10
91.4000269999999944
20
-115.3058249999999987
11
91.4655609999999939
21
-115.4101069999999964
0
LINE
8
BLACK
6
CONTINUOUS
10
91.4655609999999939
20
-115.4101069999999964
11
91.5062489999999968
21
-115.5263559999999927
0
LINE
8
BLACK
6
CONTINUOUS
10
91.5062489999999968
20
-115.5263559999999927
11
91.5200499999999977
21
-115.648744999999991
0
LINE
8
BLACK
6
CONTINUOUS
10
91.5200499999999977
20
-115.648744999999991
11
91.519999999999996
21
-115.648744999999991
0
LINE
8
BLACK
6
CONTINUOUS
10
91.519999999999996
20
-115.648744999999991
11
91.5199989999999985
21
-115.6487470000000002
0
LINE
8
BLACK
6
CONTINUOUS
10
91.5199989999999985
20
-115.6487470000000002
11
91.519999999999996
21
-115.6487499999999926
0
LINE
8
BLACK
6
CONTINUOUS
10
91.519999999999996
20
-115.6487499999999926
11
91.519999999999996
21
-128.6487500000000068
0
LINE
8
BLACK
6
CONTINUOUS
10
91.519999999999996
20
-128.6487500000000068
11
91.5199989999999985
21
-128.6487520000000018
0
LINE
8
BLACK
6
CONTINUOUS
10
91.5199989999999985
20
-128.6487520000000018
11
91.519999999999996
21
-128.6487549999999942
0
LINE
8
BLACK
6
CONTINUOUS
10
91.519999999999996
20
-128.6487549999999942
11
91.5061999999999927
21
-128.7711319999999944
0
LINE
8
BLACK
6
CONTINUOUS
10
91.5061999999999927
20
-128.7711319999999944
11
91.4655159999999938
21
-128.8873710000000017
0
LINE
8
BLACK
6
CONTINUOUS
10
91.4655159999999938
20
-128.8873710000000017
11
91.3999879999999933
21
-128.991644000000008
0
LINE
8
BLACK
6
CONTINUOUS
10
91.3999879999999933
20
-128.991644000000008
11
91.3129009999999965
21
-129.0787219999999991
0
LINE
8
BLACK
6
CONTINUOUS
10
91.3129009999999965
20
-129.0787219999999991
11
91.2086219999999912
21
-129.1442399999999964
0
LINE
8
BLACK
6
CONTINUOUS
10
91.2086219999999912
20
-129.1442399999999964
11
91.092378999999994
21
-129.1849119999999971
0
LINE
8
BLACK
6
CONTINUOUS
10
91.092378999999994
20
-129.1849119999999971
11
90.9701649999999944
21
-129.1986809999999934
0
LINE
8
BLACK
6
CONTINUOUS
10
90.9701649999999944
20
-129.1986809999999934
11
90.9699999999999989
21
-129.1987499999999898
0
LINE
8
BLACK
6
CONTINUOUS
10
90.9699999999999989
20
-129.1987499999999898
11
77.9699999999999989
21
-129.1987499999999898
0
LINE
8
BLACK
6
CONTINUOUS
10
77.9699999999999989
20
-129.1987499999999898
11
77.8476100000000031
21
-129.1849609999999871
0
LINE
8
BLACK
6
CONTINUOUS
10
77.8476100000000031
20
-129.1849609999999871
11
77.731355999999991
21
-129.1442849999999964
0
LINE
8
BLACK
6
CONTINUOUS
10
77.731355999999991
20
-129.1442849999999964
11
77.6270679999999942
21
-129.0787609999999859
0
LINE
8
BLACK
6
CONTINUOUS
10
77.6270679999999942
20
-129.0787609999999859
11
77.5399730000000034
21
-128.9916749999999865
0
LINE
8
BLACK
6
CONTINUOUS
10
77.5399730000000034
20
-128.9916749999999865
11
77.4744389999999896
21
-128.887393000000003
0
LINE
8
BLACK
6
CONTINUOUS
10
77.4744389999999896
20
-128.887393000000003
11
77.4337510000000009
21
-128.7711439999999925
0
LINE
8
BLACK
6
CONTINUOUS
10
77.4337510000000009
20
-128.7711439999999925
11
77.41995
21
-128.6487549999999942
0
LINE
8
BLACK
6
CONTINUOUS
10
77.41995
20
-128.6487549999999942
11
77.4200000000000017
21
-128.6487549999999942
0
LINE
8
BLACK
6
CONTINUOUS
10
77.4200000000000017
20
-128.6487549999999942
11
77.4200000000000017
21
-128.6487520000000018
0
LINE
8
BLACK
6
CONTINUOUS
10
77.4200000000000017
20
-128.6487520000000018
11
77.4200000000000017
21
-128.6487500000000068
0
LINE
8
BLACK
6
CONTINUOUS
10
77.4200000000000017
20
-128.6487500000000068
11
77.4200000000000017
21
-115.6487499999999926
0
LINE
8
BLACK
6
CONTINUOUS
10
77.4200000000000017
20
-115.6487499999999926
11
77.4200000000000017
21
-115.6487470000000002
0
LINE
8
BLACK
6
CONTINUOUS
10
77.4200000000000017
20
-115.6487470000000002
11
77.4200000000000017
21
-115.648744999999991
0
LINE
8
BLACK
6
CONTINUOUS
10
77.4200000000000017
20
-115.648744999999991
11
77.4337999999999909
21
-115.5263679999999908
0
LINE
8
BLACK
6
CONTINUOUS
10
77.4337999999999909
20
-115.5263679999999908
11
77.4744839999999897
21
-115.4101289999999977
0
LINE
8
BLACK
6
CONTINUOUS
10
77.4744839999999897
20
-115.4101289999999977
11
77.5400119999999902
21
-115.3058559999999915
0
LINE
8
BLACK
6
CONTINUOUS
10
77.5400119999999902
20
-115.3058559999999915
11
77.6270990000000012
21
-115.2187780000000004
0
LINE
8
BLACK
6
CONTINUOUS
10
77.6270990000000012
20
-115.2187780000000004
11
77.7313779999999923
21
-115.1532599999999888
0
LINE
8
BLACK
6
CONTINUOUS
10
77.7313779999999923
20
-115.1532599999999888
11
77.8476209999999895
21
-115.1125879999999881
0
LINE
8
BLACK
6
CONTINUOUS
10
77.8476209999999895
20
-115.1125879999999881
11
77.9698339999999916
21
-115.0988179999999943
0
LINE
8
BLACK
6
CONTINUOUS
10
77.9698339999999916
20
-115.0988179999999943
11
77.9699999999999989
21
-115.0987499999999955
0
LINE
8
BLACK
6
CONTINUOUS
10
77.9699999999999989
20
-115.0987499999999955
11
90.9699999999999989
21
-115.0987499999999955
0
LINE
8
BLACK
6
CONTINUOUS
10
77.9699999999999989
20
-115.1987499999999898
11
77.9699999999999989
21
-115.1987999999999914
0
LINE
8
BLACK
6
CONTINUOUS
10
77.9699999999999989
20
-115.1987999999999914
11
77.9107599999999962
21
-115.1987999999999914
0
LINE
8
BLACK
6
CONTINUOUS
10
77.9107599999999962
20
-115.1987999999999914
11
77.7963170000000019
21
-115.2294619999999981
0
LINE
8
BLACK
6
CONTINUOUS
10
77.7963170000000019
20
-115.2294619999999981
11
77.6937089999999984
21
-115.288698999999994
0
LINE
8
BLACK
6
CONTINUOUS
10
77.6937089999999984
20
-115.288698999999994
11
77.609926999999999
21
-115.3724729999999994
0
LINE
8
BLACK
6
CONTINUOUS
10
77.609926999999999
20
-115.3724729999999994
11
77.5506799999999998
21
-115.4750749999999897
0
LINE
8
BLACK
6
CONTINUOUS
10
77.5506799999999998
20
-115.4750749999999897
11
77.5200049999999976
21
-115.5895149999999916
0
LINE
8
BLACK
6
CONTINUOUS
10
77.5200049999999976
20
-115.5895149999999916
11
77.519999999999996
21
-115.6487499999999926
0
LINE
8
BLACK
6
CONTINUOUS
10
77.519999999999996
20
-115.6487499999999926
11
77.519999999999996
21
-128.6487500000000068
0
LINE
8
BLACK
6
CONTINUOUS
10
77.519999999999996
20
-128.6487500000000068
11
77.5199499999999944
21
-128.6488699999999881
0
LINE
8
BLACK
6
CONTINUOUS
10
77.5199499999999944
20
-128.6488699999999881
11
77.5199559999999934
21
-128.7079909999999927
0
LINE
8
BLACK
6
CONTINUOUS
10
77.5199559999999934
20
-128.7079909999999927
11
77.5506340000000023
21
-128.8224439999999902
0
LINE
8
BLACK
6
CONTINUOUS
10
77.5506340000000023
20
-128.8224439999999902
11
77.6098870000000005
21
-128.925058000000007
0
LINE
8
BLACK
6
CONTINUOUS
10
77.6098870000000005
20
-128.925058000000007
11
77.6936779999999914
21
-129.0088409999999897
0
LINE
8
BLACK
6
CONTINUOUS
10
77.6936779999999914
20
-129.0088409999999897
11
77.7962979999999931
21
-129.0680839999999989
0
LINE
8
BLACK
6
CONTINUOUS
10
77.7962979999999931
20
-129.0680839999999989
11
77.9107539999999972
21
-129.0987499999999955
0
LINE
8
BLACK
6
CONTINUOUS
10
77.9107539999999972
20
-129.0987499999999955
11
77.9699999999999989
21
-129.0987499999999955
0
LINE
8
BLACK
6
CONTINUOUS
10
77.9699999999999989
20
-129.0987499999999955
11
90.9699999999999989
21
-129.0987499999999955
0
LINE
8
BLACK
6
CONTINUOUS
10
90.9699999999999989
20
-129.0987499999999955
11
90.9699999999999989
21
-129.098700000000008
0
LINE
8
BLACK
6
CONTINUOUS
10
90.9699999999999989
20
-129.098700000000008
11
91.0292400000000015
21
-129.098700000000008
0
LINE
8
BLACK
6
CONTINUOUS
10
91.0292400000000015
20
-129.098700000000008
11
91.1436829999999958
21
-129.0680380000000014
0
LINE
8
BLACK
6
CONTINUOUS
10
91.1436829999999958
20
-129.0680380000000014
11
91.2462909999999994
21
-129.0088010000000054
0
LINE
8
BLACK
6
CONTINUOUS
10
91.2462909999999994
20
-129.0088010000000054
11
91.3300729999999987
21
-128.925027
0
LINE
8
BLACK
6
CONTINUOUS
10
91.3300729999999987
20
-128.925027
11
91.3893199999999979
21
-128.8224249999999813
0
LINE
8
BLACK
6
CONTINUOUS
10
91.3893199999999979
20
-128.8224249999999813
11
91.4199950000000001
21
-128.7079850000000079
0
LINE
8
BLACK
6
CONTINUOUS
10
91.4199950000000001
20
-128.7079850000000079
11
91.4200000000000017
21
-128.648744999999991
0
LINE
8
BLACK
6
CONTINUOUS
10
91.4200000000000017
20
-128.648744999999991
11
91.4200000000000017
21
-115.6487499999999926
0
LINE
8
BLACK
6
CONTINUOUS
10
91.4200000000000017
20
-115.6487499999999926
11
91.4200489999999917
21
-115.6486289999999997
0
LINE
8
BLACK
6
CONTINUOUS
10
91.4200489999999917
20
-115.6486289999999997
11
91.4200439999999901
21
-115.5895089999999925
0
LINE
8
BLACK
6
CONTINUOUS
10
91.4200439999999901
20
-115.5895089999999925
11
91.3893659999999954
21
-115.475055999999995
0
LINE
8
BLACK
6
CONTINUOUS
10
91.3893659999999954
20
-115.475055999999995
11
91.3301129999999972
21
-115.3724419999999924
0
LINE
8
BLACK
6
CONTINUOUS
10
91.3301129999999972
20
-115.3724419999999924
11
91.2463219999999922
21
-115.2886589999999956
0
LINE
8
BLACK
6
CONTINUOUS
10
91.2463219999999922
20
-115.2886589999999956
11
91.1437019999999904
21
-115.2294160000000005
0
LINE
8
BLACK
6
CONTINUOUS
10
91.1437019999999904
20
-115.2294160000000005
11
91.0292460000000005
21
-115.1987499999999898
0
LINE
8
BLACK
6
CONTINUOUS
10
91.0292460000000005
20
-115.1987499999999898
11
90.9699999999999989
21
-115.1987499999999898
0
LINE
8
BLACK
6
CONTINUOUS
10
90.9699999999999989
20
-115.1987499999999898
11
77.9699999999999989
21
-115.1987499999999898
0
LINE
8
BLACK
6
CONTINUOUS
10
49.3499720000000011
20
-125.4753339999999895
11
49.5864750000000001
21
-125.5321129999999954
0
LINE
8
BLACK
6
CONTINUOUS
10
49.5864750000000001
20
-125.5321129999999954
11
49.8111839999999972
21
-125.6251910000000009
0
LINE
8
BLACK
6
CONTINUOUS
10
49.8111839999999972
20
-125.6251910000000009
11
50.0185659999999999
21
-125.7522749999999974
0
LINE
8
BLACK
6
CONTINUOUS
10
50.0185659999999999
20
-125.7522749999999974
11
50.2035149999999959
21
-125.9102350000000001
0
LINE
8
BLACK
6
CONTINUOUS
10
50.2035149999999959
20
-125.9102350000000001
11
50.3614749999999987
21
-126.0951839999999891
0
LINE
8
BLACK
6
CONTINUOUS
10
50.3614749999999987
20
-126.0951839999999891
11
50.4885589999999951
21
-126.3025659999999988
0
LINE
8
BLACK
6
CONTINUOUS
10
50.4885589999999951
20
-126.3025659999999988
11
50.5816370000000006
21
-126.5272749999999888
0
LINE
8
BLACK
6
CONTINUOUS
10
50.5816370000000006
20
-126.5272749999999888
11
50.6384159999999994
21
-126.7637779999999879
0
LINE
8
BLACK
6
CONTINUOUS
10
50.6384159999999994
20
-126.7637779999999879
11
50.6574989999999943
21
-127.0062509999999918
0
LINE
8
BLACK
6
CONTINUOUS
10
50.6574989999999943
20
-127.0062509999999918
11
50.6384159999999994
21
-127.2487239999999957
0
LINE
8
BLACK
6
CONTINUOUS
10
50.6384159999999994
20
-127.2487239999999957
11
50.5816370000000006
21
-127.4852269999999947
0
LINE
8
BLACK
6
CONTINUOUS
10
50.5816370000000006
20
-127.4852269999999947
11
50.4885589999999951
21
-127.709935999999999
0
LINE
8
BLACK
6
CONTINUOUS
10
50.4885589999999951
20
-127.709935999999999
11
50.3614749999999987
21
-127.9173179999999945
0
LINE
8
BLACK
6
CONTINUOUS
10
50.3614749999999987
20
-127.9173179999999945
11
50.2035149999999959
21
-128.1022669999999835
0
LINE
8
BLACK
6
CONTINUOUS
10
50.2035149999999959
20
-128.1022669999999835
11
50.0185659999999999
21
-128.2602269999999862
0
LINE
8
BLACK
6
CONTINUOUS
10
50.0185659999999999
20
-128.2602269999999862
11
49.8111839999999972
21
-128.3873109999999826
0
LINE
8
BLACK
6
CONTINUOUS
10
49.8111839999999972
20
-128.3873109999999826
11
49.5864750000000001
21
-128.4803890000000024
0
LINE
8
BLACK
6
CONTINUOUS
10
49.5864750000000001
20
-128.4803890000000024
11
49.3499720000000011
21
-128.5371680000000083
0
LINE
8
BLACK
6
CONTINUOUS
10
49.3499720000000011
20
-128.5371680000000083
11
49.1074989999999971
21
-128.5562510000000032
0
LINE
8
BLACK
6
CONTINUOUS
10
49.1074989999999971
20
-128.5562510000000032
11
48.8650260000000003
21
-128.5371680000000083
0
LINE
8
BLACK
6
CONTINUOUS
10
48.8650260000000003
20
-128.5371680000000083
11
48.6285230000000013
21
-128.4803890000000024
0
LINE
8
BLACK
6
CONTINUOUS
10
48.6285230000000013
20
-128.4803890000000024
11
48.403813999999997
21
-128.3873109999999826
0
LINE
8
BLACK
6
CONTINUOUS
10
48.403813999999997
20
-128.3873109999999826
11
48.1964319999999944
21
-128.2602269999999862
0
LINE
8
BLACK
6
CONTINUOUS
10
48.1964319999999944
20
-128.2602269999999862
11
48.0114829999999984
21
-128.1022669999999835
0
LINE
8
BLACK
6
CONTINUOUS
10
48.0114829999999984
20
-128.1022669999999835
11
47.8535229999999956
21
-127.9173179999999945
0
LINE
8
BLACK
6
CONTINUOUS
10
47.8535229999999956
20
-127.9173179999999945
11
47.7264389999999992
21
-127.709935999999999
0
LINE
8
BLACK
6
CONTINUOUS
10
47.7264389999999992
20
-127.709935999999999
11
47.6333610000000007
21
-127.4852269999999947
0
LINE
8
BLACK
6
CONTINUOUS
10
47.6333610000000007
20
-127.4852269999999947
11
47.5765819999999948
21
-127.2487239999999957
0
LINE
8
BLACK
6
CONTINUOUS
10
47.5765819999999948
20
-127.2487239999999957
11
47.557499
21
-127.0062509999999918
0
LINE
8
BLACK
6
CONTINUOUS
10
47.557499
20
-127.0062509999999918
11
47.5765819999999948
21
-126.7637779999999879
0
LINE
8
BLACK
6
CONTINUOUS
10
47.5765819999999948
20
-126.7637779999999879
11
47.6333610000000007
21
-126.5272749999999888
0
LINE
8
BLACK
6
CONTINUOUS
10
47.6333610000000007
20
-126.5272749999999888
11
47.7264389999999992
21
-126.3025659999999988
0
LINE
8
BLACK
6
CONTINUOUS
10
47.7264389999999992
20
-126.3025659999999988
11
47.8535229999999956
21
-126.0951839999999891
0
LINE
8
BLACK
6
CONTINUOUS
10
47.8535229999999956
20
-126.0951839999999891
11
48.0114829999999984
21
-125.9102350000000001
0
LINE
8
BLACK
6
CONTINUOUS
10
48.0114829999999984
20
-125.9102350000000001
11
48.1964319999999944
21
-125.7522749999999974
0
LINE
8
BLACK
6
CONTINUOUS
10
48.1964319999999944
20
-125.7522749999999974
11
48.403813999999997
21
-125.6251910000000009
0
LINE
8
BLACK
6
CONTINUOUS
10
48.403813999999997
20
-125.6251910000000009
11
48.6285230000000013
21
-125.5321129999999954
0
LINE
8
BLACK
6
CONTINUOUS
10
48.6285230000000013
20
-125.5321129999999954
11
48.8650260000000003
21
-125.4753339999999895
0
LINE
8
BLACK
6
CONTINUOUS
10
48.8650260000000003
20
-125.4753339999999895
11
49.1074989999999971
21
-125.4562509999999946
0
LINE
8
BLACK
6
CONTINUOUS
10
49.1074989999999971
20
-125.4562509999999946
11
49.3499720000000011
21
-125.4753339999999895
0
LINE
8
BLACK
6
CONTINUOUS
10
47.6723739999999978
20
-127.2457309999999922
11
47.7313639999999992
21
-127.4786789999999996
0
LINE
8
BLACK
6
CONTINUOUS
10
47.7313639999999992
20
-127.4786789999999996
11
47.8278919999999985
21
-127.6987400000000008
0
LINE
8
BLACK
6
CONTINUOUS
10
47.8278919999999985
20
-127.6987400000000008
11
47.9593239999999952
21
-127.8999109999999888
0
LINE
8
BLACK
6
CONTINUOUS
10
47.9593239999999952
20
-127.8999109999999888
11
48.1220749999999953
21
-128.0767060000000015
0
LINE
8
BLACK
6
CONTINUOUS
10
48.1220749999999953
20
-128.0767060000000015
11
48.3117060000000009
21
-128.2243019999999945
0
LINE
8
BLACK
6
CONTINUOUS
10
48.3117060000000009
20
-128.2243019999999945
11
48.5230449999999962
21
-128.338673
0
LINE
8
BLACK
6
CONTINUOUS
10
48.5230449999999962
20
-128.338673
11
48.7503249999999966
21
-128.4166979999999967
0
LINE
8
BLACK
6
CONTINUOUS
10
48.7503249999999966
20
-128.4166979999999967
11
48.9873489999999947
21
-128.4562509999999804
0
LINE
8
BLACK
6
CONTINUOUS
10
48.9873489999999947
20
-128.4562509999999804
11
49.2276489999999995
21
-128.4562509999999804
0
LINE
8
BLACK
6
CONTINUOUS
10
49.2276489999999995
20
-128.4562509999999804
11
49.4646729999999977
21
-128.4166979999999967
0
LINE
8
BLACK
6
CONTINUOUS
10
49.4646729999999977
20
-128.4166979999999967
11
49.691952999999998
21
-128.338673
0
LINE
8
BLACK
6
CONTINUOUS
10
49.691952999999998
20
-128.338673
11
49.9032920000000004
21
-128.2243019999999945
0
LINE
8
BLACK
6
CONTINUOUS
10
49.9032920000000004
20
-128.2243019999999945
11
50.092922999999999
21
-128.0767060000000015
0
LINE
8
BLACK
6
CONTINUOUS
10
50.092922999999999
20
-128.0767060000000015
11
50.2556739999999991
21
-127.8999109999999888
0
LINE
8
BLACK
6
CONTINUOUS
10
50.2556739999999991
20
-127.8999109999999888
11
50.3871059999999957
21
-127.6987400000000008
0
LINE
8
BLACK
6
CONTINUOUS
10
50.3871059999999957
20
-127.6987400000000008
11
50.483633999999995
21
-127.4786789999999996
0
LINE
8
BLACK
6
CONTINUOUS
10
50.483633999999995
20
-127.4786789999999996
11
50.5426239999999964
21
-127.2457309999999922
0
LINE
8
BLACK
6
CONTINUOUS
10
50.5426239999999964
20
-127.2457309999999922
11
50.5624679999999955
21
-127.0062509999999918
0
LINE
8
BLACK
6
CONTINUOUS
10
50.5624679999999955
20
-127.0062509999999918
11
50.5426239999999964
21
-126.7667709999999914
0
LINE
8
BLACK
6
CONTINUOUS
10
50.5426239999999964
20
-126.7667709999999914
11
50.483633999999995
21
-126.5338229999999982
0
LINE
8
BLACK
6
CONTINUOUS
10
50.483633999999995
20
-126.5338229999999982
11
50.3871059999999957
21
-126.313761999999997
0
LINE
8
BLACK
6
CONTINUOUS
10
50.3871059999999957
20
-126.313761999999997
11
50.2556739999999991
21
-126.1125909999999948
0
LINE
8
BLACK
6
CONTINUOUS
10
50.2556739999999991
20
-126.1125909999999948
11
50.092922999999999
21
-125.9357959999999963
0
LINE
8
BLACK
6
CONTINUOUS
10
50.092922999999999
20
-125.9357959999999963
11
49.9032920000000004
21
-125.7881999999999891
0
LINE
8
BLACK
6
CONTINUOUS
10
49.9032920000000004
20
-125.7881999999999891
11
49.691952999999998
21
-125.6738289999999978
0
LINE
8
BLACK
6
CONTINUOUS
10
49.691952999999998
20
-125.6738289999999978
11
49.4646729999999977
21
-125.5958040000000011
0
LINE
8
BLACK
6
CONTINUOUS
10
49.4646729999999977
20
-125.5958040000000011
11
49.2276489999999995
21
-125.5562509999999889
0
LINE
8
BLACK
6
CONTINUOUS
10
49.2276489999999995
20
-125.5562509999999889
11
48.9873489999999947
21
-125.5562509999999889
0
LINE
8
BLACK
6
CONTINUOUS
10
48.9873489999999947
20
-125.5562509999999889
11
48.7503249999999966
21
-125.5958040000000011
0
LINE
8
BLACK
6
CONTINUOUS
10
48.7503249999999966
20
-125.5958040000000011
11
48.5230449999999962
21
-125.6738289999999978
0
LINE
8
BLACK
6
CONTINUOUS
10
48.5230449999999962
20
-125.6738289999999978
11
48.3117060000000009
21
-125.7881999999999891
0
LINE
8
BLACK
6
CONTINUOUS
10
48.3117060000000009
20
-125.7881999999999891
11
48.1220749999999953
21
-125.9357959999999963
0
LINE
8
BLACK
6
CONTINUOUS
10
48.1220749999999953
20
-125.9357959999999963
11
47.9593239999999952
21
-126.1125909999999948
0
LINE
8
BLACK
6
CONTINUOUS
10
47.9593239999999952
20
-126.1125909999999948
11
47.8278919999999985
21
-126.313761999999997
0
LINE
8
BLACK
6
CONTINUOUS
10
47.8278919999999985
20
-126.313761999999997
11
47.7313639999999992
21
-126.5338229999999982
0
LINE
8
BLACK
6
CONTINUOUS
10
47.7313639999999992
20
-126.5338229999999982
11
47.6723739999999978
21
-126.7667709999999914
0
LINE
8
BLACK
6
CONTINUOUS
10
47.6723739999999978
20
-126.7667709999999914
11
47.6525299999999987
21
-127.0062509999999918
0
LINE
8
BLACK
6
CONTINUOUS
10
47.6525299999999987
20
-127.0062509999999918
11
47.6723739999999978
21
-127.2457309999999922
0
LINE
8
BLACK
6
CONTINUOUS
10
96.349971999999994
20
-125.4753339999999895
11
96.586474999999993
21
-125.5321129999999954
0
LINE
8
BLACK
6
CONTINUOUS
10
96.586474999999993
20
-125.5321129999999954
11
96.8111839999999972
21
-125.6251910000000009
0
LINE
8
BLACK
6
CONTINUOUS
10
96.8111839999999972
20
-125.6251910000000009
11
97.0185659999999928
21
-125.7522749999999974
0
LINE
8
BLACK
6
CONTINUOUS
10
97.0185659999999928
20
-125.7522749999999974
11
97.2035149999999959
21
-125.9102350000000001
0
LINE
8
BLACK
6
CONTINUOUS
10
97.2035149999999959
20
-125.9102350000000001
11
97.3614749999999987
21
-126.0951839999999891
0
LINE
8
BLACK
6
CONTINUOUS
10
97.3614749999999987
20
-126.0951839999999891
11
97.4885589999999951
21
-126.3025659999999988
0
LINE
8
BLACK
6
CONTINUOUS
10
97.4885589999999951
20
-126.3025659999999988
11
97.5816370000000006
21
-126.5272749999999888
0
LINE
8
BLACK
6
CONTINUOUS
10
97.5816370000000006
20
-126.5272749999999888
11
97.6384159999999923
21
-126.7637779999999879
0
LINE
8
BLACK
6
CONTINUOUS
10
97.6384159999999923
20
-126.7637779999999879
11
97.6574990000000014
21
-127.0062509999999918
0
LINE
8
BLACK
6
CONTINUOUS
10
97.6574990000000014
20
-127.0062509999999918
11
97.6384159999999923
21
-127.2487239999999957
0
LINE
8
BLACK
6
CONTINUOUS
10
97.6384159999999923
20
-127.2487239999999957
11
97.5816370000000006
21
-127.4852269999999947
0
LINE
8
BLACK
6
CONTINUOUS
10
97.5816370000000006
20
-127.4852269999999947
11
97.4885589999999951
21
-127.709935999999999
0
LINE
8
BLACK
6
CONTINUOUS
10
97.4885589999999951
20
-127.709935999999999
11
97.3614749999999987
21
-127.9173179999999945
0
LINE
8
BLACK
6
CONTINUOUS
10
97.3614749999999987
20
-127.9173179999999945
11
97.2035149999999959
21
-128.1022669999999835
0
LINE
8
BLACK
6
CONTINUOUS
10
97.2035149999999959
20
-128.1022669999999835
11
97.0185659999999928
21
-128.2602269999999862
0
LINE
8
BLACK
6
CONTINUOUS
10
97.0185659999999928
20
-128.2602269999999862
11
96.8111839999999972
21
-128.3873109999999826
0
LINE
8
BLACK
6
CONTINUOUS
10
96.8111839999999972
20
-128.3873109999999826
11
96.586474999999993
21
-128.4803890000000024
0
LINE
8
BLACK
6
CONTINUOUS
10
96.586474999999993
20
-128.4803890000000024
11
96.349971999999994
21
-128.5371680000000083
0
LINE
8
BLACK
6
CONTINUOUS
10
96.349971999999994
20
-128.5371680000000083
11
96.10749899999999
21
-128.5562510000000032
0
LINE
8
BLACK
6
CONTINUOUS
10
96.10749899999999
20
-128.5562510000000032
11
95.8650260000000003
21
-128.5371680000000083
0
LINE
8
BLACK
6
CONTINUOUS
10
95.8650260000000003
20
-128.5371680000000083
11
95.6285230000000013
21
-128.4803890000000024
0
LINE
8
BLACK
6
CONTINUOUS
10
95.6285230000000013
20
-128.4803890000000024
11
95.403813999999997
21
-128.3873109999999826
0
LINE
8
BLACK
6
CONTINUOUS
10
95.403813999999997
20
-128.3873109999999826
11
95.1964320000000015
21
-128.2602269999999862
0
LINE
8
BLACK
6
CONTINUOUS
10
95.1964320000000015
20
-128.2602269999999862
11
95.0114829999999984
21
-128.1022669999999835
0
LINE
8
BLACK
6
CONTINUOUS
10
95.0114829999999984
20
-128.1022669999999835
11
94.8535229999999956
21
-127.9173179999999945
0
LINE
8
BLACK
6
CONTINUOUS
10
94.8535229999999956
20
-127.9173179999999945
11
94.7264389999999992
21
-127.709935999999999
0
LINE
8
BLACK
6
CONTINUOUS
10
94.7264389999999992
20
-127.709935999999999
11
94.6333609999999936
21
-127.4852269999999947
0
LINE
8
BLACK
6
CONTINUOUS
10
94.6333609999999936
20
-127.4852269999999947
11
94.5765820000000019
21
-127.2487239999999957
0
LINE
8
BLACK
6
CONTINUOUS
10
94.5765820000000019
20
-127.2487239999999957
11
94.5574989999999929
21
-127.0062509999999918
0
LINE
8
BLACK
6
CONTINUOUS
10
94.5574989999999929
20
-127.0062509999999918
11
94.5765820000000019
21
-126.7637779999999879
0
LINE
8
BLACK
6
CONTINUOUS
10
94.5765820000000019
20
-126.7637779999999879
11
94.6333609999999936
21
-126.5272749999999888
0
LINE
8
BLACK
6
CONTINUOUS
10
94.6333609999999936
20
-126.5272749999999888
11
94.7264389999999992
21
-126.3025659999999988
0
LINE
8
BLACK
6
CONTINUOUS
10
94.7264389999999992
20
-126.3025659999999988
11
94.8535229999999956
21
-126.0951839999999891
0
LINE
8
BLACK
6
CONTINUOUS
10
94.8535229999999956
20
-126.0951839999999891
11
95.0114829999999984
21
-125.9102350000000001
0
LINE
8
BLACK
6
CONTINUOUS
10
95.0114829999999984
20
-125.9102350000000001
11
95.1964320000000015
21
-125.7522749999999974
0
LINE
8
BLACK
6
CONTINUOUS
10
95.1964320000000015
20
-125.7522749999999974
11
95.403813999999997
21
-125.6251910000000009
0
LINE
8
BLACK
6
CONTINUOUS
10
95.403813999999997
20
-125.6251910000000009
11
95.6285230000000013
21
-125.5321129999999954
0
LINE
8
BLACK
6
CONTINUOUS
10
95.6285230000000013
20
-125.5321129999999954
11
95.8650260000000003
21
-125.4753339999999895
0
LINE
8
BLACK
6
CONTINUOUS
10
95.8650260000000003
20
-125.4753339999999895
11
96.10749899999999
21
-125.4562509999999946
0
LINE
8
BLACK
6
CONTINUOUS
10
96.10749899999999
20
-125.4562509999999946
11
96.349971999999994
21
-125.4753339999999895
0
LINE
8
BLACK
6
CONTINUOUS
10
94.6723739999999907
20
-127.2457309999999922
11
94.7313639999999992
21
-127.4786789999999996
0
LINE
8
BLACK
6
CONTINUOUS
10
94.7313639999999992
20
-127.4786789999999996
11
94.8278919999999914
21
-127.6987400000000008
0
LINE
8
BLACK
6
CONTINUOUS
10
94.8278919999999914
20
-127.6987400000000008
11
94.9593239999999952
21
-127.8999109999999888
0
LINE
8
BLACK
6
CONTINUOUS
10
94.9593239999999952
20
-127.8999109999999888
11
95.1220749999999953
21
-128.0767060000000015
0
LINE
8
BLACK
6
CONTINUOUS
10
95.1220749999999953
20
-128.0767060000000015
11
95.3117060000000009
21
-128.2243019999999945
0
LINE
8
BLACK
6
CONTINUOUS
10
95.3117060000000009
20
-128.2243019999999945
11
95.5230449999999962
21
-128.338673
0
LINE
8
BLACK
6
CONTINUOUS
10
95.5230449999999962
20
-128.338673
11
95.7503249999999895
21
-128.4166979999999967
0
LINE
8
BLACK
6
CONTINUOUS
10
95.7503249999999895
20
-128.4166979999999967
11
95.9873489999999947
21
-128.4562509999999804
0
LINE
8
BLACK
6
CONTINUOUS
10
95.9873489999999947
20
-128.4562509999999804
11
96.2276489999999995
21
-128.4562509999999804
0
LINE
8
BLACK
6
CONTINUOUS
10
96.2276489999999995
20
-128.4562509999999804
11
96.4646729999999906
21
-128.4166979999999967
0
LINE
8
BLACK
6
CONTINUOUS
10
96.4646729999999906
20
-128.4166979999999967
11
96.691952999999998
21
-128.338673
0
LINE
8
BLACK
6
CONTINUOUS
10
96.691952999999998
20
-128.338673
11
96.9032919999999933
21
-128.2243019999999945
0
LINE
8
BLACK
6
CONTINUOUS
10
96.9032919999999933
20
-128.2243019999999945
11
97.092922999999999
21
-128.0767060000000015
0
LINE
8
BLACK
6
CONTINUOUS
10
97.092922999999999
20
-128.0767060000000015
11
97.2556739999999991
21
-127.8999109999999888
0
LINE
8
BLACK
6
CONTINUOUS
10
97.2556739999999991
20
-127.8999109999999888
11
97.3871059999999886
21
-127.6987400000000008
0
LINE
8
BLACK
6
CONTINUOUS
10
97.3871059999999886
20
-127.6987400000000008
11
97.483633999999995
21
-127.4786789999999996
0
LINE
8
BLACK
6
CONTINUOUS
10
97.483633999999995
20
-127.4786789999999996
11
97.5426239999999893
21
-127.2457309999999922
0
LINE
8
BLACK
6
CONTINUOUS
10
97.5426239999999893
20
-127.2457309999999922
11
97.5624679999999955
21
-127.0062509999999918
0
LINE
8
BLACK
6
CONTINUOUS
10
97.5624679999999955
20
-127.0062509999999918
11
97.5426239999999893
21
-126.7667709999999914
0
LINE
8
BLACK
6
CONTINUOUS
10
97.5426239999999893
20
-126.7667709999999914
11
97.483633999999995
21
-126.5338229999999982
0
LINE
8
BLACK
6
CONTINUOUS
10
97.483633999999995
20
-126.5338229999999982
11
97.3871059999999886
21
-126.313761999999997
0
LINE
8
BLACK
6
CONTINUOUS
10
97.3871059999999886
20
-126.313761999999997
11
97.2556739999999991
21
-126.1125909999999948
0
LINE
8
BLACK
6
CONTINUOUS
10
97.2556739999999991
20
-126.1125909999999948
11
97.092922999999999
21
-125.9357959999999963
0
LINE
8
BLACK
6
CONTINUOUS
10
97.092922999999999
20
-125.9357959999999963
11
96.9032919999999933
21
-125.7881999999999891
0
LINE
8
BLACK
6
CONTINUOUS
10
96.9032919999999933
20
-125.7881999999999891
11
96.691952999999998
21
-125.6738289999999978
0
LINE
8
BLACK
6
CONTINUOUS
10
96.691952999999998
20
-125.6738289999999978
11
96.4646729999999906
21
-125.5958040000000011
0
LINE
8
BLACK
6
CONTINUOUS
10
96.4646729999999906
20
-125.5958040000000011
11
96.2276489999999995
21
-125.5562509999999889
0
LINE
8
BLACK
6
CONTINUOUS
10
96.2276489999999995
20
-125.5562509999999889
11
95.9873489999999947
21
-125.5562509999999889
0
LINE
8
BLACK
6
CONTINUOUS
10
95.9873489999999947
20
-125.5562509999999889
11
95.7503249999999895
21
-125.5958040000000011
0
LINE
8
BLACK
6
CONTINUOUS
10
95.7503249999999895
20
-125.5958040000000011
11
95.5230449999999962
21
-125.6738289999999978
0
LINE
8
BLACK
6
CONTINUOUS
10
95.5230449999999962
20
-125.6738289999999978
11
95.3117060000000009
21
-125.7881999999999891
0
LINE
8
BLACK
6
CONTINUOUS
10
95.3117060000000009
20
-125.7881999999999891
11
95.1220749999999953
21
-125.9357959999999963
0
LINE
8
BLACK
6
CONTINUOUS
10
95.1220749999999953
20
-125.9357959999999963
11
94.9593239999999952
21
-126.1125909999999948
0
LINE
8
BLACK
6
CONTINUOUS
10
94.9593239999999952
20
-126.1125909999999948
11
94.8278919999999914
21
-126.313761999999997
0
LINE
8
BLACK
6
CONTINUOUS
10
94.8278919999999914
20
-126.313761999999997
11
94.7313639999999992
21
-126.5338229999999982
0
LINE
8
BLACK
6
CONTINUOUS
10
94.7313639999999992
20
-126.5338229999999982
11
94.6723739999999907
21
-126.7667709999999914
0
LINE
8
BLACK
6
CONTINUOUS
10
94.6723739999999907
20
-126.7667709999999914
11
94.6525299999999987
21
-127.0062509999999918
0
LINE
8
BLACK
6
CONTINUOUS
10
94.6525299999999987
20
-127.0062509999999918
11
94.6723739999999907
21
-127.2457309999999922
0
LINE
8
BLACK
6
CONTINUOUS
10
67.1574999999999989
20
-96.0487499999999983
11
67.2798899999999946
21
-96.062539000000001
0
LINE
8
BLACK
6
CONTINUOUS
10
67.2798899999999946
20
-96.062539000000001
11
67.3961439999999925
21
-96.1032149999999916
0
LINE
8
BLACK
6
CONTINUOUS
10
67.3961439999999925
20
-96.1032149999999916
11
67.5004320000000035
21
-96.1687390000000022
0
LINE
8
BLACK
6
CONTINUOUS
10
67.5004320000000035
20
-96.1687390000000022
11
67.5875269999999944
21
-96.2558250000000015
0
LINE
8
BLACK
6
CONTINUOUS
10
67.5875269999999944
20
-96.2558250000000015
11
67.6530609999999939
21
-96.3601069999999993
0
LINE
8
BLACK
6
CONTINUOUS
10
67.6530609999999939
20
-96.3601069999999993
11
67.6937489999999968
21
-96.4763559999999956
0
LINE
8
BLACK
6
CONTINUOUS
10
67.6937489999999968
20
-96.4763559999999956
11
67.7075499999999977
21
-96.5987449999999939
0
LINE
8
BLACK
6
CONTINUOUS
10
67.7075499999999977
20
-96.5987449999999939
11
67.707499999999996
21
-96.5987449999999939
0
LINE
8
BLACK
6
CONTINUOUS
10
67.707499999999996
20
-96.5987449999999939
11
67.7074989999999985
21
-96.5987469999999888
0
LINE
8
BLACK
6
CONTINUOUS
10
67.7074989999999985
20
-96.5987469999999888
11
67.707499999999996
21
-96.5987499999999955
0
LINE
8
BLACK
6
CONTINUOUS
10
67.707499999999996
20
-96.5987499999999955
11
67.707499999999996
21
-109.5987499999999955
0
LINE
8
BLACK
6
CONTINUOUS
10
67.707499999999996
20
-109.5987499999999955
11
67.7074989999999985
21
-109.5987519999999904
0
LINE
8
BLACK
6
CONTINUOUS
10
67.7074989999999985
20
-109.5987519999999904
11
67.707499999999996
21
-109.598754999999997
0
LINE
8
BLACK
6
CONTINUOUS
10
67.707499999999996
20
-109.598754999999997
11
67.6936999999999927
21
-109.7211319999999972
0
LINE
8
BLACK
6
CONTINUOUS
10
67.6936999999999927
20
-109.7211319999999972
11
67.6530159999999938
21
-109.8373709999999903
0
LINE
8
BLACK
6
CONTINUOUS
10
67.6530159999999938
20
-109.8373709999999903
11
67.5874879999999933
21
-109.9416439999999966
0
LINE
8
BLACK
6
CONTINUOUS
10
67.5874879999999933
20
-109.9416439999999966
11
67.5004009999999965
21
-110.0287220000000019
0
LINE
8
BLACK
6
CONTINUOUS
10
67.5004009999999965
20
-110.0287220000000019
11
67.3961219999999912
21
-110.0942399999999992
0
LINE
8
BLACK
6
CONTINUOUS
10
67.3961219999999912
20
-110.0942399999999992
11
67.279878999999994
21
-110.1349119999999999
0
LINE
8
BLACK
6
CONTINUOUS
10
67.279878999999994
20
-110.1349119999999999
11
67.1576649999999944
21
-110.1486809999999963
0
LINE
8
BLACK
6
CONTINUOUS
10
67.1576649999999944
20
-110.1486809999999963
11
67.1574999999999989
21
-110.1487499999999926
0
LINE
8
BLACK
6
CONTINUOUS
10
67.1574999999999989
20
-110.1487499999999926
11
54.1574999999999989
21
-110.1487499999999926
0
LINE
8
BLACK
6
CONTINUOUS
10
54.1574999999999989
20
-110.1487499999999926
11
54.035109999999996
21
-110.1349609999999899
0
LINE
8
BLACK
6
CONTINUOUS
10
54.035109999999996
20
-110.1349609999999899
11
53.9188559999999981
21
-110.0942849999999993
0
LINE
8
BLACK
6
CONTINUOUS
10
53.9188559999999981
20
-110.0942849999999993
11
53.8145679999999942
21
-110.0287609999999887
0
LINE
8
BLACK
6
CONTINUOUS
10
53.8145679999999942
20
-110.0287609999999887
11
53.7274729999999963
21
-109.9416749999999894
0
LINE
8
BLACK
6
CONTINUOUS
10
53.7274729999999963
20
-109.9416749999999894
11
53.6619389999999967
21
-109.8373929999999916
0
LINE
8
BLACK
6
CONTINUOUS
10
53.6619389999999967
20
-109.8373929999999916
11
53.6212510000000009
21
-109.7211439999999953
0
LINE
8
BLACK
6
CONTINUOUS
10
53.6212510000000009
20
-109.7211439999999953
11
53.60745
21
-109.598754999999997
0
LINE
8
BLACK
6
CONTINUOUS
10
53.60745
20
-109.598754999999997
11
53.6074999999999946
21
-109.598754999999997
0
LINE
8
BLACK
6
CONTINUOUS
10
53.6074999999999946
20
-109.598754999999997
11
53.6074999999999946
21
-109.5987519999999904
0
LINE
8
BLACK
6
CONTINUOUS
10
53.6074999999999946
20
-109.5987519999999904
11
53.6074999999999946
21
-109.5987499999999955
0
LINE
8
BLACK
6
CONTINUOUS
10
53.6074999999999946
20
-109.5987499999999955
11
53.6074999999999946
21
-96.5987499999999955
0
LINE
8
BLACK
6
CONTINUOUS
10
53.6074999999999946
20
-96.5987499999999955
11
53.6074999999999946
21
-96.5987469999999888
0
LINE
8
BLACK
6
CONTINUOUS
10
53.6074999999999946
20
-96.5987469999999888
11
53.6074999999999946
21
-96.5987449999999939
0
LINE
8
BLACK
6
CONTINUOUS
10
53.6074999999999946
20
-96.5987449999999939
11
53.621299999999998
21
-96.4763679999999937
0
LINE
8
BLACK
6
CONTINUOUS
10
53.621299999999998
20
-96.4763679999999937
11
53.6619839999999968
21
-96.3601290000000006
0
LINE
8
BLACK
6
CONTINUOUS
10
53.6619839999999968
20
-96.3601290000000006
11
53.7275119999999973
21
-96.2558559999999943
0
LINE
8
BLACK
6
CONTINUOUS
10
53.7275119999999973
20
-96.2558559999999943
11
53.8145989999999941
21
-96.168777999999989
0
LINE
8
BLACK
6
CONTINUOUS
10
53.8145989999999941
20
-96.168777999999989
11
53.9188779999999994
21
-96.1032599999999917
0
LINE
8
BLACK
6
CONTINUOUS
10
53.9188779999999994
20
-96.1032599999999917
11
54.0351209999999966
21
-96.062587999999991
0
LINE
8
BLACK
6
CONTINUOUS
10
54.0351209999999966
20
-96.062587999999991
11
54.1573339999999988
21
-96.0488179999999971
0
LINE
8
BLACK
6
CONTINUOUS
10
54.1573339999999988
20
-96.0488179999999971
11
54.1574999999999989
21
-96.0487499999999983
0
LINE
8
BLACK
6
CONTINUOUS
10
54.1574999999999989
20
-96.0487499999999983
11
67.1574999999999989
21
-96.0487499999999983
0
LINE
8
BLACK
6
CONTINUOUS
10
54.1574999999999989
20
-96.1487499999999926
11
54.1574999999999989
21
-96.1487999999999943
0
LINE
8
BLACK
6
CONTINUOUS
10
54.1574999999999989
20
-96.1487999999999943
11
54.0982599999999962
21
-96.1487999999999943
0
LINE
8
BLACK
6
CONTINUOUS
10
54.0982599999999962
20
-96.1487999999999943
11
53.9838169999999948
21
-96.1794620000000009
0
LINE
8
BLACK
6
CONTINUOUS
10
53.9838169999999948
20
-96.1794620000000009
11
53.8812089999999984
21
-96.2386989999999969
0
LINE
8
BLACK
6
CONTINUOUS
10
53.8812089999999984
20
-96.2386989999999969
11
53.797426999999999
21
-96.3224730000000022
0
LINE
8
BLACK
6
CONTINUOUS
10
53.797426999999999
20
-96.3224730000000022
11
53.7381799999999998
21
-96.4250749999999925
0
LINE
8
BLACK
6
CONTINUOUS
10
53.7381799999999998
20
-96.4250749999999925
11
53.7075049999999976
21
-96.5395149999999944
0
LINE
8
BLACK
6
CONTINUOUS
10
53.7075049999999976
20
-96.5395149999999944
11
53.707499999999996
21
-96.5987499999999955
0
LINE
8
BLACK
6
CONTINUOUS
10
53.707499999999996
20
-96.5987499999999955
11
53.707499999999996
21
-109.5987499999999955
0
LINE
8
BLACK
6
CONTINUOUS
10
53.707499999999996
20
-109.5987499999999955
11
53.7074499999999944
21
-109.5988699999999909
0
LINE
8
BLACK
6
CONTINUOUS
10
53.7074499999999944
20
-109.5988699999999909
11
53.7074560000000005
21
-109.6579909999999956
0
LINE
8
BLACK
6
CONTINUOUS
10
53.7074560000000005
20
-109.6579909999999956
11
53.7381339999999952
21
-109.772443999999993
0
LINE
8
BLACK
6
CONTINUOUS
10
53.7381339999999952
20
-109.772443999999993
11
53.7973870000000005
21
-109.8750579999999957
0
LINE
8
BLACK
6
CONTINUOUS
10
53.7973870000000005
20
-109.8750579999999957
11
53.8811779999999985
21
-109.9588409999999925
0
LINE
8
BLACK
6
CONTINUOUS
10
53.8811779999999985
20
-109.9588409999999925
11
53.9837980000000002
21
-110.0180840000000018
0
LINE
8
BLACK
6
CONTINUOUS
10
53.9837980000000002
20
-110.0180840000000018
11
54.0982539999999972
21
-110.0487499999999983
0
LINE
8
BLACK
6
CONTINUOUS
10
54.0982539999999972
20
-110.0487499999999983
11
54.1574999999999989
21
-110.0487499999999983
0
LINE
8
BLACK
6
CONTINUOUS
10
54.1574999999999989
20
-110.0487499999999983
11
67.1574999999999989
21
-110.0487499999999983
0
LINE
8
BLACK
6
CONTINUOUS
10
67.1574999999999989
20
-110.0487499999999983
11
67.1574999999999989
21
-110.0486999999999966
0
LINE
8
BLACK
6
CONTINUOUS
10
67.1574999999999989
20
-110.0486999999999966
11
67.2167400000000015
21
-110.0486999999999966
0
LINE
8
BLACK
6
CONTINUOUS
10
67.2167400000000015
20
-110.0486999999999966
11
67.3311829999999958
21
-110.01803799999999
0
LINE
8
BLACK
6
CONTINUOUS
10
67.3311829999999958
20
-110.01803799999999
11
67.4337909999999994
21
-109.958800999999994
0
LINE
8
BLACK
6
CONTINUOUS
10
67.4337909999999994
20
-109.958800999999994
11
67.5175729999999987
21
-109.8750269999999887
0
LINE
8
BLACK
6
CONTINUOUS
10
67.5175729999999987
20
-109.8750269999999887
11
67.5768199999999979
21
-109.7724249999999984
0
LINE
8
BLACK
6
CONTINUOUS
10
67.5768199999999979
20
-109.7724249999999984
11
67.6074950000000001
21
-109.6579849999999965
0
LINE
8
BLACK
6
CONTINUOUS
10
67.6074950000000001
20
-109.6579849999999965
11
67.6075000000000017
21
-109.5987449999999939
0
LINE
8
BLACK
6
CONTINUOUS
10
67.6075000000000017
20
-109.5987449999999939
11
67.6075000000000017
21
-96.5987499999999955
0
LINE
8
BLACK
6
CONTINUOUS
10
67.6075000000000017
20
-96.5987499999999955
11
67.6075489999999917
21
-96.5986290000000025
0
LINE
8
BLACK
6
CONTINUOUS
10
67.6075489999999917
20
-96.5986290000000025
11
67.6075439999999901
21
-96.5395089999999954
0
LINE
8
BLACK
6
CONTINUOUS
10
67.6075439999999901
20
-96.5395089999999954
11
67.5768659999999954
21
-96.4250559999999979
0
LINE
8
BLACK
6
CONTINUOUS
10
67.5768659999999954
20
-96.4250559999999979
11
67.5176129999999972
21
-96.3224419999999952
0
LINE
8
BLACK
6
CONTINUOUS
10
67.5176129999999972
20
-96.3224419999999952
11
67.4338219999999922
21
-96.2386589999999984
0
LINE
8
BLACK
6
CONTINUOUS
10
67.4338219999999922
20
-96.2386589999999984
11
67.3312019999999904
21
-96.1794159999999891
0
LINE
8
BLACK
6
CONTINUOUS
10
67.3312019999999904
20
-96.1794159999999891
11
67.2167460000000005
21
-96.1487499999999926
0
LINE
8
BLACK
6
CONTINUOUS
10
67.2167460000000005
20
-96.1487499999999926
11
67.1574999999999989
21
-96.1487499999999926
0
LINE
8
BLACK
6
CONTINUOUS
10
67.1574999999999989
20
-96.1487499999999926
11
54.1574999999999989
21
-96.1487499999999926
0
LINE
8
BLACK
6
CONTINUOUS
10
90.9699999999999989
20
-96.0487499999999983
11
91.0923899999999946
21
-96.062539000000001
0
LINE
8
BLACK
6
CONTINUOUS
10
91.0923899999999946
20
-96.062539000000001
11
91.2086439999999925
21
-96.1032149999999916
0
LINE
8
BLACK
6
CONTINUOUS
10
91.2086439999999925
20
-96.1032149999999916
11
91.3129319999999893
21
-96.1687390000000022
0
LINE
8
BLACK
6
CONTINUOUS
10
91.3129319999999893
20
-96.1687390000000022
11
91.4000269999999944
21
-96.2558250000000015
0
LINE
8
BLACK
6
CONTINUOUS
10
91.4000269999999944
20
-96.2558250000000015
11
91.4655609999999939
21
-96.3601069999999993
0
LINE
8
BLACK
6
CONTINUOUS
10
91.4655609999999939
20
-96.3601069999999993
11
91.5062489999999968
21
-96.4763559999999956
0
LINE
8
BLACK
6
CONTINUOUS
10
91.5062489999999968
20
-96.4763559999999956
11
91.5200499999999977
21
-96.5987449999999939
0
LINE
8
BLACK
6
CONTINUOUS
10
91.5200499999999977
20
-96.5987449999999939
11
91.519999999999996
21
-96.5987449999999939
0
LINE
8
BLACK
6
CONTINUOUS
10
91.519999999999996
20
-96.5987449999999939
11
91.5199989999999985
21
-96.5987469999999888
0
LINE
8
BLACK
6
CONTINUOUS
10
91.5199989999999985
20
-96.5987469999999888
11
91.519999999999996
21
-96.5987499999999955
0
LINE
8
BLACK
6
CONTINUOUS
10
91.519999999999996
20
-96.5987499999999955
11
91.519999999999996
21
-109.5987499999999955
0
LINE
8
BLACK
6
CONTINUOUS
10
91.519999999999996
20
-109.5987499999999955
11
91.5199989999999985
21
-109.5987519999999904
0
LINE
8
BLACK
6
CONTINUOUS
10
91.5199989999999985
20
-109.5987519999999904
11
91.519999999999996
21
-109.598754999999997
0
LINE
8
BLACK
6
CONTINUOUS
10
91.519999999999996
20
-109.598754999999997
11
91.5061999999999927
21
-109.7211319999999972
0
LINE
8
BLACK
6
CONTINUOUS
10
91.5061999999999927
20
-109.7211319999999972
11
91.4655159999999938
21
-109.8373709999999903
0
LINE
8
BLACK
6
CONTINUOUS
10
91.4655159999999938
20
-109.8373709999999903
11
91.3999879999999933
21
-109.9416439999999966
0
LINE
8
BLACK
6
CONTINUOUS
10
91.3999879999999933
20
-109.9416439999999966
11
91.3129009999999965
21
-110.0287220000000019
0
LINE
8
BLACK
6
CONTINUOUS
10
91.3129009999999965
20
-110.0287220000000019
11
91.2086219999999912
21
-110.0942399999999992
0
LINE
8
BLACK
6
CONTINUOUS
10
91.2086219999999912
20
-110.0942399999999992
11
91.092378999999994
21
-110.1349119999999999
0
LINE
8
BLACK
6
CONTINUOUS
10
91.092378999999994
20
-110.1349119999999999
11
90.9701649999999944
21
-110.1486809999999963
0
LINE
8
BLACK
6
CONTINUOUS
10
90.9701649999999944
20
-110.1486809999999963
11
90.9699999999999989
21
-110.1487499999999926
0
LINE
8
BLACK
6
CONTINUOUS
10
90.9699999999999989
20
-110.1487499999999926
11
77.9699999999999989
21
-110.1487499999999926
0
LINE
8
BLACK
6
CONTINUOUS
10
77.9699999999999989
20
-110.1487499999999926
11
77.8476100000000031
21
-110.1349609999999899
0
LINE
8
BLACK
6
CONTINUOUS
10
77.8476100000000031
20
-110.1349609999999899
11
77.731355999999991
21
-110.0942849999999993
0
LINE
8
BLACK
6
CONTINUOUS
10
77.731355999999991
20
-110.0942849999999993
11
77.6270679999999942
21
-110.0287609999999887
0
LINE
8
BLACK
6
CONTINUOUS
10
77.6270679999999942
20
-110.0287609999999887
11
77.5399730000000034
21
-109.9416749999999894
0
LINE
8
BLACK
6
CONTINUOUS
10
77.5399730000000034
20
-109.9416749999999894
11
77.4744389999999896
21
-109.8373929999999916
0
LINE
8
BLACK
6
CONTINUOUS
10
77.4744389999999896
20
-109.8373929999999916
11
77.4337510000000009
21
-109.7211439999999953
0
LINE
8
BLACK
6
CONTINUOUS
10
77.4337510000000009
20
-109.7211439999999953
11
77.41995
21
-109.598754999999997
0
LINE
8
BLACK
6
CONTINUOUS
10
77.41995
20
-109.598754999999997
11
77.4200000000000017
21
-109.598754999999997
0
LINE
8
BLACK
6
CONTINUOUS
10
77.4200000000000017
20
-109.598754999999997
11
77.4200000000000017
21
-109.5987519999999904
0
LINE
8
BLACK
6
CONTINUOUS
10
77.4200000000000017
20
-109.5987519999999904
11
77.4200000000000017
21
-109.5987499999999955
0
LINE
8
BLACK
6
CONTINUOUS
10
77.4200000000000017
20
-109.5987499999999955
11
77.4200000000000017
21
-96.5987499999999955
0
LINE
8
BLACK
6
CONTINUOUS
10
77.4200000000000017
20
-96.5987499999999955
11
77.4200000000000017
21
-96.5987469999999888
0
LINE
8
BLACK
6
CONTINUOUS
10
77.4200000000000017
20
-96.5987469999999888
11
77.4200000000000017
21
-96.5987449999999939
0
LINE
8
BLACK
6
CONTINUOUS
10
77.4200000000000017
20
-96.5987449999999939
11
77.4337999999999909
21
-96.4763679999999937
0
LINE
8
BLACK
6
CONTINUOUS
10
77.4337999999999909
20
-96.4763679999999937
11
77.4744839999999897
21
-96.3601290000000006
0
LINE
8
BLACK
6
CONTINUOUS
10
77.4744839999999897
20
-96.3601290000000006
11
77.5400119999999902
21
-96.2558559999999943
0
LINE
8
BLACK
6
CONTINUOUS
10
77.5400119999999902
20
-96.2558559999999943
11
77.6270990000000012
21
-96.168777999999989
0
LINE
8
BLACK
6
CONTINUOUS
10
77.6270990000000012
20
-96.168777999999989
11
77.7313779999999923
21
-96.1032599999999917
0
LINE
8
BLACK
6
CONTINUOUS
10
77.7313779999999923
20
-96.1032599999999917
11
77.8476209999999895
21
-96.062587999999991
0
LINE
8
BLACK
6
CONTINUOUS
10
77.8476209999999895
20
-96.062587999999991
11
77.9698339999999916
21
-96.0488179999999971
0
LINE
8
BLACK
6
CONTINUOUS
10
77.9698339999999916
20
-96.0488179999999971
11
77.9699999999999989
21
-96.0487499999999983
0
LINE
8
BLACK
6
CONTINUOUS
10
77.9699999999999989
20
-96.0487499999999983
11
90.9699999999999989
21
-96.0487499999999983
0
LINE
8
BLACK
6
CONTINUOUS
10
77.9699999999999989
20
-96.1487499999999926
11
77.9699999999999989
21
-96.1487999999999943
0
LINE
8
BLACK
6
CONTINUOUS
10
77.9699999999999989
20
-96.1487999999999943
11
77.9107599999999962
21
-96.1487999999999943
0
LINE
8
BLACK
6
CONTINUOUS
10
77.9107599999999962
20
-96.1487999999999943
11
77.7963170000000019
21
-96.1794620000000009
0
LINE
8
BLACK
6
CONTINUOUS
10
77.7963170000000019
20
-96.1794620000000009
11
77.6937089999999984
21
-96.2386989999999969
0
LINE
8
BLACK
6
CONTINUOUS
10
77.6937089999999984
20
-96.2386989999999969
11
77.609926999999999
21
-96.3224730000000022
0
LINE
8
BLACK
6
CONTINUOUS
10
77.609926999999999
20
-96.3224730000000022
11
77.5506799999999998
21
-96.4250749999999925
0
LINE
8
BLACK
6
CONTINUOUS
10
77.5506799999999998
20
-96.4250749999999925
11
77.5200049999999976
21
-96.5395149999999944
0
LINE
8
BLACK
6
CONTINUOUS
10
77.5200049999999976
20
-96.5395149999999944
11
77.519999999999996
21
-96.5987499999999955
0
LINE
8
BLACK
6
CONTINUOUS
10
77.519999999999996
20
-96.5987499999999955
11
77.519999999999996
21
-109.5987499999999955
0
LINE
8
BLACK
6
CONTINUOUS
10
77.519999999999996
20
-109.5987499999999955
11
77.5199499999999944
21
-109.5988699999999909
0
LINE
8
BLACK
6
CONTINUOUS
10
77.5199499999999944
20
-109.5988699999999909
11
77.5199559999999934
21
-109.6579909999999956
0
LINE
8
BLACK
6
CONTINUOUS
10
77.5199559999999934
20
-109.6579909999999956
11
77.5506340000000023
21
-109.772443999999993
0
LINE
8
BLACK
6
CONTINUOUS
10
77.5506340000000023
20
-109.772443999999993
11
77.6098870000000005
21
-109.8750579999999957
0
LINE
8
BLACK
6
CONTINUOUS
10
77.6098870000000005
20
-109.8750579999999957
11
77.6936779999999914
21
-109.9588409999999925
0
LINE
8
BLACK
6
CONTINUOUS
10
77.6936779999999914
20
-109.9588409999999925
11
77.7962979999999931
21
-110.0180840000000018
0
LINE
8
BLACK
6
CONTINUOUS
10
77.7962979999999931
20
-110.0180840000000018
11
77.9107539999999972
21
-110.0487499999999983
0
LINE
8
BLACK
6
CONTINUOUS
10
77.9107539999999972
20
-110.0487499999999983
11
77.9699999999999989
21
-110.0487499999999983
0
LINE
8
BLACK
6
CONTINUOUS
10
77.9699999999999989
20
-110.0487499999999983
11
90.9699999999999989
21
-110.0487499999999983
0
LINE
8
BLACK
6
CONTINUOUS
10
90.9699999999999989
20
-110.0487499999999983
11
90.9699999999999989
21
-110.0486999999999966
0
LINE
8
BLACK
6
CONTINUOUS
10
90.9699999999999989
20
-110.0486999999999966
11
91.0292400000000015
21
-110.0486999999999966
0
LINE
8
BLACK
6
CONTINUOUS
10
91.0292400000000015
20
-110.0486999999999966
11
91.1436829999999958
21
-110.01803799999999
0
LINE
8
BLACK
6
CONTINUOUS
10
91.1436829999999958
20
-110.01803799999999
11
91.2462909999999994
21
-109.958800999999994
0
LINE
8
BLACK
6
CONTINUOUS
10
91.2462909999999994
20
-109.958800999999994
11
91.3300729999999987
21
-109.8750269999999887
0
LINE
8
BLACK
6
CONTINUOUS
10
91.3300729999999987
20
-109.8750269999999887
11
91.3893199999999979
21
-109.7724249999999984
0
LINE
8
BLACK
6
CONTINUOUS
10
91.3893199999999979
20
-109.7724249999999984
11
91.4199950000000001
21
-109.6579849999999965
0
LINE
8
BLACK
6
CONTINUOUS
10
91.4199950000000001
20
-109.6579849999999965
11
91.4200000000000017
21
-109.5987449999999939
0
LINE
8
BLACK
6
CONTINUOUS
10
91.4200000000000017
20
-109.5987449999999939
11
91.4200000000000017
21
-96.5987499999999955
0
LINE
8
BLACK
6
CONTINUOUS
10
91.4200000000000017
20
-96.5987499999999955
11
91.4200489999999917
21
-96.5986290000000025
0
LINE
8
BLACK
6
CONTINUOUS
10
91.4200489999999917
20
-96.5986290000000025
11
91.4200439999999901
21
-96.5395089999999954
0
LINE
8
BLACK
6
CONTINUOUS
10
91.4200439999999901
20
-96.5395089999999954
11
91.3893659999999954
21
-96.4250559999999979
0
LINE
8
BLACK
6
CONTINUOUS
10
91.3893659999999954
20
-96.4250559999999979
11
91.3301129999999972
21
-96.3224419999999952
0
LINE
8
BLACK
6
CONTINUOUS
10
91.3301129999999972
20
-96.3224419999999952
11
91.2463219999999922
21
-96.2386589999999984
0
LINE
8
BLACK
6
CONTINUOUS
10
91.2463219999999922
20
-96.2386589999999984
11
91.1437019999999904
21
-96.1794159999999891
0
LINE
8
BLACK
6
CONTINUOUS
10
91.1437019999999904
20
-96.1794159999999891
11
91.0292460000000005
21
-96.1487499999999926
0
LINE
8
BLACK
6
CONTINUOUS
10
91.0292460000000005
20
-96.1487499999999926
11
90.9699999999999989
21
-96.1487499999999926
0
LINE
8
BLACK
6
CONTINUOUS
10
90.9699999999999989
20
-96.1487499999999926
11
77.9699999999999989
21
-96.1487499999999926
0
LINE
8
BLACK
6
CONTINUOUS
10
67.1574999999999989
20
-76.9987500000000011
11
67.2798899999999946
21
-77.0125389999999896
0
LINE
8
BLACK
6
CONTINUOUS
10
67.2798899999999946
20
-77.0125389999999896
11
67.3961439999999925
21
-77.0532149999999945
0
LINE
8
BLACK
6
CONTINUOUS
10
67.3961439999999925
20
-77.0532149999999945
11
67.5004320000000035
21
-77.1187389999999908
0
LINE
8
BLACK
6
CONTINUOUS
10
67.5004320000000035
20
-77.1187389999999908
11
67.5875269999999944
21
-77.2058249999999902
0
LINE
8
BLACK
6
CONTINUOUS
10
67.5875269999999944
20
-77.2058249999999902
11
67.6530609999999939
21
-77.3101070000000021
0
LINE
8
BLACK
6
CONTINUOUS
10
67.6530609999999939
20
-77.3101070000000021
11
67.6937489999999968
21
-77.4263559999999984
0
LINE
8
BLACK
6
CONTINUOUS
10
67.6937489999999968
20
-77.4263559999999984
11
67.7075499999999977
21
-77.5487449999999967
0
LINE
8
BLACK
6
CONTINUOUS
10
67.7075499999999977
20
-77.5487449999999967
11
67.707499999999996
21
-77.5487449999999967
0
LINE
8
BLACK
6
CONTINUOUS
10
67.707499999999996
20
-77.5487449999999967
11
67.7074989999999985
21
-77.5487469999999917
0
LINE
8
BLACK
6
CONTINUOUS
10
67.7074989999999985
20
-77.5487469999999917
11
67.707499999999996
21
-77.5487499999999983
0
LINE
8
BLACK
6
CONTINUOUS
10
67.707499999999996
20
-77.5487499999999983
11
67.707499999999996
21
-90.5487499999999983
0
LINE
8
BLACK
6
CONTINUOUS
10
67.707499999999996
20
-90.5487499999999983
11
67.7074989999999985
21
-90.5487519999999932
0
LINE
8
BLACK
6
CONTINUOUS
10
67.7074989999999985
20
-90.5487519999999932
11
67.707499999999996
21
-90.5487549999999999
0
LINE
8
BLACK
6
CONTINUOUS
10
67.707499999999996
20
-90.5487549999999999
11
67.6936999999999927
21
-90.6711320000000001
0
LINE
8
BLACK
6
CONTINUOUS
10
67.6936999999999927
20
-90.6711320000000001
11
67.6530159999999938
21
-90.7873709999999932
0
LINE
8
BLACK
6
CONTINUOUS
10
67.6530159999999938
20
-90.7873709999999932
11
67.5874879999999933
21
-90.8916439999999994
0
LINE
8
BLACK
6
CONTINUOUS
10
67.5874879999999933
20
-90.8916439999999994
11
67.5004009999999965
21
-90.9787219999999905
0
LINE
8
BLACK
6
CONTINUOUS
10
67.5004009999999965
20
-90.9787219999999905
11
67.3961219999999912
21
-91.0442400000000021
0
LINE
8
BLACK
6
CONTINUOUS
10
67.3961219999999912
20
-91.0442400000000021
11
67.279878999999994
21
-91.0849120000000028
0
LINE
8
BLACK
6
CONTINUOUS
10
67.279878999999994
20
-91.0849120000000028
11
67.1576649999999944
21
-91.0986809999999991
0
LINE
8
BLACK
6
CONTINUOUS
10
67.1576649999999944
20
-91.0986809999999991
11
67.1574999999999989
21
-91.0987499999999955
0
LINE
8
BLACK
6
CONTINUOUS
10
67.1574999999999989
20
-91.0987499999999955
11
54.1574999999999989
21
-91.0987499999999955
0
LINE
8
BLACK
6
CONTINUOUS
10
54.1574999999999989
20
-91.0987499999999955
11
54.035109999999996
21
-91.0849609999999927
0
LINE
8
BLACK
6
CONTINUOUS
10
54.035109999999996
20
-91.0849609999999927
11
53.9188559999999981
21
-91.0442850000000021
0
LINE
8
BLACK
6
CONTINUOUS
10
53.9188559999999981
20
-91.0442850000000021
11
53.8145679999999942
21
-90.9787609999999916
0
LINE
8
BLACK
6
CONTINUOUS
10
53.8145679999999942
20
-90.9787609999999916
11
53.7274729999999963
21
-90.8916749999999922
0
LINE
8
BLACK
6
CONTINUOUS
10
53.7274729999999963
20
-90.8916749999999922
11
53.6619389999999967
21
-90.7873929999999945
0
LINE
8
BLACK
6
CONTINUOUS
10
53.6619389999999967
20
-90.7873929999999945
11
53.6212510000000009
21
-90.6711439999999982
0
LINE
8
BLACK
6
CONTINUOUS
10
53.6212510000000009
20
-90.6711439999999982
11
53.60745
21
-90.5487549999999999
0
LINE
8
BLACK
6
CONTINUOUS
10
53.60745
20
-90.5487549999999999
11
53.6074999999999946
21
-90.5487549999999999
0
LINE
8
BLACK
6
CONTINUOUS
10
53.6074999999999946
20
-90.5487549999999999
11
53.6074999999999946
21
-90.5487519999999932
0
LINE
8
BLACK
6
CONTINUOUS
10
53.6074999999999946
20
-90.5487519999999932
11
53.6074999999999946
21
-90.5487499999999983
0
LINE
8
BLACK
6
CONTINUOUS
10
53.6074999999999946
20
-90.5487499999999983
11
53.6074999999999946
21
-77.5487499999999983
0
LINE
8
BLACK
6
CONTINUOUS
10
53.6074999999999946
20
-77.5487499999999983
11
53.6074999999999946
21
-77.5487469999999917
0
LINE
8
BLACK
6
CONTINUOUS
10
53.6074999999999946
20
-77.5487469999999917
11
53.6074999999999946
21
-77.5487449999999967
0
LINE
8
BLACK
6
CONTINUOUS
10
53.6074999999999946
20
-77.5487449999999967
11
53.621299999999998
21
-77.4263679999999965
0
LINE
8
BLACK
6
CONTINUOUS
10
53.621299999999998
20
-77.4263679999999965
11
53.6619839999999968
21
-77.3101290000000034
0
LINE
8
BLACK
6
CONTINUOUS
10
53.6619839999999968
20
-77.3101290000000034
11
53.7275119999999973
21
-77.2058559999999972
0
LINE
8
BLACK
6
CONTINUOUS
10
53.7275119999999973
20
-77.2058559999999972
11
53.8145989999999941
21
-77.1187779999999918
0
LINE
8
BLACK
6
CONTINUOUS
10
53.8145989999999941
20
-77.1187779999999918
11
53.9188779999999994
21
-77.0532599999999945
0
LINE
8
BLACK
6
CONTINUOUS
10
53.9188779999999994
20
-77.0532599999999945
11
54.0351209999999966
21
-77.0125879999999938
0
LINE
8
BLACK
6
CONTINUOUS
10
54.0351209999999966
20
-77.0125879999999938
11
54.1573339999999988
21
-76.998818
0
LINE
8
BLACK
6
CONTINUOUS
10
54.1573339999999988
20
-76.998818
11
54.1574999999999989
21
-76.9987500000000011
0
LINE
8
BLACK
6
CONTINUOUS
10
54.1574999999999989
20
-76.9987500000000011
11
67.1574999999999989
21
-76.9987500000000011
0
LINE
8
BLACK
6
CONTINUOUS
10
54.1574999999999989
20
-77.0987499999999955
11
54.1574999999999989
21
-77.0987999999999971
0
LINE
8
BLACK
6
CONTINUOUS
10
54.1574999999999989
20
-77.0987999999999971
11
54.0982599999999962
21
-77.0987999999999971
0
LINE
8
BLACK
6
CONTINUOUS
10
54.0982599999999962
20
-77.0987999999999971
11
53.9838169999999948
21
-77.1294619999999895
0
LINE
8
BLACK
6
CONTINUOUS
10
53.9838169999999948
20
-77.1294619999999895
11
53.8812089999999984
21
-77.1886989999999997
0
LINE
8
BLACK
6
CONTINUOUS
10
53.8812089999999984
20
-77.1886989999999997
11
53.797426999999999
21
-77.2724729999999909
0
LINE
8
BLACK
6
CONTINUOUS
10
53.797426999999999
20
-77.2724729999999909
11
53.7381799999999998
21
-77.3750749999999954
0
LINE
8
BLACK
6
CONTINUOUS
10
53.7381799999999998
20
-77.3750749999999954
11
53.7075049999999976
21
-77.4895149999999973
0
LINE
8
BLACK
6
CONTINUOUS
10
53.7075049999999976
20
-77.4895149999999973
11
53.707499999999996
21
-77.5487499999999983
0
LINE
8
BLACK
6
CONTINUOUS
10
53.707499999999996
20
-77.5487499999999983
11
53.707499999999996
21
-90.5487499999999983
0
LINE
8
BLACK
6
CONTINUOUS
10
53.707499999999996
20
-90.5487499999999983
11
53.7074499999999944
21
-90.5488699999999938
0
LINE
8
BLACK
6
CONTINUOUS
10
53.7074499999999944
20
-90.5488699999999938
11
53.7074560000000005
21
-90.6079909999999984
0
LINE
8
BLACK
6
CONTINUOUS
10
53.7074560000000005
20
-90.6079909999999984
11
53.7381339999999952
21
-90.7224439999999959
0
LINE
8
BLACK
6
CONTINUOUS
10
53.7381339999999952
20
-90.7224439999999959
11
53.7973870000000005
21
-90.8250579999999985
0
LINE
8
BLACK
6
CONTINUOUS
10
53.7973870000000005
20
-90.8250579999999985
11
53.8811779999999985
21
-90.9088409999999953
0
LINE
8
BLACK
6
CONTINUOUS
10
53.8811779999999985
20
-90.9088409999999953
11
53.9837980000000002
21
-90.9680839999999904
0
LINE
8
BLACK
6
CONTINUOUS
10
53.9837980000000002
20
-90.9680839999999904
11
54.0982539999999972
21
-90.9987500000000011
0
LINE
8
BLACK
6
CONTINUOUS
10
54.0982539999999972
20
-90.9987500000000011
11
54.1574999999999989
21
-90.9987500000000011
0
LINE
8
BLACK
6
CONTINUOUS
10
54.1574999999999989
20
-90.9987500000000011
11
67.1574999999999989
21
-90.9987500000000011
0
LINE
8
BLACK
6
CONTINUOUS
10
67.1574999999999989
20
-90.9987500000000011
11
67.1574999999999989
21
-90.9986999999999995
0
LINE
8
BLACK
6
CONTINUOUS
10
67.1574999999999989
20
-90.9986999999999995
11
67.2167400000000015
21
-90.9986999999999995
0
LINE
8
BLACK
6
CONTINUOUS
10
67.2167400000000015
20
-90.9986999999999995
11
67.3311829999999958
21
-90.9680379999999928
0
LINE
8
BLACK
6
CONTINUOUS
10
67.3311829999999958
20
-90.9680379999999928
11
67.4337909999999994
21
-90.9088009999999969
0
LINE
8
BLACK
6
CONTINUOUS
10
67.4337909999999994
20
-90.9088009999999969
11
67.5175729999999987
21
-90.8250269999999915
0
LINE
8
BLACK
6
CONTINUOUS
10
67.5175729999999987
20
-90.8250269999999915
11
67.5768199999999979
21
-90.7224250000000012
0
LINE
8
BLACK
6
CONTINUOUS
10
67.5768199999999979
20
-90.7224250000000012
11
67.6074950000000001
21
-90.6079849999999993
0
LINE
8
BLACK
6
CONTINUOUS
10
67.6074950000000001
20
-90.6079849999999993
11
67.6075000000000017
21
-90.5487449999999967
0
LINE
8
BLACK
6
CONTINUOUS
10
67.6075000000000017
20
-90.5487449999999967
11
67.6075000000000017
21
-77.5487499999999983
0
LINE
8
BLACK
6
CONTINUOUS
10
67.6075000000000017
20
-77.5487499999999983
11
67.6075489999999917
21
-77.5486289999999912
0
LINE
8
BLACK
6
CONTINUOUS
10
67.6075489999999917
20
-77.5486289999999912
11
67.6075439999999901
21
-77.4895089999999982
0
LINE
8
BLACK
6
CONTINUOUS
10
67.6075439999999901
20
-77.4895089999999982
11
67.5768659999999954
21
-77.3750560000000007
0
LINE
8
BLACK
6
CONTINUOUS
10
67.5768659999999954
20
-77.3750560000000007
11
67.5176129999999972
21
-77.2724419999999981
0
LINE
8
BLACK
6
CONTINUOUS
10
67.5176129999999972
20
-77.2724419999999981
11
67.4338219999999922
21
-77.1886590000000012
0
LINE
8
BLACK
6
CONTINUOUS
10
67.4338219999999922
20
-77.1886590000000012
11
67.3312019999999904
21
-77.129415999999992
0
LINE
8
BLACK
6
CONTINUOUS
10
67.3312019999999904
20
-77.129415999999992
11
67.2167460000000005
21
-77.0987499999999955
0
LINE
8
BLACK
6
CONTINUOUS
10
67.2167460000000005
20
-77.0987499999999955
11
67.1574999999999989
21
-77.0987499999999955
0
LINE
8
BLACK
6
CONTINUOUS
10
67.1574999999999989
20
-77.0987499999999955
11
54.1574999999999989
21
-77.0987499999999955
0
LINE
8
BLACK
6
CONTINUOUS
10
90.9699999999999989
20
-76.9987500000000011
11
91.0923899999999946
21
-77.0125389999999896
0
LINE
8
BLACK
6
CONTINUOUS
10
91.0923899999999946
20
-77.0125389999999896
11
91.2086439999999925
21
-77.0532149999999945
0
LINE
8
BLACK
6
CONTINUOUS
10
91.2086439999999925
20
-77.0532149999999945
11
91.3129319999999893
21
-77.1187389999999908
0
LINE
8
BLACK
6
CONTINUOUS
10
91.3129319999999893
20
-77.1187389999999908
11
91.4000269999999944
21
-77.2058249999999902
0
LINE
8
BLACK
6
CONTINUOUS
10
91.4000269999999944
20
-77.2058249999999902
11
91.4655609999999939
21
-77.3101070000000021
0
LINE
8
BLACK
6
CONTINUOUS
10
91.4655609999999939
20
-77.3101070000000021
11
91.5062489999999968
21
-77.4263559999999984
0
LINE
8
BLACK
6
CONTINUOUS
10
91.5062489999999968
20
-77.4263559999999984
11
91.5200499999999977
21
-77.5487449999999967
0
LINE
8
BLACK
6
CONTINUOUS
10
91.5200499999999977
20
-77.5487449999999967
11
91.519999999999996
21
-77.5487449999999967
0
LINE
8
BLACK
6
CONTINUOUS
10
91.519999999999996
20
-77.5487449999999967
11
91.5199989999999985
21
-77.5487469999999917
0
LINE
8
BLACK
6
CONTINUOUS
10
91.5199989999999985
20
-77.5487469999999917
11
91.519999999999996
21
-77.5487499999999983
0
LINE
8
BLACK
6
CONTINUOUS
10
91.519999999999996
20
-77.5487499999999983
11
91.519999999999996
21
-90.5487499999999983
0
LINE
8
BLACK
6
CONTINUOUS
10
91.519999999999996
20
-90.5487499999999983
11
91.5199989999999985
21
-90.5487519999999932
0
LINE
8
BLACK
6
CONTINUOUS
10
91.5199989999999985
20
-90.5487519999999932
11
91.519999999999996
21
-90.5487549999999999
0
LINE
8
BLACK
6
CONTINUOUS
10
91.519999999999996
20
-90.5487549999999999
11
91.5061999999999927
21
-90.6711320000000001
0
LINE
8
BLACK
6
CONTINUOUS
10
91.5061999999999927
20
-90.6711320000000001
11
91.4655159999999938
21
-90.7873709999999932
0
LINE
8
BLACK
6
CONTINUOUS
10
91.4655159999999938
20
-90.7873709999999932
11
91.3999879999999933
21
-90.8916439999999994
0
LINE
8
BLACK
6
CONTINUOUS
10
91.3999879999999933
20
-90.8916439999999994
11
91.3129009999999965
21
-90.9787219999999905
0
LINE
8
BLACK
6
CONTINUOUS
10
91.3129009999999965
20
-90.9787219999999905
11
91.2086219999999912
21
-91.0442400000000021
0
LINE
8
BLACK
6
CONTINUOUS
10
91.2086219999999912
20
-91.0442400000000021
11
91.092378999999994
21
-91.0849120000000028
0
LINE
8
BLACK
6
CONTINUOUS
10
91.092378999999994
20
-91.0849120000000028
11
90.9701649999999944
21
-91.0986809999999991
0
LINE
8
BLACK
6
CONTINUOUS
10
90.9701649999999944
20
-91.0986809999999991
11
90.9699999999999989
21
-91.0987499999999955
0
LINE
8
BLACK
6
CONTINUOUS
10
90.9699999999999989
20
-91.0987499999999955
11
77.9699999999999989
21
-91.0987499999999955
0
LINE
8
BLACK
6
CONTINUOUS
10
77.9699999999999989
20
-91.0987499999999955
11
77.8476100000000031
21
-91.0849609999999927
0
LINE
8
BLACK
6
CONTINUOUS
10
77.8476100000000031
20
-91.0849609999999927
11
77.731355999999991
21
-91.0442850000000021
0
LINE
8
BLACK
6
CONTINUOUS
10
77.731355999999991
20
-91.0442850000000021
11
77.6270679999999942
21
-90.9787609999999916
0
LINE
8
BLACK
6
CONTINUOUS
10
77.6270679999999942
20
-90.9787609999999916
11
77.5399730000000034
21
-90.8916749999999922
0
LINE
8
BLACK
6
CONTINUOUS
10
77.5399730000000034
20
-90.8916749999999922
11
77.4744389999999896
21
-90.7873929999999945
0
LINE
8
BLACK
6
CONTINUOUS
10
77.4744389999999896
20
-90.7873929999999945
11
77.4337510000000009
21
-90.6711439999999982
0
LINE
8
BLACK
6
CONTINUOUS
10
77.4337510000000009
20
-90.6711439999999982
11
77.41995
21
-90.5487549999999999
0
LINE
8
BLACK
6
CONTINUOUS
10
77.41995
20
-90.5487549999999999
11
77.4200000000000017
21
-90.5487549999999999
0
LINE
8
BLACK
6
CONTINUOUS
10
77.4200000000000017
20
-90.5487549999999999
11
77.4200000000000017
21
-90.5487519999999932
0
LINE
8
BLACK
6
CONTINUOUS
10
77.4200000000000017
20
-90.5487519999999932
11
77.4200000000000017
21
-90.5487499999999983
0
LINE
8
BLACK
6
CONTINUOUS
10
77.4200000000000017
20
-90.5487499999999983
11
77.4200000000000017
21
-77.5487499999999983
0
LINE
8
BLACK
6
CONTINUOUS
10
77.4200000000000017
20
-77.5487499999999983
11
77.4200000000000017
21
-77.5487469999999917
0
LINE
8
BLACK
6
CONTINUOUS
10
77.4200000000000017
20
-77.5487469999999917
11
77.4200000000000017
21
-77.5487449999999967
0
LINE
8
BLACK
6
CONTINUOUS
10
77.4200000000000017
20
-77.5487449999999967
11
77.4337999999999909
21
-77.4263679999999965
0
LINE
8
BLACK
6
CONTINUOUS
10
77.4337999999999909
20
-77.4263679999999965
11
77.4744839999999897
21
-77.3101290000000034
0
LINE
8
BLACK
6
CONTINUOUS
10
77.4744839999999897
20
-77.3101290000000034
11
77.5400119999999902
21
-77.2058559999999972
0
LINE
8
BLACK
6
CONTINUOUS
10
77.5400119999999902
20
-77.2058559999999972
11
77.6270990000000012
21
-77.1187779999999918
0
LINE
8
BLACK
6
CONTINUOUS
10
77.6270990000000012
20
-77.1187779999999918
11
77.7313779999999923
21
-77.0532599999999945
0
LINE
8
BLACK
6
CONTINUOUS
10
77.7313779999999923
20
-77.0532599999999945
11
77.8476209999999895
21
-77.0125879999999938
0
LINE
8
BLACK
6
CONTINUOUS
10
77.8476209999999895
20
-77.0125879999999938
11
77.9698339999999916
21
-76.998818
0
LINE
8
BLACK
6
CONTINUOUS
10
77.9698339999999916
20
-76.998818
11
77.9699999999999989
21
-76.9987500000000011
0
LINE
8
BLACK
6
CONTINUOUS
10
77.9699999999999989
20
-76.9987500000000011
11
90.9699999999999989
21
-76.9987500000000011
0
LINE
8
BLACK
6
CONTINUOUS
10
77.9699999999999989
20
-77.0987499999999955
11
77.9699999999999989
21
-77.0987999999999971
0
LINE
8
BLACK
6
CONTINUOUS
10
77.9699999999999989
20
-77.0987999999999971
11
77.9107599999999962
21
-77.0987999999999971
0
LINE
8
BLACK
6
CONTINUOUS
10
77.9107599999999962
20
-77.0987999999999971
11
77.7963170000000019
21
-77.1294619999999895
0
LINE
8
BLACK
6
CONTINUOUS
10
77.7963170000000019
20
-77.1294619999999895
11
77.6937089999999984
21
-77.1886989999999997
0
LINE
8
BLACK
6
CONTINUOUS
10
77.6937089999999984
20
-77.1886989999999997
11
77.609926999999999
21
-77.2724729999999909
0
LINE
8
BLACK
6
CONTINUOUS
10
77.609926999999999
20
-77.2724729999999909
11
77.5506799999999998
21
-77.3750749999999954
0
LINE
8
BLACK
6
CONTINUOUS
10
77.5506799999999998
20
-77.3750749999999954
11
77.5200049999999976
21
-77.4895149999999973
0
LINE
8
BLACK
6
CONTINUOUS
10
77.5200049999999976
20
-77.4895149999999973
11
77.519999999999996
21
-77.5487499999999983
0
LINE
8
BLACK
6
CONTINUOUS
10
77.519999999999996
20
-77.5487499999999983
11
77.519999999999996
21
-90.5487499999999983
0
LINE
8
BLACK
6
CONTINUOUS
10
77.519999999999996
20
-90.5487499999999983
11
77.5199499999999944
21
-90.5488699999999938
0
LINE
8
BLACK
6
CONTINUOUS
10
77.5199499999999944
20
-90.5488699999999938
11
77.5199559999999934
21
-90.6079909999999984
0
LINE
8
BLACK
6
CONTINUOUS
10
77.5199559999999934
20
-90.6079909999999984
11
77.5506340000000023
21
-90.7224439999999959
0
LINE
8
BLACK
6
CONTINUOUS
10
77.5506340000000023
20
-90.7224439999999959
11
77.6098870000000005
21
-90.8250579999999985
0
LINE
8
BLACK
6
CONTINUOUS
10
77.6098870000000005
20
-90.8250579999999985
11
77.6936779999999914
21
-90.9088409999999953
0
LINE
8
BLACK
6
CONTINUOUS
10
77.6936779999999914
20
-90.9088409999999953
11
77.7962979999999931
21
-90.9680839999999904
0
LINE
8
BLACK
6
CONTINUOUS
10
77.7962979999999931
20
-90.9680839999999904
11
77.9107539999999972
21
-90.9987500000000011
0
LINE
8
BLACK
6
CONTINUOUS
10
77.9107539999999972
20
-90.9987500000000011
11
77.9699999999999989
21
-90.9987500000000011
0
LINE
8
BLACK
6
CONTINUOUS
10
77.9699999999999989
20
-90.9987500000000011
11
90.9699999999999989
21
-90.9987500000000011
0
LINE
8
BLACK
6
CONTINUOUS
10
90.9699999999999989
20
-90.9987500000000011
11
90.9699999999999989
21
-90.9986999999999995
0
LINE
8
BLACK
6
CONTINUOUS
10
90.9699999999999989
20
-90.9986999999999995
11
91.0292400000000015
21
-90.9986999999999995
0
LINE
8
BLACK
6
CONTINUOUS
10
91.0292400000000015
20
-90.9986999999999995
11
91.1436829999999958
21
-90.9680379999999928
0
LINE
8
BLACK
6
CONTINUOUS
10
91.1436829999999958
20
-90.9680379999999928
11
91.2462909999999994
21
-90.9088009999999969
0
LINE
8
BLACK
6
CONTINUOUS
10
91.2462909999999994
20
-90.9088009999999969
11
91.3300729999999987
21
-90.8250269999999915
0
LINE
8
BLACK
6
CONTINUOUS
10
91.3300729999999987
20
-90.8250269999999915
11
91.3893199999999979
21
-90.7224250000000012
0
LINE
8
BLACK
6
CONTINUOUS
10
91.3893199999999979
20
-90.7224250000000012
11
91.4199950000000001
21
-90.6079849999999993
0
LINE
8
BLACK
6
CONTINUOUS
10
91.4199950000000001
20
-90.6079849999999993
11
91.4200000000000017
21
-90.5487449999999967
0
LINE
8
BLACK
6
CONTINUOUS
10
91.4200000000000017
20
-90.5487449999999967
11
91.4200000000000017
21
-77.5487499999999983
0
LINE
8
BLACK
6
CONTINUOUS
10
91.4200000000000017
20
-77.5487499999999983
11
91.4200489999999917
21
-77.5486289999999912
0
LINE
8
BLACK
6
CONTINUOUS
10
91.4200489999999917
20
-77.5486289999999912
11
91.4200439999999901
21
-77.4895089999999982
0
LINE
8
BLACK
6
CONTINUOUS
10
91.4200439999999901
20
-77.4895089999999982
11
91.3893659999999954
21
-77.3750560000000007
0
LINE
8
BLACK
6
CONTINUOUS
10
91.3893659999999954
20
-77.3750560000000007
11
91.3301129999999972
21
-77.2724419999999981
0
LINE
8
BLACK
6
CONTINUOUS
10
91.3301129999999972
20
-77.2724419999999981
11
91.2463219999999922
21
-77.1886590000000012
0
LINE
8
BLACK
6
CONTINUOUS
10
91.2463219999999922
20
-77.1886590000000012
11
91.1437019999999904
21
-77.129415999999992
0
LINE
8
BLACK
6
CONTINUOUS
10
91.1437019999999904
20
-77.129415999999992
11
91.0292460000000005
21
-77.0987499999999955
0
LINE
8
BLACK
6
CONTINUOUS
10
91.0292460000000005
20
-77.0987499999999955
11
90.9699999999999989
21
-77.0987499999999955
0
LINE
8
BLACK
6
CONTINUOUS
10
90.9699999999999989
20
-77.0987499999999955
11
77.9699999999999989
21
-77.0987499999999955
0
LINE
8
BLACK
6
CONTINUOUS
10
90.9699999999999989
20
-55.5674999999999955
11
91.0923870000000022
21
-55.5812899999999956
0
LINE
8
BLACK
6
CONTINUOUS
10
91.0923870000000022
20
-55.5812899999999956
11
91.2086359999999985
21
-55.6219669999999979
0
LINE
8
BLACK
6
CONTINUOUS
10
91.2086359999999985
20
-55.6219669999999979
11
91.3129189999999937
21
-55.6874929999999964
0
LINE
8
BLACK
6
CONTINUOUS
10
91.3129189999999937
20
-55.6874929999999964
11
91.4000070000000022
21
-55.7745809999999977
0
LINE
8
BLACK
6
CONTINUOUS
10
91.4000070000000022
20
-55.7745809999999977
11
91.4655329999999935
21
-55.8788640000000001
0
LINE
8
BLACK
6
CONTINUOUS
10
91.4655329999999935
20
-55.8788640000000001
11
91.5062099999999958
21
-55.9951129999999964
0
LINE
8
BLACK
6
CONTINUOUS
10
91.5062099999999958
20
-55.9951129999999964
11
91.519999999999996
21
-56.1174999999999997
0
LINE
8
BLACK
6
CONTINUOUS
10
91.519999999999996
20
-56.1174999999999997
11
91.519999999999996
21
-69.1174999999999926
0
LINE
8
BLACK
6
CONTINUOUS
10
91.519999999999996
20
-69.1174999999999926
11
91.5062099999999958
21
-69.239886999999996
0
LINE
8
BLACK
6
CONTINUOUS
10
91.5062099999999958
20
-69.239886999999996
11
91.4655329999999935
21
-69.3561359999999922
0
LINE
8
BLACK
6
CONTINUOUS
10
91.4655329999999935
20
-69.3561359999999922
11
91.4000070000000022
21
-69.4604190000000017
0
LINE
8
BLACK
6
CONTINUOUS
10
91.4000070000000022
20
-69.4604190000000017
11
91.3129189999999937
21
-69.547506999999996
0
LINE
8
BLACK
6
CONTINUOUS
10
91.3129189999999937
20
-69.547506999999996
11
91.2086359999999985
21
-69.6130330000000015
0
LINE
8
BLACK
6
CONTINUOUS
10
91.2086359999999985
20
-69.6130330000000015
11
91.0923870000000022
21
-69.6537100000000038
0
LINE
8
BLACK
6
CONTINUOUS
10
91.0923870000000022
20
-69.6537100000000038
11
90.9699999999999989
21
-69.6674999999999898
0
LINE
8
BLACK
6
CONTINUOUS
10
90.9699999999999989
20
-69.6674999999999898
11
77.9699999999999989
21
-69.6674999999999898
0
LINE
8
BLACK
6
CONTINUOUS
10
77.9699999999999989
20
-69.6674999999999898
11
77.8476129999999955
21
-69.6537100000000038
0
LINE
8
BLACK
6
CONTINUOUS
10
77.8476129999999955
20
-69.6537100000000038
11
77.7313639999999992
21
-69.6130330000000015
0
LINE
8
BLACK
6
CONTINUOUS
10
77.7313639999999992
20
-69.6130330000000015
11
77.6270809999999898
21
-69.547506999999996
0
LINE
8
BLACK
6
CONTINUOUS
10
77.6270809999999898
20
-69.547506999999996
11
77.5399929999999955
21
-69.4604190000000017
0
LINE
8
BLACK
6
CONTINUOUS
10
77.5399929999999955
20
-69.4604190000000017
11
77.47446699999999
21
-69.3561359999999922
0
LINE
8
BLACK
6
CONTINUOUS
10
77.47446699999999
20
-69.3561359999999922
11
77.4337900000000019
21
-69.239886999999996
0
LINE
8
BLACK
6
CONTINUOUS
10
77.4337900000000019
20
-69.239886999999996
11
77.4200000000000017
21
-69.1174999999999926
0
LINE
8
BLACK
6
CONTINUOUS
10
77.4200000000000017
20
-69.1174999999999926
11
77.4200000000000017
21
-56.1174999999999997
0
LINE
8
BLACK
6
CONTINUOUS
10
77.4200000000000017
20
-56.1174999999999997
11
77.4337900000000019
21
-55.9951129999999964
0
LINE
8
BLACK
6
CONTINUOUS
10
77.4337900000000019
20
-55.9951129999999964
11
77.47446699999999
21
-55.8788640000000001
0
LINE
8
BLACK
6
CONTINUOUS
10
77.47446699999999
20
-55.8788640000000001
11
77.5399929999999955
21
-55.7745809999999977
0
LINE
8
BLACK
6
CONTINUOUS
10
77.5399929999999955
20
-55.7745809999999977
11
77.6270809999999898
21
-55.6874929999999964
0
LINE
8
BLACK
6
CONTINUOUS
10
77.6270809999999898
20
-55.6874929999999964
11
77.7313639999999992
21
-55.6219669999999979
0
LINE
8
BLACK
6
CONTINUOUS
10
77.7313639999999992
20
-55.6219669999999979
11
77.8476129999999955
21
-55.5812899999999956
0
LINE
8
BLACK
6
CONTINUOUS
10
77.8476129999999955
20
-55.5812899999999956
11
77.9699999999999989
21
-55.5674999999999955
0
LINE
8
BLACK
6
CONTINUOUS
10
77.9699999999999989
20
-55.5674999999999955
11
90.9699999999999989
21
-55.5674999999999955
0
LINE
8
BLACK
6
CONTINUOUS
10
77.9699999999999989
20
-55.6674999999999969
11
77.9107559999999921
21
-55.6674999999999969
0
LINE
8
BLACK
6
CONTINUOUS
10
77.9107559999999921
20
-55.6674999999999969
11
77.7963060000000013
21
-55.698166999999998
0
LINE
8
BLACK
6
CONTINUOUS
10
77.7963060000000013
20
-55.698166999999998
11
77.6936939999999936
21
-55.7574100000000001
0
LINE
8
BLACK
6
CONTINUOUS
10
77.6936939999999936
20
-55.7574100000000001
11
77.6099099999999993
21
-55.8411939999999944
0
LINE
8
BLACK
6
CONTINUOUS
10
77.6099099999999993
20
-55.8411939999999944
11
77.55066699999999
21
-55.943805999999995
0
LINE
8
BLACK
6
CONTINUOUS
10
77.55066699999999
20
-55.943805999999995
11
77.519999999999996
21
-56.0582560000000001
0
LINE
8
BLACK
6
CONTINUOUS
10
77.519999999999996
20
-56.0582560000000001
11
77.519999999999996
21
-56.1174999999999997
0
LINE
8
BLACK
6
CONTINUOUS
10
77.519999999999996
20
-56.1174999999999997
11
77.519999999999996
21
-69.1174999999999926
0
LINE
8
BLACK
6
CONTINUOUS
10
77.519999999999996
20
-69.1174999999999926
11
77.519999999999996
21
-69.1767439999999993
0
LINE
8
BLACK
6
CONTINUOUS
10
77.519999999999996
20
-69.1767439999999993
11
77.55066699999999
21
-69.2911939999999902
0
LINE
8
BLACK
6
CONTINUOUS
10
77.55066699999999
20
-69.2911939999999902
11
77.6099099999999993
21
-69.3938059999999979
0
LINE
8
BLACK
6
CONTINUOUS
10
77.6099099999999993
20
-69.3938059999999979
11
77.6936939999999936
21
-69.4775899999999922
0
LINE
8
BLACK
6
CONTINUOUS
10
77.6936939999999936
20
-69.4775899999999922
11
77.7963060000000013
21
-69.5368330000000014
0
LINE
8
BLACK
6
CONTINUOUS
10
77.7963060000000013
20
-69.5368330000000014
11
77.9107559999999921
21
-69.5674999999999955
0
LINE
8
BLACK
6
CONTINUOUS
10
77.9107559999999921
20
-69.5674999999999955
11
77.9699999999999989
21
-69.5674999999999955
0
LINE
8
BLACK
6
CONTINUOUS
10
77.9699999999999989
20
-69.5674999999999955
11
90.9699999999999989
21
-69.5674999999999955
0
LINE
8
BLACK
6
CONTINUOUS
10
90.9699999999999989
20
-69.5674999999999955
11
91.0292439999999914
21
-69.5674999999999955
0
LINE
8
BLACK
6
CONTINUOUS
10
91.0292439999999914
20
-69.5674999999999955
11
91.1436939999999964
21
-69.5368330000000014
0
LINE
8
BLACK
6
CONTINUOUS
10
91.1436939999999964
20
-69.5368330000000014
11
91.2463059999999899
21
-69.4775899999999922
0
LINE
8
BLACK
6
CONTINUOUS
10
91.2463059999999899
20
-69.4775899999999922
11
91.3300899999999984
21
-69.3938059999999979
0
LINE
8
BLACK
6
CONTINUOUS
10
91.3300899999999984
20
-69.3938059999999979
11
91.3893329999999935
21
-69.2911939999999902
0
LINE
8
BLACK
6
CONTINUOUS
10
91.3893329999999935
20
-69.2911939999999902
11
91.4200000000000017
21
-69.1767439999999993
0
LINE
8
BLACK
6
CONTINUOUS
10
91.4200000000000017
20
-69.1767439999999993
11
91.4200000000000017
21
-69.1174999999999926
0
LINE
8
BLACK
6
CONTINUOUS
10
91.4200000000000017
20
-69.1174999999999926
11
91.4200000000000017
21
-56.1174999999999997
0
LINE
8
BLACK
6
CONTINUOUS
10
91.4200000000000017
20
-56.1174999999999997
11
91.4200000000000017
21
-56.0582560000000001
0
LINE
8
BLACK
6
CONTINUOUS
10
91.4200000000000017
20
-56.0582560000000001
11
91.3893329999999935
21
-55.943805999999995
0
LINE
8
BLACK
6
CONTINUOUS
10
91.3893329999999935
20
-55.943805999999995
11
91.3300899999999984
21
-55.8411939999999944
0
LINE
8
BLACK
6
CONTINUOUS
10
91.3300899999999984
20
-55.8411939999999944
11
91.2463059999999899
21
-55.7574100000000001
0
LINE
8
BLACK
6
CONTINUOUS
10
91.2463059999999899
20
-55.7574100000000001
11
91.1436939999999964
21
-55.698166999999998
0
LINE
8
BLACK
6
CONTINUOUS
10
91.1436939999999964
20
-55.698166999999998
11
91.0292439999999914
21
-55.6674999999999969
0
LINE
8
BLACK
6
CONTINUOUS
10
91.0292439999999914
20
-55.6674999999999969
11
90.9699999999999989
21
-55.6674999999999969
0
LINE
8
BLACK
6
CONTINUOUS
10
90.9699999999999989
20
-55.6674999999999969
11
77.9699999999999989
21
-55.6674999999999969
0
LINE
8
BLACK
6
CONTINUOUS
10
65.7524999999999977
20
-52.8687499999999986
11
65.8748899999999935
21
-52.8825389999999942
0
LINE
8
BLACK
6
CONTINUOUS
10
65.8748899999999935
20
-52.8825389999999942
11
65.9911439999999914
21
-52.923214999999999
0
LINE
8
BLACK
6
CONTINUOUS
10
65.9911439999999914
20
-52.923214999999999
11
66.0954320000000024
21
-52.9887389999999954
0
LINE
8
BLACK
6
CONTINUOUS
10
66.0954320000000024
20
-52.9887389999999954
11
66.1825269999999932
21
-53.0758249999999947
0
LINE
8
BLACK
6
CONTINUOUS
10
66.1825269999999932
20
-53.0758249999999947
11
66.2480609999999928
21
-53.1801069999999996
0
LINE
8
BLACK
6
CONTINUOUS
10
66.2480609999999928
20
-53.1801069999999996
11
66.2887489999999957
21
-53.2963559999999958
0
LINE
8
BLACK
6
CONTINUOUS
10
66.2887489999999957
20
-53.2963559999999958
11
66.3025499999999965
21
-53.4187449999999941
0
LINE
8
BLACK
6
CONTINUOUS
10
66.3025499999999965
20
-53.4187449999999941
11
66.3024999999999949
21
-53.4187449999999941
0
LINE
8
BLACK
6
CONTINUOUS
10
66.3024999999999949
20
-53.4187449999999941
11
66.3024989999999974
21
-53.4187469999999962
0
LINE
8
BLACK
6
CONTINUOUS
10
66.3024989999999974
20
-53.4187469999999962
11
66.3024999999999949
21
-53.4187499999999957
0
LINE
8
BLACK
6
CONTINUOUS
10
66.3024999999999949
20
-53.4187499999999957
11
66.3024999999999949
21
-66.4187500000000028
0
LINE
8
BLACK
6
CONTINUOUS
10
66.3024999999999949
20
-66.4187500000000028
11
66.3024989999999974
21
-66.4187519999999978
0
LINE
8
BLACK
6
CONTINUOUS
10
66.3024989999999974
20
-66.4187519999999978
11
66.3024999999999949
21
-66.4187549999999902
0
LINE
8
BLACK
6
CONTINUOUS
10
66.3024999999999949
20
-66.4187549999999902
11
66.2886999999999915
21
-66.5411319999999904
0
LINE
8
BLACK
6
CONTINUOUS
10
66.2886999999999915
20
-66.5411319999999904
11
66.2480159999999927
21
-66.6573709999999977
0
LINE
8
BLACK
6
CONTINUOUS
10
66.2480159999999927
20
-66.6573709999999977
11
66.1824879999999922
21
-66.761644000000004
0
LINE
8
BLACK
6
CONTINUOUS
10
66.1824879999999922
20
-66.761644000000004
11
66.0954009999999954
21
-66.8487219999999951
0
LINE
8
BLACK
6
CONTINUOUS
10
66.0954009999999954
20
-66.8487219999999951
11
65.9911219999999901
21
-66.9142399999999924
0
LINE
8
BLACK
6
CONTINUOUS
10
65.9911219999999901
20
-66.9142399999999924
11
65.8748789999999929
21
-66.9549119999999931
0
LINE
8
BLACK
6
CONTINUOUS
10
65.8748789999999929
20
-66.9549119999999931
11
65.7526649999999933
21
-66.9686810000000037
0
LINE
8
BLACK
6
CONTINUOUS
10
65.7526649999999933
20
-66.9686810000000037
11
65.7524999999999977
21
-66.96875
0
LINE
8
BLACK
6
CONTINUOUS
10
65.7524999999999977
20
-66.96875
11
52.7524999999999977
21
-66.96875
0
LINE
8
BLACK
6
CONTINUOUS
10
52.7524999999999977
20
-66.96875
11
52.6301099999999948
21
-66.9549609999999973
0
LINE
8
BLACK
6
CONTINUOUS
10
52.6301099999999948
20
-66.9549609999999973
11
52.513855999999997
21
-66.9142849999999925
0
LINE
8
BLACK
6
CONTINUOUS
10
52.513855999999997
20
-66.9142849999999925
11
52.4095680000000002
21
-66.8487609999999961
0
LINE
8
BLACK
6
CONTINUOUS
10
52.4095680000000002
20
-66.8487609999999961
11
52.3224729999999951
21
-66.7616749999999968
0
LINE
8
BLACK
6
CONTINUOUS
10
52.3224729999999951
20
-66.7616749999999968
11
52.2569389999999956
21
-66.657392999999999
0
LINE
8
BLACK
6
CONTINUOUS
10
52.2569389999999956
20
-66.657392999999999
11
52.2162509999999997
21
-66.5411440000000027
0
LINE
8
BLACK
6
CONTINUOUS
10
52.2162509999999997
20
-66.5411440000000027
11
52.2024499999999989
21
-66.4187549999999902
0
LINE
8
BLACK
6
CONTINUOUS
10
52.2024499999999989
20
-66.4187549999999902
11
52.2025000000000006
21
-66.4187549999999902
0
LINE
8
BLACK
6
CONTINUOUS
10
52.2025000000000006
20
-66.4187549999999902
11
52.2025000000000006
21
-66.4187519999999978
0
LINE
8
BLACK
6
CONTINUOUS
10
52.2025000000000006
20
-66.4187519999999978
11
52.2025000000000006
21
-66.4187500000000028
0
LINE
8
BLACK
6
CONTINUOUS
10
52.2025000000000006
20
-66.4187500000000028
11
52.2025000000000006
21
-53.4187499999999957
0
LINE
8
BLACK
6
CONTINUOUS
10
52.2025000000000006
20
-53.4187499999999957
11
52.2025000000000006
21
-53.4187469999999962
0
LINE
8
BLACK
6
CONTINUOUS
10
52.2025000000000006
20
-53.4187469999999962
11
52.2025000000000006
21
-53.4187449999999941
0
LINE
8
BLACK
6
CONTINUOUS
10
52.2025000000000006
20
-53.4187449999999941
11
52.2162999999999968
21
-53.2963680000000011
0
LINE
8
BLACK
6
CONTINUOUS
10
52.2162999999999968
20
-53.2963680000000011
11
52.2569839999999957
21
-53.1801290000000009
0
LINE
8
BLACK
6
CONTINUOUS
10
52.2569839999999957
20
-53.1801290000000009
11
52.3225119999999961
21
-53.0758559999999946
0
LINE
8
BLACK
6
CONTINUOUS
10
52.3225119999999961
20
-53.0758559999999946
11
52.409599
21
-52.9887779999999964
0
LINE
8
BLACK
6
CONTINUOUS
10
52.409599
20
-52.9887779999999964
11
52.5138779999999983
21
-52.9232599999999991
0
LINE
8
BLACK
6
CONTINUOUS
10
52.5138779999999983
20
-52.9232599999999991
11
52.6301209999999955
21
-52.8825879999999984
0
LINE
8
BLACK
6
CONTINUOUS
10
52.6301209999999955
20
-52.8825879999999984
11
52.7523339999999976
21
-52.8688179999999974
0
LINE
8
BLACK
6
CONTINUOUS
10
52.7523339999999976
20
-52.8688179999999974
11
52.7524999999999977
21
-52.8687499999999986
0
LINE
8
BLACK
6
CONTINUOUS
10
52.7524999999999977
20
-52.8687499999999986
11
65.7524999999999977
21
-52.8687499999999986
0
LINE
8
BLACK
6
CONTINUOUS
10
52.7524999999999977
20
-52.96875
11
52.7524999999999977
21
-52.9687999999999946
0
LINE
8
BLACK
6
CONTINUOUS
10
52.7524999999999977
20
-52.9687999999999946
11
52.6932599999999951
21
-52.9687999999999946
0
LINE
8
BLACK
6
CONTINUOUS
10
52.6932599999999951
20
-52.9687999999999946
11
52.5788170000000008
21
-52.9994619999999941
0
LINE
8
BLACK
6
CONTINUOUS
10
52.5788170000000008
20
-52.9994619999999941
11
52.4762089999999972
21
-53.0586989999999972
0
LINE
8
BLACK
6
CONTINUOUS
10
52.4762089999999972
20
-53.0586989999999972
11
52.3924269999999979
21
-53.1424729999999954
0
LINE
8
BLACK
6
CONTINUOUS
10
52.3924269999999979
20
-53.1424729999999954
11
52.3331799999999987
21
-53.2450749999999999
0
LINE
8
BLACK
6
CONTINUOUS
10
52.3331799999999987
20
-53.2450749999999999
11
52.3025049999999965
21
-53.3595149999999947
0
LINE
8
BLACK
6
CONTINUOUS
10
52.3025049999999965
20
-53.3595149999999947
11
52.3024999999999949
21
-53.4187499999999957
0
LINE
8
BLACK
6
CONTINUOUS
10
52.3024999999999949
20
-53.4187499999999957
11
52.3024999999999949
21
-66.4187500000000028
0
LINE
8
BLACK
6
CONTINUOUS
10
52.3024999999999949
20
-66.4187500000000028
11
52.3024500000000003
21
-66.4188699999999983
0
LINE
8
BLACK
6
CONTINUOUS
10
52.3024500000000003
20
-66.4188699999999983
11
52.3024559999999994
21
-66.4779910000000029
0
LINE
8
BLACK
6
CONTINUOUS
10
52.3024559999999994
20
-66.4779910000000029
11
52.3331340000000012
21
-66.5924440000000004
0
LINE
8
BLACK
6
CONTINUOUS
10
52.3331340000000012
20
-66.5924440000000004
11
52.3923869999999994
21
-66.6950580000000031
0
LINE
8
BLACK
6
CONTINUOUS
10
52.3923869999999994
20
-66.6950580000000031
11
52.4761779999999973
21
-66.7788409999999999
0
LINE
8
BLACK
6
CONTINUOUS
10
52.4761779999999973
20
-66.7788409999999999
11
52.578797999999999
21
-66.8380839999999949
0
LINE
8
BLACK
6
CONTINUOUS
10
52.578797999999999
20
-66.8380839999999949
11
52.693253999999996
21
-66.8687499999999915
0
LINE
8
BLACK
6
CONTINUOUS
10
52.693253999999996
20
-66.8687499999999915
11
52.7524999999999977
21
-66.8687499999999915
0
LINE
8
BLACK
6
CONTINUOUS
10
52.7524999999999977
20
-66.8687499999999915
11
65.7524999999999977
21
-66.8687499999999915
0
LINE
8
BLACK
6
CONTINUOUS
10
65.7524999999999977
20
-66.8687499999999915
11
65.7524999999999977
21
-66.868700000000004
0
LINE
8
BLACK
6
CONTINUOUS
10
65.7524999999999977
20
-66.868700000000004
11
65.8117400000000004
21
-66.868700000000004
0
LINE
8
BLACK
6
CONTINUOUS
10
65.8117400000000004
20
-66.868700000000004
11
65.9261829999999946
21
-66.8380379999999974
0
LINE
8
BLACK
6
CONTINUOUS
10
65.9261829999999946
20
-66.8380379999999974
11
66.0287909999999982
21
-66.7788010000000014
0
LINE
8
BLACK
6
CONTINUOUS
10
66.0287909999999982
20
-66.7788010000000014
11
66.1125729999999976
21
-66.6950269999999961
0
LINE
8
BLACK
6
CONTINUOUS
10
66.1125729999999976
20
-66.6950269999999961
11
66.1718199999999968
21
-66.5924249999999915
0
LINE
8
BLACK
6
CONTINUOUS
10
66.1718199999999968
20
-66.5924249999999915
11
66.202494999999999
21
-66.4779850000000039
0
LINE
8
BLACK
6
CONTINUOUS
10
66.202494999999999
20
-66.4779850000000039
11
66.2025000000000006
21
-66.4187450000000013
0
LINE
8
BLACK
6
CONTINUOUS
10
66.2025000000000006
20
-66.4187450000000013
11
66.2025000000000006
21
-53.4187499999999957
0
LINE
8
BLACK
6
CONTINUOUS
10
66.2025000000000006
20
-53.4187499999999957
11
66.2025489999999905
21
-53.4186289999999957
0
LINE
8
BLACK
6
CONTINUOUS
10
66.2025489999999905
20
-53.4186289999999957
11
66.2025440000000032
21
-53.3595089999999956
0
LINE
8
BLACK
6
CONTINUOUS
10
66.2025440000000032
20
-53.3595089999999956
11
66.1718659999999943
21
-53.2450559999999982
0
LINE
8
BLACK
6
CONTINUOUS
10
66.1718659999999943
20
-53.2450559999999982
11
66.1126129999999961
21
-53.1424419999999955
0
LINE
8
BLACK
6
CONTINUOUS
10
66.1126129999999961
20
-53.1424419999999955
11
66.028821999999991
21
-53.0586589999999987
0
LINE
8
BLACK
6
CONTINUOUS
10
66.028821999999991
20
-53.0586589999999987
11
65.9262020000000035
21
-52.9994159999999965
0
LINE
8
BLACK
6
CONTINUOUS
10
65.9262020000000035
20
-52.9994159999999965
11
65.8117459999999994
21
-52.96875
0
LINE
8
BLACK
6
CONTINUOUS
10
65.8117459999999994
20
-52.96875
11
65.7524999999999977
21
-52.96875
0
LINE
8
BLACK
6
CONTINUOUS
10
65.7524999999999977
20
-52.96875
11
52.7524999999999977
21
-52.96875
0
LINE
8
BLACK
6
CONTINUOUS
10
49.3499720000000011
20
-46.4753339999999966
11
49.5864750000000001
21
-46.5321129999999954
0
LINE
8
BLACK
6
CONTINUOUS
10
49.5864750000000001
20
-46.5321129999999954
11
49.8111839999999972
21
-46.6251910000000009
0
LINE
8
BLACK
6
CONTINUOUS
10
49.8111839999999972
20
-46.6251910000000009
11
50.0185659999999999
21
-46.7522749999999974
0
LINE
8
BLACK
6
CONTINUOUS
10
50.0185659999999999
20
-46.7522749999999974
11
50.2035149999999959
21
-46.9102350000000001
0
LINE
8
BLACK
6
CONTINUOUS
10
50.2035149999999959
20
-46.9102350000000001
11
50.3614749999999987
21
-47.0951839999999962
0
LINE
8
BLACK
6
CONTINUOUS
10
50.3614749999999987
20
-47.0951839999999962
11
50.4885589999999951
21
-47.3025659999999988
0
LINE
8
BLACK
6
CONTINUOUS
10
50.4885589999999951
20
-47.3025659999999988
11
50.5816370000000006
21
-47.5272749999999959
0
LINE
8
BLACK
6
CONTINUOUS
10
50.5816370000000006
20
-47.5272749999999959
11
50.6384159999999994
21
-47.763777999999995
0
LINE
8
BLACK
6
CONTINUOUS
10
50.6384159999999994
20
-47.763777999999995
11
50.6574989999999943
21
-48.0062509999999989
0
LINE
8
BLACK
6
CONTINUOUS
10
50.6574989999999943
20
-48.0062509999999989
11
50.6384159999999994
21
-48.2487239999999957
0
LINE
8
BLACK
6
CONTINUOUS
10
50.6384159999999994
20
-48.2487239999999957
11
50.5816370000000006
21
-48.4852269999999947
0
LINE
8
BLACK
6
CONTINUOUS
10
50.5816370000000006
20
-48.4852269999999947
11
50.4885589999999951
21
-48.709935999999999
0
LINE
8
BLACK
6
CONTINUOUS
10
50.4885589999999951
20
-48.709935999999999
11
50.3614749999999987
21
-48.9173179999999945
0
LINE
8
BLACK
6
CONTINUOUS
10
50.3614749999999987
20
-48.9173179999999945
11
50.2035149999999959
21
-49.1022669999999977
0
LINE
8
BLACK
6
CONTINUOUS
10
50.2035149999999959
20
-49.1022669999999977
11
50.0185659999999999
21
-49.2602270000000004
0
LINE
8
BLACK
6
CONTINUOUS
10
50.0185659999999999
20
-49.2602270000000004
11
49.8111839999999972
21
-49.3873109999999969
0
LINE
8
BLACK
6
CONTINUOUS
10
49.8111839999999972
20
-49.3873109999999969
11
49.5864750000000001
21
-49.4803889999999953
0
LINE
8
BLACK
6
CONTINUOUS
10
49.5864750000000001
20
-49.4803889999999953
11
49.3499720000000011
21
-49.5371680000000012
0
LINE
8
BLACK
6
CONTINUOUS
10
49.3499720000000011
20
-49.5371680000000012
11
49.1074989999999971
21
-49.5562509999999961
0
LINE
8
BLACK
6
CONTINUOUS
10
49.1074989999999971
20
-49.5562509999999961
11
48.8650260000000003
21
-49.5371680000000012
0
LINE
8
BLACK
6
CONTINUOUS
10
48.8650260000000003
20
-49.5371680000000012
11
48.6285230000000013
21
-49.4803889999999953
0
LINE
8
BLACK
6
CONTINUOUS
10
48.6285230000000013
20
-49.4803889999999953
11
48.403813999999997
21
-49.3873109999999969
0
LINE
8
BLACK
6
CONTINUOUS
10
48.403813999999997
20
-49.3873109999999969
11
48.1964319999999944
21
-49.2602270000000004
0
LINE
8
BLACK
6
CONTINUOUS
10
48.1964319999999944
20
-49.2602270000000004
11
48.0114829999999984
21
-49.1022669999999977
0
LINE
8
BLACK
6
CONTINUOUS
10
48.0114829999999984
20
-49.1022669999999977
11
47.8535229999999956
21
-48.9173179999999945
0
LINE
8
BLACK
6
CONTINUOUS
10
47.8535229999999956
20
-48.9173179999999945
11
47.7264389999999992
21
-48.709935999999999
0
LINE
8
BLACK
6
CONTINUOUS
10
47.7264389999999992
20
-48.709935999999999
11
47.6333610000000007
21
-48.4852269999999947
0
LINE
8
BLACK
6
CONTINUOUS
10
47.6333610000000007
20
-48.4852269999999947
11
47.5765819999999948
21
-48.2487239999999957
0
LINE
8
BLACK
6
CONTINUOUS
10
47.5765819999999948
20
-48.2487239999999957
11
47.557499
21
-48.0062509999999989
0
LINE
8
BLACK
6
CONTINUOUS
10
47.557499
20
-48.0062509999999989
11
47.5765819999999948
21
-47.763777999999995
0
LINE
8
BLACK
6
CONTINUOUS
10
47.5765819999999948
20
-47.763777999999995
11
47.6333610000000007
21
-47.5272749999999959
0
LINE
8
BLACK
6
CONTINUOUS
10
47.6333610000000007
20
-47.5272749999999959
11
47.7264389999999992
21
-47.3025659999999988
0
LINE
8
BLACK
6
CONTINUOUS
10
47.7264389999999992
20
-47.3025659999999988
11
47.8535229999999956
21
-47.0951839999999962
0
LINE
8
BLACK
6
CONTINUOUS
10
47.8535229999999956
20
-47.0951839999999962
11
48.0114829999999984
21
-46.9102350000000001
0
LINE
8
BLACK
6
CONTINUOUS
10
48.0114829999999984
20
-46.9102350000000001
11
48.1964319999999944
21
-46.7522749999999974
0
LINE
8
BLACK
6
CONTINUOUS
10
48.1964319999999944
20
-46.7522749999999974
11
48.403813999999997
21
-46.6251910000000009
0
LINE
8
BLACK
6
CONTINUOUS
10
48.403813999999997
20
-46.6251910000000009
11
48.6285230000000013
21
-46.5321129999999954
0
LINE
8
BLACK
6
CONTINUOUS
10
48.6285230000000013
20
-46.5321129999999954
11
48.8650260000000003
21
-46.4753339999999966
0
LINE
8
BLACK
6
CONTINUOUS
10
48.8650260000000003
20
-46.4753339999999966
11
49.1074989999999971
21
-46.4562509999999946
0
LINE
8
BLACK
6
CONTINUOUS
10
49.1074989999999971
20
-46.4562509999999946
11
49.3499720000000011
21
-46.4753339999999966
0
LINE
8
BLACK
6
CONTINUOUS
10
47.6723739999999978
20
-48.2457309999999993
11
47.7313639999999992
21
-48.4786789999999996
0
LINE
8
BLACK
6
CONTINUOUS
10
47.7313639999999992
20
-48.4786789999999996
11
47.8278919999999985
21
-48.6987400000000008
0
LINE
8
BLACK
6
CONTINUOUS
10
47.8278919999999985
20
-48.6987400000000008
11
47.9593239999999952
21
-48.8999109999999959
0
LINE
8
BLACK
6
CONTINUOUS
10
47.9593239999999952
20
-48.8999109999999959
11
48.1220749999999953
21
-49.0767059999999944
0
LINE
8
BLACK
6
CONTINUOUS
10
48.1220749999999953
20
-49.0767059999999944
11
48.3117060000000009
21
-49.2243019999999945
0
LINE
8
BLACK
6
CONTINUOUS
10
48.3117060000000009
20
-49.2243019999999945
11
48.5230449999999962
21
-49.338673
0
LINE
8
BLACK
6
CONTINUOUS
10
48.5230449999999962
20
-49.338673
11
48.7503249999999966
21
-49.4166979999999967
0
LINE
8
BLACK
6
CONTINUOUS
10
48.7503249999999966
20
-49.4166979999999967
11
48.9873489999999947
21
-49.4562509999999946
0
LINE
8
BLACK
6
CONTINUOUS
10
48.9873489999999947
20
-49.4562509999999946
11
49.2276489999999995
21
-49.4562509999999946
0
LINE
8
BLACK
6
CONTINUOUS
10
49.2276489999999995
20
-49.4562509999999946
11
49.4646729999999977
21
-49.4166979999999967
0
LINE
8
BLACK
6
CONTINUOUS
10
49.4646729999999977
20
-49.4166979999999967
11
49.691952999999998
21
-49.338673
0
LINE
8
BLACK
6
CONTINUOUS
10
49.691952999999998
20
-49.338673
11
49.9032920000000004
21
-49.2243019999999945
0
LINE
8
BLACK
6
CONTINUOUS
10
49.9032920000000004
20
-49.2243019999999945
11
50.092922999999999
21
-49.0767059999999944
0
LINE
8
BLACK
6
CONTINUOUS
10
50.092922999999999
20
-49.0767059999999944
11
50.2556739999999991
21
-48.8999109999999959
0
LINE
8
BLACK
6
CONTINUOUS
10
50.2556739999999991
20
-48.8999109999999959
11
50.3871059999999957
21
-48.6987400000000008
0
LINE
8
BLACK
6
CONTINUOUS
10
50.3871059999999957
20
-48.6987400000000008
11
50.483633999999995
21
-48.4786789999999996
0
LINE
8
BLACK
6
CONTINUOUS
10
50.483633999999995
20
-48.4786789999999996
11
50.5426239999999964
21
-48.2457309999999993
0
LINE
8
BLACK
6
CONTINUOUS
10
50.5426239999999964
20
-48.2457309999999993
11
50.5624679999999955
21
-48.0062509999999989
0
LINE
8
BLACK
6
CONTINUOUS
10
50.5624679999999955
20
-48.0062509999999989
11
50.5426239999999964
21
-47.7667709999999985
0
LINE
8
BLACK
6
CONTINUOUS
10
50.5426239999999964
20
-47.7667709999999985
11
50.483633999999995
21
-47.5338229999999982
0
LINE
8
BLACK
6
CONTINUOUS
10
50.483633999999995
20
-47.5338229999999982
11
50.3871059999999957
21
-47.313761999999997
0
LINE
8
BLACK
6
CONTINUOUS
10
50.3871059999999957
20
-47.313761999999997
11
50.2556739999999991
21
-47.1125909999999948
0
LINE
8
BLACK
6
CONTINUOUS
10
50.2556739999999991
20
-47.1125909999999948
11
50.092922999999999
21
-46.9357959999999963
0
LINE
8
BLACK
6
CONTINUOUS
10
50.092922999999999
20
-46.9357959999999963
11
49.9032920000000004
21
-46.7881999999999962
0
LINE
8
BLACK
6
CONTINUOUS
10
49.9032920000000004
20
-46.7881999999999962
11
49.691952999999998
21
-46.6738289999999978
0
LINE
8
BLACK
6
CONTINUOUS
10
49.691952999999998
20
-46.6738289999999978
11
49.4646729999999977
21
-46.5958040000000011
0
LINE
8
BLACK
6
CONTINUOUS
10
49.4646729999999977
20
-46.5958040000000011
11
49.2276489999999995
21
-46.5562509999999961
0
LINE
8
BLACK
6
CONTINUOUS
10
49.2276489999999995
20
-46.5562509999999961
11
48.9873489999999947
21
-46.5562509999999961
0
LINE
8
BLACK
6
CONTINUOUS
10
48.9873489999999947
20
-46.5562509999999961
11
48.7503249999999966
21
-46.5958040000000011
0
LINE
8
BLACK
6
CONTINUOUS
10
48.7503249999999966
20
-46.5958040000000011
11
48.5230449999999962
21
-46.6738289999999978
0
LINE
8
BLACK
6
CONTINUOUS
10
48.5230449999999962
20
-46.6738289999999978
11
48.3117060000000009
21
-46.7881999999999962
0
LINE
8
BLACK
6
CONTINUOUS
10
48.3117060000000009
20
-46.7881999999999962
11
48.1220749999999953
21
-46.9357959999999963
0
LINE
8
BLACK
6
CONTINUOUS
10
48.1220749999999953
20
-46.9357959999999963
11
47.9593239999999952
21
-47.1125909999999948
0
LINE
8
BLACK
6
CONTINUOUS
10
47.9593239999999952
20
-47.1125909999999948
11
47.8278919999999985
21
-47.313761999999997
0
LINE
8
BLACK
6
CONTINUOUS
10
47.8278919999999985
20
-47.313761999999997
11
47.7313639999999992
21
-47.5338229999999982
0
LINE
8
BLACK
6
CONTINUOUS
10
47.7313639999999992
20
-47.5338229999999982
11
47.6723739999999978
21
-47.7667709999999985
0
LINE
8
BLACK
6
CONTINUOUS
10
47.6723739999999978
20
-47.7667709999999985
11
47.6525299999999987
21
-48.0062509999999989
0
LINE
8
BLACK
6
CONTINUOUS
10
47.6525299999999987
20
-48.0062509999999989
11
47.6723739999999978
21
-48.2457309999999993
0
LINE
8
BLACK
6
CONTINUOUS
10
96.349971999999994
20
-46.4753339999999966
11
96.586474999999993
21
-46.5321129999999954
0
LINE
8
BLACK
6
CONTINUOUS
10
96.586474999999993
20
-46.5321129999999954
11
96.8111839999999972
21
-46.6251910000000009
0
LINE
8
BLACK
6
CONTINUOUS
10
96.8111839999999972
20
-46.6251910000000009
11
97.0185659999999928
21
-46.7522749999999974
0
LINE
8
BLACK
6
CONTINUOUS
10
97.0185659999999928
20
-46.7522749999999974
11
97.2035149999999959
21
-46.9102350000000001
0
LINE
8
BLACK
6
CONTINUOUS
10
97.2035149999999959
20
-46.9102350000000001
11
97.3614749999999987
21
-47.0951839999999962
0
LINE
8
BLACK
6
CONTINUOUS
10
97.3614749999999987
20
-47.0951839999999962
11
97.4885589999999951
21
-47.3025659999999988
0
LINE
8
BLACK
6
CONTINUOUS
10
97.4885589999999951
20
-47.3025659999999988
11
97.5816370000000006
21
-47.5272749999999959
0
LINE
8
BLACK
6
CONTINUOUS
10
97.5816370000000006
20
-47.5272749999999959
11
97.6384159999999923
21
-47.763777999999995
0
LINE
8
BLACK
6
CONTINUOUS
10
97.6384159999999923
20
-47.763777999999995
11
97.6574990000000014
21
-48.0062509999999989
0
LINE
8
BLACK
6
CONTINUOUS
10
97.6574990000000014
20
-48.0062509999999989
11
97.6384159999999923
21
-48.2487239999999957
0
LINE
8
BLACK
6
CONTINUOUS
10
97.6384159999999923
20
-48.2487239999999957
11
97.5816370000000006
21
-48.4852269999999947
0
LINE
8
BLACK
6
CONTINUOUS
10
97.5816370000000006
20
-48.4852269999999947
11
97.4885589999999951
21
-48.709935999999999
0
LINE
8
BLACK
6
CONTINUOUS
10
97.4885589999999951
20
-48.709935999999999
11
97.3614749999999987
21
-48.9173179999999945
0
LINE
8
BLACK
6
CONTINUOUS
10
97.3614749999999987
20
-48.9173179999999945
11
97.2035149999999959
21
-49.1022669999999977
0
LINE
8
BLACK
6
CONTINUOUS
10
97.2035149999999959
20
-49.1022669999999977
11
97.0185659999999928
21
-49.2602270000000004
0
LINE
8
BLACK
6
CONTINUOUS
10
97.0185659999999928
20
-49.2602270000000004
11
96.8111839999999972
21
-49.3873109999999969
0
LINE
8
BLACK
6
CONTINUOUS
10
96.8111839999999972
20
-49.3873109999999969
11
96.586474999999993
21
-49.4803889999999953
0
LINE
8
BLACK
6
CONTINUOUS
10
96.586474999999993
20
-49.4803889999999953
11
96.349971999999994
21
-49.5371680000000012
0
LINE
8
BLACK
6
CONTINUOUS
10
96.349971999999994
20
-49.5371680000000012
11
96.10749899999999
21
-49.5562509999999961
0
LINE
8
BLACK
6
CONTINUOUS
10
96.10749899999999
20
-49.5562509999999961
11
95.8650260000000003
21
-49.5371680000000012
0
LINE
8
BLACK
6
CONTINUOUS
10
95.8650260000000003
20
-49.5371680000000012
11
95.6285230000000013
21
-49.4803889999999953
0
LINE
8
BLACK
6
CONTINUOUS
10
95.6285230000000013
20
-49.4803889999999953
11
95.403813999999997
21
-49.3873109999999969
0
LINE
8
BLACK
6
CONTINUOUS
10
95.403813999999997
20
-49.3873109999999969
11
95.1964320000000015
21
-49.2602270000000004
0
LINE
8
BLACK
6
CONTINUOUS
10
95.1964320000000015
20
-49.2602270000000004
11
95.0114829999999984
21
-49.1022669999999977
0
LINE
8
BLACK
6
CONTINUOUS
10
95.0114829999999984
20
-49.1022669999999977
11
94.8535229999999956
21
-48.9173179999999945
0
LINE
8
BLACK
6
CONTINUOUS
10
94.8535229999999956
20
-48.9173179999999945
11
94.7264389999999992
21
-48.709935999999999
0
LINE
8
BLACK
6
CONTINUOUS
10
94.7264389999999992
20
-48.709935999999999
11
94.6333609999999936
21
-48.4852269999999947
0
LINE
8
BLACK
6
CONTINUOUS
10
94.6333609999999936
20
-48.4852269999999947
11
94.5765820000000019
21
-48.2487239999999957
0
LINE
8
BLACK
6
CONTINUOUS
10
94.5765820000000019
20
-48.2487239999999957
11
94.5574989999999929
21
-48.0062509999999989
0
LINE
8
BLACK
6
CONTINUOUS
10
94.5574989999999929
20
-48.0062509999999989
11
94.5765820000000019
21
-47.763777999999995
0
LINE
8
BLACK
6
CONTINUOUS
10
94.5765820000000019
20
-47.763777999999995
11
94.6333609999999936
21
-47.5272749999999959
0
LINE
8
BLACK
6
CONTINUOUS
10
94.6333609999999936
20
-47.5272749999999959
11
94.7264389999999992
21
-47.3025659999999988
0
LINE
8
BLACK
6
CONTINUOUS
10
94.7264389999999992
20
-47.3025659999999988
11
94.8535229999999956
21
-47.0951839999999962
0
LINE
8
BLACK
6
CONTINUOUS
10
94.8535229999999956
20
-47.0951839999999962
11
95.0114829999999984
21
-46.9102350000000001
0
LINE
8
BLACK
6
CONTINUOUS
10
95.0114829999999984
20
-46.9102350000000001
11
95.1964320000000015
21
-46.7522749999999974
0
LINE
8
BLACK
6
CONTINUOUS
10
95.1964320000000015
20
-46.7522749999999974
11
95.403813999999997
21
-46.6251910000000009
0
LINE
8
BLACK
6
CONTINUOUS
10
95.403813999999997
20
-46.6251910000000009
11
95.6285230000000013
21
-46.5321129999999954
0
LINE
8
BLACK
6
CONTINUOUS
10
95.6285230000000013
20
-46.5321129999999954
11
95.8650260000000003
21
-46.4753339999999966
0
LINE
8
BLACK
6
CONTINUOUS
10
95.8650260000000003
20
-46.4753339999999966
11
96.10749899999999
21
-46.4562509999999946
0
LINE
8
BLACK
6
CONTINUOUS
10
96.10749899999999
20
-46.4562509999999946
11
96.349971999999994
21
-46.4753339999999966
0
LINE
8
BLACK
6
CONTINUOUS
10
94.6723739999999907
20
-48.2457309999999993
11
94.7313639999999992
21
-48.4786789999999996
0
LINE
8
BLACK
6
CONTINUOUS
10
94.7313639999999992
20
-48.4786789999999996
11
94.8278919999999914
21
-48.6987400000000008
0
LINE
8
BLACK
6
CONTINUOUS
10
94.8278919999999914
20
-48.6987400000000008
11
94.9593239999999952
21
-48.8999109999999959
0
LINE
8
BLACK
6
CONTINUOUS
10
94.9593239999999952
20
-48.8999109999999959
11
95.1220749999999953
21
-49.0767059999999944
0
LINE
8
BLACK
6
CONTINUOUS
10
95.1220749999999953
20
-49.0767059999999944
11
95.3117060000000009
21
-49.2243019999999945
0
LINE
8
BLACK
6
CONTINUOUS
10
95.3117060000000009
20
-49.2243019999999945
11
95.5230449999999962
21
-49.338673
0
LINE
8
BLACK
6
CONTINUOUS
10
95.5230449999999962
20
-49.338673
11
95.7503249999999895
21
-49.4166979999999967
0
LINE
8
BLACK
6
CONTINUOUS
10
95.7503249999999895
20
-49.4166979999999967
11
95.9873489999999947
21
-49.4562509999999946
0
LINE
8
BLACK
6
CONTINUOUS
10
95.9873489999999947
20
-49.4562509999999946
11
96.2276489999999995
21
-49.4562509999999946
0
LINE
8
BLACK
6
CONTINUOUS
10
96.2276489999999995
20
-49.4562509999999946
11
96.4646729999999906
21
-49.4166979999999967
0
LINE
8
BLACK
6
CONTINUOUS
10
96.4646729999999906
20
-49.4166979999999967
11
96.691952999999998
21
-49.338673
0
LINE
8
BLACK
6
CONTINUOUS
10
96.691952999999998
20
-49.338673
11
96.9032919999999933
21
-49.2243019999999945
0
LINE
8
BLACK
6
CONTINUOUS
10
96.9032919999999933
20
-49.2243019999999945
11
97.092922999999999
21
-49.0767059999999944
0
LINE
8
BLACK
6
CONTINUOUS
10
97.092922999999999
20
-49.0767059999999944
11
97.2556739999999991
21
-48.8999109999999959
0
LINE
8
BLACK
6
CONTINUOUS
10
97.2556739999999991
20
-48.8999109999999959
11
97.3871059999999886
21
-48.6987400000000008
0
LINE
8
BLACK
6
CONTINUOUS
10
97.3871059999999886
20
-48.6987400000000008
11
97.483633999999995
21
-48.4786789999999996
0
LINE
8
BLACK
6
CONTINUOUS
10
97.483633999999995
20
-48.4786789999999996
11
97.5426239999999893
21
-48.2457309999999993
0
LINE
8
BLACK
6
CONTINUOUS
10
97.5426239999999893
20
-48.2457309999999993
11
97.5624679999999955
21
-48.0062509999999989
0
LINE
8
BLACK
6
CONTINUOUS
10
97.5624679999999955
20
-48.0062509999999989
11
97.5426239999999893
21
-47.7667709999999985
0
LINE
8
BLACK
6
CONTINUOUS
10
97.5426239999999893
20
-47.7667709999999985
11
97.483633999999995
21
-47.5338229999999982
0
LINE
8
BLACK
6
CONTINUOUS
10
97.483633999999995
20
-47.5338229999999982
11
97.3871059999999886
21
-47.313761999999997
0
LINE
8
BLACK
6
CONTINUOUS
10
97.3871059999999886
20
-47.313761999999997
11
97.2556739999999991
21
-47.1125909999999948
0
LINE
8
BLACK
6
CONTINUOUS
10
97.2556739999999991
20
-47.1125909999999948
11
97.092922999999999
21
-46.9357959999999963
0
LINE
8
BLACK
6
CONTINUOUS
10
97.092922999999999
20
-46.9357959999999963
11
96.9032919999999933
21
-46.7881999999999962
0
LINE
8
BLACK
6
CONTINUOUS
10
96.9032919999999933
20
-46.7881999999999962
11
96.691952999999998
21
-46.6738289999999978
0
LINE
8
BLACK
6
CONTINUOUS
10
96.691952999999998
20
-46.6738289999999978
11
96.4646729999999906
21
-46.5958040000000011
0
LINE
8
BLACK
6
CONTINUOUS
10
96.4646729999999906
20
-46.5958040000000011
11
96.2276489999999995
21
-46.5562509999999961
0
LINE
8
BLACK
6
CONTINUOUS
10
96.2276489999999995
20
-46.5562509999999961
11
95.9873489999999947
21
-46.5562509999999961
0
LINE
8
BLACK
6
CONTINUOUS
10
95.9873489999999947
20
-46.5562509999999961
11
95.7503249999999895
21
-46.5958040000000011
0
LINE
8
BLACK
6
CONTINUOUS
10
95.7503249999999895
20
-46.5958040000000011
11
95.5230449999999962
21
-46.6738289999999978
0
LINE
8
BLACK
6
CONTINUOUS
10
95.5230449999999962
20
-46.6738289999999978
11
95.3117060000000009
21
-46.7881999999999962
0
LINE
8
BLACK
6
CONTINUOUS
10
95.3117060000000009
20
-46.7881999999999962
11
95.1220749999999953
21
-46.9357959999999963
0
LINE
8
BLACK
6
CONTINUOUS
10
95.1220749999999953
20
-46.9357959999999963
11
94.9593239999999952
21
-47.1125909999999948
0
LINE
8
BLACK
6
CONTINUOUS
10
94.9593239999999952
20
-47.1125909999999948
11
94.8278919999999914
21
-47.313761999999997
0
LINE
8
BLACK
6
CONTINUOUS
10
94.8278919999999914
20
-47.313761999999997
11
94.7313639999999992
21
-47.5338229999999982
0
LINE
8
BLACK
6
CONTINUOUS
10
94.7313639999999992
20
-47.5338229999999982
11
94.6723739999999907
21
-47.7667709999999985
0
LINE
8
BLACK
6
CONTINUOUS
10
94.6723739999999907
20
-47.7667709999999985
11
94.6525299999999987
21
-48.0062509999999989
0
LINE
8
BLACK
6
CONTINUOUS
10
94.6525299999999987
20
-48.0062509999999989
11
94.6723739999999907
21
-48.2457309999999993
0
LINE
8
BLACK
6
CONTINUOUS
10
47.6074989999999971
20
-41.9562509999999946
11
56.1074989999999971
21
-41.9562509999999946
0
LINE
8
BLACK
6
CONTINUOUS
10
56.1074989999999971
20
-41.9562509999999946
11
56.1428539999999998
21
-41.9708959999999962
0
LINE
8
BLACK
6
CONTINUOUS
10
56.1428539999999998
20
-41.9708959999999962
11
56.1574989999999943
21
-42.0062509999999989
0
LINE
8
BLACK
6
CONTINUOUS
10
56.1574989999999943
20
-42.0062509999999989
11
56.1574989999999943
21
-45.4562509999999946
0
LINE
8
BLACK
6
CONTINUOUS
10
56.1574989999999943
20
-45.4562509999999946
11
62.557499
21
-45.4562509999999946
0
LINE
8
BLACK
6
CONTINUOUS
10
62.557499
20
-45.4562509999999946
11
62.557499
21
-42.0062509999999989
0
LINE
8
BLACK
6
CONTINUOUS
10
62.557499
20
-42.0062509999999989
11
62.5721439999999944
21
-41.9708959999999962
0
LINE
8
BLACK
6
CONTINUOUS
10
62.5721439999999944
20
-41.9708959999999962
11
62.6074989999999971
21
-41.9562509999999946
0
LINE
8
BLACK
6
CONTINUOUS
10
62.6074989999999971
20
-41.9562509999999946
11
84.10749899999999
21
-41.9562509999999946
0
LINE
8
BLACK
6
CONTINUOUS
10
84.10749899999999
20
-41.9562509999999946
11
84.1428539999999998
21
-41.9708959999999962
0
LINE
8
BLACK
6
CONTINUOUS
10
84.1428539999999998
20
-41.9708959999999962
11
84.1574990000000014
21
-42.0062509999999989
0
LINE
8
BLACK
6
CONTINUOUS
10
84.1574990000000014
20
-42.0062509999999989
11
84.1574990000000014
21
-45.4562509999999946
0
LINE
8
BLACK
6
CONTINUOUS
10
84.1574990000000014
20
-45.4562509999999946
11
90.5574989999999929
21
-45.4562509999999946
0
LINE
8
BLACK
6
CONTINUOUS
10
90.5574989999999929
20
-45.4562509999999946
11
90.5574989999999929
21
-42.0062509999999989
0
LINE
8
BLACK
6
CONTINUOUS
10
90.5574989999999929
20
-42.0062509999999989
11
90.5721439999999944
21
-41.9708959999999962
0
LINE
8
BLACK
6
CONTINUOUS
10
90.5721439999999944
20
-41.9708959999999962
11
90.60749899999999
21
-41.9562509999999946
0
LINE
8
BLACK
6
CONTINUOUS
10
90.60749899999999
20
-41.9562509999999946
11
97.60749899999999
21
-41.9562509999999946
0
LINE
8
BLACK
6
CONTINUOUS
10
97.60749899999999
20
-41.9562509999999946
11
97.9811839999999989
21
-41.9735279999999946
0
LINE
8
BLACK
6
CONTINUOUS
10
97.9811839999999989
20
-41.9735279999999946
11
98.3516809999999992
21
-42.0252100000000013
0
LINE
8
BLACK
6
CONTINUOUS
10
98.3516809999999992
20
-42.0252100000000013
11
98.7158289999999994
21
-42.1108569999999958
0
LINE
8
BLACK
6
CONTINUOUS
10
98.7158289999999994
20
-42.1108569999999958
11
99.0705209999999994
21
-42.229738999999995
0
LINE
8
BLACK
6
CONTINUOUS
10
99.0705209999999994
20
-42.229738999999995
11
99.4127309999999937
21
-42.3808409999999967
0
LINE
8
BLACK
6
CONTINUOUS
10
99.4127309999999937
20
-42.3808409999999967
11
99.739537999999996
21
-42.5628729999999962
0
LINE
8
BLACK
6
CONTINUOUS
10
99.739537999999996
20
-42.5628729999999962
11
100.0481559999999916
21
-42.7742829999999969
0
LINE
8
BLACK
6
CONTINUOUS
10
100.0481559999999916
20
-42.7742829999999969
11
100.3359509999999943
21
-43.0132679999999965
0
LINE
8
BLACK
6
CONTINUOUS
10
100.3359509999999943
20
-43.0132679999999965
11
100.6004669999999948
21
-43.2777869999999965
0
LINE
8
BLACK
6
CONTINUOUS
10
100.6004669999999948
20
-43.2777869999999965
11
100.8394469999999927
21
-43.5655840000000012
0
LINE
8
BLACK
6
CONTINUOUS
10
100.8394469999999927
20
-43.5655840000000012
11
101.0508529999999894
21
-43.8742049999999963
0
LINE
8
BLACK
6
CONTINUOUS
10
101.0508529999999894
20
-43.8742049999999963
11
101.2328819999999894
21
-44.2010149999999982
0
LINE
8
BLACK
6
CONTINUOUS
10
101.2328819999999894
20
-44.2010149999999982
11
101.3839789999999965
21
-44.5432259999999971
0
LINE
8
BLACK
6
CONTINUOUS
10
101.3839789999999965
20
-44.5432259999999971
11
101.5028559999999942
21
-44.8979199999999992
0
LINE
8
BLACK
6
CONTINUOUS
10
101.5028559999999942
20
-44.8979199999999992
11
101.5884989999999988
21
-45.2620679999999993
0
LINE
8
BLACK
6
CONTINUOUS
10
101.5884989999999988
20
-45.2620679999999993
11
101.6401769999999942
21
-45.6325659999999971
0
LINE
8
BLACK
6
CONTINUOUS
10
101.6401769999999942
20
-45.6325659999999971
11
101.657441999999989
21
-46.0061150000000012
0
LINE
8
BLACK
6
CONTINUOUS
10
101.657441999999989
20
-46.0061150000000012
11
101.6574990000000014
21
-46.0062509999999989
0
LINE
8
BLACK
6
CONTINUOUS
10
101.6574990000000014
20
-46.0062509999999989
11
101.6574990000000014
21
-129.0062499999999943
0
LINE
8
BLACK
6
CONTINUOUS
10
101.6574990000000014
20
-129.0062499999999943
11
101.6574990000000014
21
-129.0062509999999918
0
LINE
8
BLACK
6
CONTINUOUS
10
101.6574990000000014
20
-129.0062509999999918
11
101.6402219999999943
21
-129.3799379999999815
0
LINE
8
BLACK
6
CONTINUOUS
10
101.6402219999999943
20
-129.3799379999999815
11
101.5885399999999947
21
-129.7504360000000077
0
LINE
8
BLACK
6
CONTINUOUS
10
101.5885399999999947
20
-129.7504360000000077
11
101.5028930000000003
21
-130.1145860000000027
0
LINE
8
BLACK
6
CONTINUOUS
10
101.5028930000000003
20
-130.1145860000000027
11
101.384011000000001
21
-130.4692790000000002
0
LINE
8
BLACK
6
CONTINUOUS
10
101.384011000000001
20
-130.4692790000000002
11
101.2329099999999897
21
-130.8114909999999895
0
LINE
8
BLACK
6
CONTINUOUS
10
101.2329099999999897
20
-130.8114909999999895
11
101.0508779999999973
21
-131.1383009999999842
0
LINE
8
BLACK
6
CONTINUOUS
10
101.0508779999999973
20
-131.1383009999999842
11
100.8394679999999966
21
-131.4469200000000058
0
LINE
8
BLACK
6
CONTINUOUS
10
100.8394679999999966
20
-131.4469200000000058
11
100.6004849999999919
21
-131.7347169999999892
0
LINE
8
BLACK
6
CONTINUOUS
10
100.6004849999999919
20
-131.7347169999999892
11
100.3359659999999991
21
-131.9992359999999962
0
LINE
8
BLACK
6
CONTINUOUS
10
100.3359659999999991
20
-131.9992359999999962
11
100.0481690000000015
21
-132.2382199999999841
0
LINE
8
BLACK
6
CONTINUOUS
10
100.0481690000000015
20
-132.2382199999999841
11
99.7395489999999967
21
-132.4496289999999874
0
LINE
8
BLACK
6
CONTINUOUS
10
99.7395489999999967
20
-132.4496289999999874
11
99.412739000000002
21
-132.6316609999999798
0
LINE
8
BLACK
6
CONTINUOUS
10
99.412739000000002
20
-132.6316609999999798
11
99.0705269999999985
21
-132.7827619999999911
0
LINE
8
BLACK
6
CONTINUOUS
10
99.0705269999999985
20
-132.7827619999999911
11
98.715834000000001
21
-132.9016430000000071
0
LINE
8
BLACK
6
CONTINUOUS
10
98.715834000000001
20
-132.9016430000000071
11
98.3516839999999917
21
-132.9872900000000016
0
LINE
8
BLACK
6
CONTINUOUS
10
98.3516839999999917
20
-132.9872900000000016
11
97.9811859999999939
21
-133.0389729999999986
0
LINE
8
BLACK
6
CONTINUOUS
10
97.9811859999999939
20
-133.0389729999999986
11
97.6075039999999916
21
-133.0562479999999823
0
LINE
8
BLACK
6
CONTINUOUS
10
97.6075039999999916
20
-133.0562479999999823
11
97.60749899999999
21
-133.0562510000000032
0
LINE
8
BLACK
6
CONTINUOUS
10
97.60749899999999
20
-133.0562510000000032
11
47.6074989999999971
21
-133.0562510000000032
0
LINE
8
BLACK
6
CONTINUOUS
10
47.6074989999999971
20
-133.0562510000000032
11
47.2338109999999958
21
-133.0389739999999961
0
LINE
8
BLACK
6
CONTINUOUS
10
47.2338109999999958
20
-133.0389739999999961
11
46.8633099999999985
21
-132.9872919999999965
0
LINE
8
BLACK
6
CONTINUOUS
10
46.8633099999999985
20
-132.9872919999999965
11
46.4991589999999988
21
-132.901645000000002
0
LINE
8
BLACK
6
CONTINUOUS
10
46.4991589999999988
20
-132.901645000000002
11
46.1444629999999947
21
-132.782763999999986
0
LINE
8
BLACK
6
CONTINUOUS
10
46.1444629999999947
20
-132.782763999999986
11
45.8022500000000008
21
-132.6316630000000032
0
LINE
8
BLACK
6
CONTINUOUS
10
45.8022500000000008
20
-132.6316630000000032
11
45.4754379999999969
21
-132.4496319999999798
0
LINE
8
BLACK
6
CONTINUOUS
10
45.4754379999999969
20
-132.4496319999999798
11
45.1668149999999997
21
-132.238223000000005
0
LINE
8
BLACK
6
CONTINUOUS
10
45.1668149999999997
20
-132.238223000000005
11
44.879016
21
-131.9992399999999861
0
LINE
8
BLACK
6
CONTINUOUS
10
44.879016
20
-131.9992399999999861
11
44.6144940000000005
21
-131.734722000000005
0
LINE
8
BLACK
6
CONTINUOUS
10
44.6144940000000005
20
-131.734722000000005
11
44.3755079999999964
21
-131.4469249999999931
0
LINE
8
BLACK
6
CONTINUOUS
10
44.3755079999999964
20
-131.4469249999999931
11
44.1640949999999961
21
-131.1383050000000026
0
LINE
8
BLACK
6
CONTINUOUS
10
44.1640949999999961
20
-131.1383050000000026
11
43.9820589999999996
21
-130.8114950000000078
0
LINE
8
BLACK
6
CONTINUOUS
10
43.9820589999999996
20
-130.8114950000000078
11
43.8309539999999984
21
-130.4692839999999876
0
LINE
8
BLACK
6
CONTINUOUS
10
43.8309539999999984
20
-130.4692839999999876
11
43.7120689999999996
21
-130.1145899999999926
0
LINE
8
BLACK
6
CONTINUOUS
10
43.7120689999999996
20
-130.1145899999999926
11
43.6264169999999964
21
-129.7504399999999976
0
LINE
8
BLACK
6
CONTINUOUS
10
43.6264169999999964
20
-129.7504399999999976
11
43.5747299999999953
21
-129.3799400000000048
0
LINE
8
BLACK
6
CONTINUOUS
10
43.5747299999999953
20
-129.3799400000000048
11
43.5574489999999983
21
-129.0062519999999893
0
LINE
8
BLACK
6
CONTINUOUS
10
43.5574489999999983
20
-129.0062519999999893
11
43.557499
21
-129.0062519999999893
0
LINE
8
BLACK
6
CONTINUOUS
10
43.557499
20
-129.0062519999999893
11
43.557499
21
-129.0062509999999918
0
LINE
8
BLACK
6
CONTINUOUS
10
43.557499
20
-129.0062509999999918
11
43.557499
21
-46.0062509999999989
0
LINE
8
BLACK
6
CONTINUOUS
10
43.557499
20
-46.0062509999999989
11
43.557499
21
-46.0062500000000014
0
LINE
8
BLACK
6
CONTINUOUS
10
43.557499
20
-46.0062500000000014
11
43.5747749999999954
21
-45.632563999999995
0
LINE
8
BLACK
6
CONTINUOUS
10
43.5747749999999954
20
-45.632563999999995
11
43.6264579999999995
21
-45.2620649999999998
0
LINE
8
BLACK
6
CONTINUOUS
10
43.6264579999999995
20
-45.2620649999999998
11
43.7121050000000011
21
-44.8979159999999951
0
LINE
8
BLACK
6
CONTINUOUS
10
43.7121050000000011
20
-44.8979159999999951
11
43.8309859999999958
21
-44.5432220000000001
0
LINE
8
BLACK
6
CONTINUOUS
10
43.8309859999999958
20
-44.5432220000000001
11
43.9820869999999999
21
-44.2010099999999966
0
LINE
8
BLACK
6
CONTINUOUS
10
43.9820869999999999
20
-44.2010099999999966
11
44.1641189999999995
21
-43.8741999999999948
0
LINE
8
BLACK
6
CONTINUOUS
10
44.1641189999999995
20
-43.8741999999999948
11
44.3755290000000002
21
-43.5655799999999971
0
LINE
8
BLACK
6
CONTINUOUS
10
44.3755290000000002
20
-43.5655799999999971
11
44.6145119999999977
21
-43.2777829999999994
0
LINE
8
BLACK
6
CONTINUOUS
10
44.6145119999999977
20
-43.2777829999999994
11
44.8790309999999977
21
-43.0132639999999995
0
LINE
8
BLACK
6
CONTINUOUS
10
44.8790309999999977
20
-43.0132639999999995
11
45.1668279999999953
21
-42.7742799999999974
0
LINE
8
BLACK
6
CONTINUOUS
10
45.1668279999999953
20
-42.7742799999999974
11
45.4754480000000001
21
-42.5628699999999967
0
LINE
8
BLACK
6
CONTINUOUS
10
45.4754480000000001
20
-42.5628699999999967
11
45.8022579999999948
21
-42.3808379999999971
0
LINE
8
BLACK
6
CONTINUOUS
10
45.8022579999999948
20
-42.3808379999999971
11
46.1444699999999983
21
-42.2297370000000001
0
LINE
8
BLACK
6
CONTINUOUS
10
46.1444699999999983
20
-42.2297370000000001
11
46.4991640000000004
21
-42.1108550000000008
0
LINE
8
BLACK
6
CONTINUOUS
10
46.4991640000000004
20
-42.1108550000000008
11
46.863312999999998
21
-42.0252079999999992
0
LINE
8
BLACK
6
CONTINUOUS
10
46.863312999999998
20
-42.0252079999999992
11
47.2338120000000004
21
-41.9735259999999997
0
LINE
8
BLACK
6
CONTINUOUS
10
47.2338120000000004
20
-41.9735259999999997
11
47.6074989999999971
21
-41.9562489999999997
0
LINE
8
BLACK
6
CONTINUOUS
10
47.6074989999999971
20
-41.9562489999999997
11
47.6074989999999971
21
-41.9562509999999946
0
LINE
8
BLACK
6
CONTINUOUS
10
47.0611979999999974
20
-42.0899489999999972
11
46.7021779999999964
21
-42.1570619999999963
0
LINE
8
BLACK
6
CONTINUOUS
10
46.7021779999999964
20
-42.1570619999999963
11
46.3508819999999986
21
-42.2570149999999956
0
LINE
8
BLACK
6
CONTINUOUS
10
46.3508819999999986
20
-42.2570149999999956
11
46.0103069999999974
21
-42.3889539999999982
0
LINE
8
BLACK
6
CONTINUOUS
10
46.0103069999999974
20
-42.3889539999999982
11
45.6833579999999984
21
-42.551755
0
LINE
8
BLACK
6
CONTINUOUS
10
45.6833579999999984
20
-42.551755
11
45.3728249999999989
21
-42.7440289999999976
0
LINE
8
BLACK
6
CONTINUOUS
10
45.3728249999999989
20
-42.7440289999999976
11
45.0813579999999945
21
-42.9641349999999989
0
LINE
8
BLACK
6
CONTINUOUS
10
45.0813579999999945
20
-42.9641349999999989
11
44.8114439999999945
21
-43.2101949999999988
0
LINE
8
BLACK
6
CONTINUOUS
10
44.8114439999999945
20
-43.2101949999999988
11
44.5653839999999946
21
-43.4801099999999963
0
LINE
8
BLACK
6
CONTINUOUS
10
44.5653839999999946
20
-43.4801099999999963
11
44.3452780000000004
21
-43.7715770000000006
0
LINE
8
BLACK
6
CONTINUOUS
10
44.3452780000000004
20
-43.7715770000000006
11
44.1530039999999957
21
-44.0821100000000001
0
LINE
8
BLACK
6
CONTINUOUS
10
44.1530039999999957
20
-44.0821100000000001
11
43.9902030000000011
21
-44.4090579999999946
0
LINE
8
BLACK
6
CONTINUOUS
10
43.9902030000000011
20
-44.4090579999999946
11
43.8582639999999984
21
-44.7496340000000004
0
LINE
8
BLACK
6
CONTINUOUS
10
43.8582639999999984
20
-44.7496340000000004
11
43.7583119999999965
21
-45.1009299999999982
0
LINE
8
BLACK
6
CONTINUOUS
10
43.7583119999999965
20
-45.1009299999999982
11
43.6911989999999975
21
-45.4599499999999992
0
LINE
8
BLACK
6
CONTINUOUS
10
43.6911989999999975
20
-45.4599499999999992
11
43.6574990000000014
21
-45.8236309999999989
0
LINE
8
BLACK
6
CONTINUOUS
10
43.6574990000000014
20
-45.8236309999999989
11
43.6574990000000014
21
-46.0062500000000014
0
LINE
8
BLACK
6
CONTINUOUS
10
43.6574990000000014
20
-46.0062500000000014
11
43.6574990000000014
21
-46.0062509999999989
0
LINE
8
BLACK
6
CONTINUOUS
10
43.6574990000000014
20
-46.0062509999999989
11
43.6574990000000014
21
-129.0062509999999918
0
LINE
8
BLACK
6
CONTINUOUS
10
43.6574990000000014
20
-129.0062509999999918
11
43.6574489999999997
21
-129.0063710000000015
0
LINE
8
BLACK
6
CONTINUOUS
10
43.6574489999999997
20
-129.0063710000000015
11
43.6574519999999993
21
-129.188871000000006
0
LINE
8
BLACK
6
CONTINUOUS
10
43.6574519999999993
20
-129.188871000000006
11
43.6911559999999994
21
-129.552552999999989
0
LINE
8
BLACK
6
CONTINUOUS
10
43.6911559999999994
20
-129.552552999999989
11
43.7582729999999955
21
-129.9115740000000017
0
LINE
8
BLACK
6
CONTINUOUS
10
43.7582729999999955
20
-129.9115740000000017
11
43.8582290000000015
21
-130.2628709999999899
0
LINE
8
BLACK
6
CONTINUOUS
10
43.8582290000000015
20
-130.2628709999999899
11
43.9901729999999986
21
-130.603445999999991
0
LINE
8
BLACK
6
CONTINUOUS
10
43.9901729999999986
20
-130.603445999999991
11
44.1529779999999974
21
-130.9303950000000043
0
LINE
8
BLACK
6
CONTINUOUS
10
44.1529779999999974
20
-130.9303950000000043
11
44.3452549999999945
21
-131.2409269999999992
0
LINE
8
BLACK
6
CONTINUOUS
10
44.3452549999999945
20
-131.2409269999999992
11
44.5653629999999978
21
-131.5323939999999823
0
LINE
8
BLACK
6
CONTINUOUS
10
44.5653629999999978
20
-131.5323939999999823
11
44.8114259999999973
21
-131.8023090000000082
0
LINE
8
BLACK
6
CONTINUOUS
10
44.8114259999999973
20
-131.8023090000000082
11
45.0813440000000014
21
-132.0483679999999822
0
LINE
8
BLACK
6
CONTINUOUS
10
45.0813440000000014
20
-132.0483679999999822
11
45.3728130000000007
21
-132.2684730000000002
0
LINE
8
BLACK
6
CONTINUOUS
10
45.3728130000000007
20
-132.2684730000000002
11
45.6833479999999952
21
-132.4607460000000003
0
LINE
8
BLACK
6
CONTINUOUS
10
45.6833479999999952
20
-132.4607460000000003
11
46.0102989999999963
21
-132.6235470000000021
0
LINE
8
BLACK
6
CONTINUOUS
10
46.0102989999999963
20
-132.6235470000000021
11
46.3508759999999995
21
-132.7554859999999906
0
LINE
8
BLACK
6
CONTINUOUS
10
46.3508759999999995
20
-132.7554859999999906
11
46.7021739999999994
21
-132.8554379999999924
0
LINE
8
BLACK
6
CONTINUOUS
10
46.7021739999999994
20
-132.8554379999999924
11
47.0611959999999954
21
-132.9225509999999986
0
LINE
8
BLACK
6
CONTINUOUS
10
47.0611959999999954
20
-132.9225509999999986
11
47.4248789999999971
21
-132.9562509999999804
0
LINE
8
BLACK
6
CONTINUOUS
10
47.4248789999999971
20
-132.9562509999999804
11
47.6074989999999971
21
-132.9562509999999804
0
LINE
8
BLACK
6
CONTINUOUS
10
47.6074989999999971
20
-132.9562509999999804
11
97.60749899999999
21
-132.9562509999999804
0
LINE
8
BLACK
6
CONTINUOUS
10
97.60749899999999
20
-132.9562509999999804
11
97.60749899999999
21
-132.9562489999999855
0
LINE
8
BLACK
6
CONTINUOUS
10
97.60749899999999
20
-132.9562489999999855
11
97.7901179999999925
21
-132.9562489999999855
0
LINE
8
BLACK
6
CONTINUOUS
10
97.7901179999999925
20
-132.9562489999999855
11
98.1537989999999922
21
-132.9225490000000036
0
LINE
8
BLACK
6
CONTINUOUS
10
98.1537989999999922
20
-132.9225490000000036
11
98.5128189999999933
21
-132.8554369999999949
0
LINE
8
BLACK
6
CONTINUOUS
10
98.5128189999999933
20
-132.8554369999999949
11
98.8641159999999957
21
-132.7554839999999956
0
LINE
8
BLACK
6
CONTINUOUS
10
98.8641159999999957
20
-132.7554839999999956
11
99.2046909999999968
21
-132.6235450000000071
0
LINE
8
BLACK
6
CONTINUOUS
10
99.2046909999999968
20
-132.6235450000000071
11
99.5316389999999984
21
-132.4607440000000054
0
LINE
8
BLACK
6
CONTINUOUS
10
99.5316389999999984
20
-132.4607440000000054
11
99.8421719999999908
21
-132.2684700000000078
0
LINE
8
BLACK
6
CONTINUOUS
10
99.8421719999999908
20
-132.2684700000000078
11
100.1336390000000023
21
-132.0483649999999898
0
LINE
8
BLACK
6
CONTINUOUS
10
100.1336390000000023
20
-132.0483649999999898
11
100.4035539999999997
21
-131.8023049999999898
0
LINE
8
BLACK
6
CONTINUOUS
10
100.4035539999999997
20
-131.8023049999999898
11
100.6496139999999997
21
-131.5323899999999924
0
LINE
8
BLACK
6
CONTINUOUS
10
100.6496139999999997
20
-131.5323899999999924
11
100.8697189999999893
21
-131.2409229999999809
0
LINE
8
BLACK
6
CONTINUOUS
10
100.8697189999999893
20
-131.2409229999999809
11
101.0619930000000011
21
-130.930390999999986
0
LINE
8
BLACK
6
CONTINUOUS
10
101.0619930000000011
20
-130.930390999999986
11
101.2247939999999886
21
-130.6034429999999986
0
LINE
8
BLACK
6
CONTINUOUS
10
101.2247939999999886
20
-130.6034429999999986
11
101.3567339999999888
21
-130.262867
0
LINE
8
BLACK
6
CONTINUOUS
10
101.3567339999999888
20
-130.262867
11
101.4566859999999906
21
-129.9115709999999808
0
LINE
8
BLACK
6
CONTINUOUS
10
101.4566859999999906
20
-129.9115709999999808
11
101.5237989999999968
21
-129.552550999999994
0
LINE
8
BLACK
6
CONTINUOUS
10
101.5237989999999968
20
-129.552550999999994
11
101.5574989999999929
21
-129.1888699999999801
0
LINE
8
BLACK
6
CONTINUOUS
10
101.5574989999999929
20
-129.1888699999999801
11
101.5574989999999929
21
-129.0062509999999918
0
LINE
8
BLACK
6
CONTINUOUS
10
101.5574989999999929
20
-129.0062509999999918
11
101.5574989999999929
21
-129.0062499999999943
0
LINE
8
BLACK
6
CONTINUOUS
10
101.5574989999999929
20
-129.0062499999999943
11
101.5574989999999929
21
-46.0062509999999989
0
LINE
8
BLACK
6
CONTINUOUS
10
101.5574989999999929
20
-46.0062509999999989
11
101.5574989999999929
21
-46.0062500000000014
0
LINE
8
BLACK
6
CONTINUOUS
10
101.5574989999999929
20
-46.0062500000000014
11
101.5574489999999912
21
-46.0062500000000014
0
LINE
8
BLACK
6
CONTINUOUS
10
101.5574489999999912
20
-46.0062500000000014
11
101.5574510000000004
21
-45.8236319999999964
0
LINE
8
BLACK
6
CONTINUOUS
10
101.5574510000000004
20
-45.8236319999999964
11
101.5237559999999917
21
-45.4599520000000012
0
LINE
8
BLACK
6
CONTINUOUS
10
101.5237559999999917
20
-45.4599520000000012
11
101.4566469999999896
21
-45.1009329999999977
0
LINE
8
BLACK
6
CONTINUOUS
10
101.4566469999999896
20
-45.1009329999999977
11
101.3566989999999919
21
-44.7496369999999999
0
LINE
8
BLACK
6
CONTINUOUS
10
101.3566989999999919
20
-44.7496369999999999
11
101.2247639999999933
21
-44.4090619999999987
0
LINE
8
BLACK
6
CONTINUOUS
10
101.2247639999999933
20
-44.4090619999999987
11
101.0619659999999982
21
-44.0821139999999971
0
LINE
8
BLACK
6
CONTINUOUS
10
101.0619659999999982
20
-44.0821139999999971
11
100.8696959999999905
21
-43.7715809999999976
0
LINE
8
BLACK
6
CONTINUOUS
10
100.8696959999999905
20
-43.7715809999999976
11
100.6495929999999959
21
-43.4801140000000004
0
LINE
8
BLACK
6
CONTINUOUS
10
100.6495929999999959
20
-43.4801140000000004
11
100.4035360000000026
21
-43.2101979999999983
0
LINE
8
BLACK
6
CONTINUOUS
10
100.4035360000000026
20
-43.2101979999999983
11
100.1336239999999975
21
-42.9641379999999984
0
LINE
8
BLACK
6
CONTINUOUS
10
100.1336239999999975
20
-42.9641379999999984
11
99.8421599999999927
21
-42.7440319999999971
0
LINE
8
BLACK
6
CONTINUOUS
10
99.8421599999999927
20
-42.7440319999999971
11
99.5316299999999927
21
-42.5517579999999995
0
LINE
8
BLACK
6
CONTINUOUS
10
99.5316299999999927
20
-42.5517579999999995
11
99.2046829999999886
21
-42.3889560000000003
0
LINE
8
BLACK
6
CONTINUOUS
10
99.2046829999999886
20
-42.3889560000000003
11
98.8641099999999966
21
-42.2570169999999976
0
LINE
8
BLACK
6
CONTINUOUS
10
98.8641099999999966
20
-42.2570169999999976
11
98.5128149999999891
21
-42.1570639999999983
0
LINE
8
BLACK
6
CONTINUOUS
10
98.5128149999999891
20
-42.1570639999999983
11
98.1537969999999973
21
-42.0899509999999992
0
LINE
8
BLACK
6
CONTINUOUS
10
98.1537969999999973
20
-42.0899509999999992
11
97.7901179999999925
21
-42.0562509999999961
0
LINE
8
BLACK
6
CONTINUOUS
10
97.7901179999999925
20
-42.0562509999999961
11
97.60749899999999
21
-42.0562509999999961
0
LINE
8
BLACK
6
CONTINUOUS
10
97.60749899999999
20
-42.0562509999999961
11
90.6574990000000014
21
-42.0562509999999961
0
LINE
8
BLACK
6
CONTINUOUS
10
90.6574990000000014
20
-42.0562509999999961
11
90.6574990000000014
21
-45.5062509999999989
0
LINE
8
BLACK
6
CONTINUOUS
10
90.6574990000000014
20
-45.5062509999999989
11
90.6428539999999998
21
-45.5416059999999945
0
LINE
8
BLACK
6
CONTINUOUS
10
90.6428539999999998
20
-45.5416059999999945
11
90.60749899999999
21
-45.5562509999999961
0
LINE
8
BLACK
6
CONTINUOUS
10
90.60749899999999
20
-45.5562509999999961
11
84.10749899999999
21
-45.5562509999999961
0
LINE
8
BLACK
6
CONTINUOUS
10
84.10749899999999
20
-45.5562509999999961
11
84.0721439999999944
21
-45.5416059999999945
0
LINE
8
BLACK
6
CONTINUOUS
10
84.0721439999999944
20
-45.5416059999999945
11
84.0574989999999929
21
-45.5062509999999989
0
LINE
8
BLACK
6
CONTINUOUS
10
84.0574989999999929
20
-45.5062509999999989
11
84.0574989999999929
21
-42.0562509999999961
0
LINE
8
BLACK
6
CONTINUOUS
10
84.0574989999999929
20
-42.0562509999999961
11
62.6574989999999943
21
-42.0562509999999961
0
LINE
8
BLACK
6
CONTINUOUS
10
62.6574989999999943
20
-42.0562509999999961
11
62.6574989999999943
21
-45.5062509999999989
0
LINE
8
BLACK
6
CONTINUOUS
10
62.6574989999999943
20
-45.5062509999999989
11
62.6428539999999998
21
-45.5416059999999945
0
LINE
8
BLACK
6
CONTINUOUS
10
62.6428539999999998
20
-45.5416059999999945
11
62.6074989999999971
21
-45.5562509999999961
0
LINE
8
BLACK
6
CONTINUOUS
10
62.6074989999999971
20
-45.5562509999999961
11
56.1074989999999971
21
-45.5562509999999961
0
LINE
8
BLACK
6
CONTINUOUS
10
56.1074989999999971
20
-45.5562509999999961
11
56.0721439999999944
21
-45.5416059999999945
0
LINE
8
BLACK
6
CONTINUOUS
10
56.0721439999999944
20
-45.5416059999999945
11
56.057499
21
-45.5062509999999989
0
LINE
8
BLACK
6
CONTINUOUS
10
56.057499
20
-45.5062509999999989
11
56.057499
21
-42.0562509999999961
0
LINE
8
BLACK
6
CONTINUOUS
10
56.057499
20
-42.0562509999999961
11
47.6074989999999971
21
-42.0562509999999961
0
LINE
8
BLACK
6
CONTINUOUS
10
47.6074989999999971
20
-42.0562509999999961
11
47.6074939999999955
21
-42.0562490000000011
0
LINE
8
BLACK
6
CONTINUOUS
10
47.6074939999999955
20
-42.0562490000000011
11
47.4248789999999971
21
-42.0562490000000011
0
LINE
8
BLACK
6
CONTINUOUS
10
47.4248789999999971
20
-42.0562490000000011
11
47.0611979999999974
21
-42.0899489999999972
  0
ENDSEC
  0
EOF
