  0
SECTION
  2
HEADER
  9
$ANGBASE
  50
0.0
  9
$ANGDIR
  70
1
  9
$MEASUREMENT
  70
1
  0
ENDSEC
  0
SECTION
  2
TABLES
  0
TABLE
  2
LTYPE
  70
4
  0
LTYPE
  5
40F
  2
CONTINUOUS
  70
0
  3
Solid line
  72
65
  73
0
  40
0.0
  0
LTYPE
  5
410
  2
DASHDOT
 70
0
  3
Dash Dot ____ _ ____ _
 72
65
 73
4
 40
2.0
 49
1.25
 49
-0.25
 49
0.25
 49
-0.25
  0
LTYPE
  5
411
  2
DASHED
 70
0
  3
Dashed __ __ __ __ __
 72
65
 73
2
 40
0.75
 49
0.5
 49
-0.25
  0
LTYPE
  5
43B
  2
DOTTED
 70
0
  3
Dotted .  .  .  .
 72
65
 73
2
 40
0.2
 49
0.0
 49
-0.2
  0
ENDTAB
  0
TABLE
  2
STYLE
  70
4
  0
STYLE
  2
KICAD
  70
0
  40
0
  41
1
  42
1
  50
0
  71
0
  3
isocp.shx
  0
STYLE
  2
KICADB
  70
0
  40
0
  41
1
  42
1
  50
0
  71
0
  3
isocp.shx
  0
STYLE
  2
KICADI
  70
0
  40
0
  41
1
  42
1
  50
15
  71
0
  3
isocp.shx
  0
STYLE
  2
KICADBI
  70
0
  40
0
  41
1
  42
1
  50
15
  71
0
  3
isocp.shx
  0
ENDTAB
  0
TABLE
  2
LAYER
  70
1
  0
LAYER
  2
BLACK
  70
0
  62
7
  6
CONTINUOUS
  0
ENDTAB
  0
ENDSEC
  0
SECTION
  2
ENTITIES
0
LINE
8
BLACK
6
CONTINUOUS
10
49.3499720000000011
20
-125.4753339999999895
11
49.5864750000000001
21
-125.5321129999999954
0
LINE
8
BLACK
6
CONTINUOUS
10
49.5864750000000001
20
-125.5321129999999954
11
49.8111839999999972
21
-125.6251910000000009
0
LINE
8
BLACK
6
CONTINUOUS
10
49.8111839999999972
20
-125.6251910000000009
11
50.0185659999999999
21
-125.7522749999999974
0
LINE
8
BLACK
6
CONTINUOUS
10
50.0185659999999999
20
-125.7522749999999974
11
50.2035149999999959
21
-125.9102350000000001
0
LINE
8
BLACK
6
CONTINUOUS
10
50.2035149999999959
20
-125.9102350000000001
11
50.3614749999999987
21
-126.0951839999999891
0
LINE
8
BLACK
6
CONTINUOUS
10
50.3614749999999987
20
-126.0951839999999891
11
50.4885589999999951
21
-126.3025659999999988
0
LINE
8
BLACK
6
CONTINUOUS
10
50.4885589999999951
20
-126.3025659999999988
11
50.5816370000000006
21
-126.5272749999999888
0
LINE
8
BLACK
6
CONTINUOUS
10
50.5816370000000006
20
-126.5272749999999888
11
50.6384159999999994
21
-126.7637779999999879
0
LINE
8
BLACK
6
CONTINUOUS
10
50.6384159999999994
20
-126.7637779999999879
11
50.6574989999999943
21
-127.0062509999999918
0
LINE
8
BLACK
6
CONTINUOUS
10
50.6574989999999943
20
-127.0062509999999918
11
50.6384159999999994
21
-127.2487239999999957
0
LINE
8
BLACK
6
CONTINUOUS
10
50.6384159999999994
20
-127.2487239999999957
11
50.5816370000000006
21
-127.4852269999999947
0
LINE
8
BLACK
6
CONTINUOUS
10
50.5816370000000006
20
-127.4852269999999947
11
50.4885589999999951
21
-127.709935999999999
0
LINE
8
BLACK
6
CONTINUOUS
10
50.4885589999999951
20
-127.709935999999999
11
50.3614749999999987
21
-127.9173179999999945
0
LINE
8
BLACK
6
CONTINUOUS
10
50.3614749999999987
20
-127.9173179999999945
11
50.2035149999999959
21
-128.1022669999999835
0
LINE
8
BLACK
6
CONTINUOUS
10
50.2035149999999959
20
-128.1022669999999835
11
50.0185659999999999
21
-128.2602269999999862
0
LINE
8
BLACK
6
CONTINUOUS
10
50.0185659999999999
20
-128.2602269999999862
11
49.8111839999999972
21
-128.3873109999999826
0
LINE
8
BLACK
6
CONTINUOUS
10
49.8111839999999972
20
-128.3873109999999826
11
49.5864750000000001
21
-128.4803890000000024
0
LINE
8
BLACK
6
CONTINUOUS
10
49.5864750000000001
20
-128.4803890000000024
11
49.3499720000000011
21
-128.5371680000000083
0
LINE
8
BLACK
6
CONTINUOUS
10
49.3499720000000011
20
-128.5371680000000083
11
49.1074989999999971
21
-128.5562510000000032
0
LINE
8
BLACK
6
CONTINUOUS
10
49.1074989999999971
20
-128.5562510000000032
11
48.8650260000000003
21
-128.5371680000000083
0
LINE
8
BLACK
6
CONTINUOUS
10
48.8650260000000003
20
-128.5371680000000083
11
48.6285230000000013
21
-128.4803890000000024
0
LINE
8
BLACK
6
CONTINUOUS
10
48.6285230000000013
20
-128.4803890000000024
11
48.403813999999997
21
-128.3873109999999826
0
LINE
8
BLACK
6
CONTINUOUS
10
48.403813999999997
20
-128.3873109999999826
11
48.1964319999999944
21
-128.2602269999999862
0
LINE
8
BLACK
6
CONTINUOUS
10
48.1964319999999944
20
-128.2602269999999862
11
48.0114829999999984
21
-128.1022669999999835
0
LINE
8
BLACK
6
CONTINUOUS
10
48.0114829999999984
20
-128.1022669999999835
11
47.8535229999999956
21
-127.9173179999999945
0
LINE
8
BLACK
6
CONTINUOUS
10
47.8535229999999956
20
-127.9173179999999945
11
47.7264389999999992
21
-127.709935999999999
0
LINE
8
BLACK
6
CONTINUOUS
10
47.7264389999999992
20
-127.709935999999999
11
47.6333610000000007
21
-127.4852269999999947
0
LINE
8
BLACK
6
CONTINUOUS
10
47.6333610000000007
20
-127.4852269999999947
11
47.5765819999999948
21
-127.2487239999999957
0
LINE
8
BLACK
6
CONTINUOUS
10
47.5765819999999948
20
-127.2487239999999957
11
47.557499
21
-127.0062509999999918
0
LINE
8
BLACK
6
CONTINUOUS
10
47.557499
20
-127.0062509999999918
11
47.5765819999999948
21
-126.7637779999999879
0
LINE
8
BLACK
6
CONTINUOUS
10
47.5765819999999948
20
-126.7637779999999879
11
47.6333610000000007
21
-126.5272749999999888
0
LINE
8
BLACK
6
CONTINUOUS
10
47.6333610000000007
20
-126.5272749999999888
11
47.7264389999999992
21
-126.3025659999999988
0
LINE
8
BLACK
6
CONTINUOUS
10
47.7264389999999992
20
-126.3025659999999988
11
47.8535229999999956
21
-126.0951839999999891
0
LINE
8
BLACK
6
CONTINUOUS
10
47.8535229999999956
20
-126.0951839999999891
11
48.0114829999999984
21
-125.9102350000000001
0
LINE
8
BLACK
6
CONTINUOUS
10
48.0114829999999984
20
-125.9102350000000001
11
48.1964319999999944
21
-125.7522749999999974
0
LINE
8
BLACK
6
CONTINUOUS
10
48.1964319999999944
20
-125.7522749999999974
11
48.403813999999997
21
-125.6251910000000009
0
LINE
8
BLACK
6
CONTINUOUS
10
48.403813999999997
20
-125.6251910000000009
11
48.6285230000000013
21
-125.5321129999999954
0
LINE
8
BLACK
6
CONTINUOUS
10
48.6285230000000013
20
-125.5321129999999954
11
48.8650260000000003
21
-125.4753339999999895
0
LINE
8
BLACK
6
CONTINUOUS
10
48.8650260000000003
20
-125.4753339999999895
11
49.1074989999999971
21
-125.4562509999999946
0
LINE
8
BLACK
6
CONTINUOUS
10
49.1074989999999971
20
-125.4562509999999946
11
49.3499720000000011
21
-125.4753339999999895
0
LINE
8
BLACK
6
CONTINUOUS
10
47.6723739999999978
20
-127.2457309999999922
11
47.7313639999999992
21
-127.4786789999999996
0
LINE
8
BLACK
6
CONTINUOUS
10
47.7313639999999992
20
-127.4786789999999996
11
47.8278919999999985
21
-127.6987400000000008
0
LINE
8
BLACK
6
CONTINUOUS
10
47.8278919999999985
20
-127.6987400000000008
11
47.9593239999999952
21
-127.8999109999999888
0
LINE
8
BLACK
6
CONTINUOUS
10
47.9593239999999952
20
-127.8999109999999888
11
48.1220749999999953
21
-128.0767060000000015
0
LINE
8
BLACK
6
CONTINUOUS
10
48.1220749999999953
20
-128.0767060000000015
11
48.3117060000000009
21
-128.2243019999999945
0
LINE
8
BLACK
6
CONTINUOUS
10
48.3117060000000009
20
-128.2243019999999945
11
48.5230449999999962
21
-128.338673
0
LINE
8
BLACK
6
CONTINUOUS
10
48.5230449999999962
20
-128.338673
11
48.7503249999999966
21
-128.4166979999999967
0
LINE
8
BLACK
6
CONTINUOUS
10
48.7503249999999966
20
-128.4166979999999967
11
48.9873489999999947
21
-128.4562509999999804
0
LINE
8
BLACK
6
CONTINUOUS
10
48.9873489999999947
20
-128.4562509999999804
11
49.2276489999999995
21
-128.4562509999999804
0
LINE
8
BLACK
6
CONTINUOUS
10
49.2276489999999995
20
-128.4562509999999804
11
49.4646729999999977
21
-128.4166979999999967
0
LINE
8
BLACK
6
CONTINUOUS
10
49.4646729999999977
20
-128.4166979999999967
11
49.691952999999998
21
-128.338673
0
LINE
8
BLACK
6
CONTINUOUS
10
49.691952999999998
20
-128.338673
11
49.9032920000000004
21
-128.2243019999999945
0
LINE
8
BLACK
6
CONTINUOUS
10
49.9032920000000004
20
-128.2243019999999945
11
50.092922999999999
21
-128.0767060000000015
0
LINE
8
BLACK
6
CONTINUOUS
10
50.092922999999999
20
-128.0767060000000015
11
50.2556739999999991
21
-127.8999109999999888
0
LINE
8
BLACK
6
CONTINUOUS
10
50.2556739999999991
20
-127.8999109999999888
11
50.3871059999999957
21
-127.6987400000000008
0
LINE
8
BLACK
6
CONTINUOUS
10
50.3871059999999957
20
-127.6987400000000008
11
50.483633999999995
21
-127.4786789999999996
0
LINE
8
BLACK
6
CONTINUOUS
10
50.483633999999995
20
-127.4786789999999996
11
50.5426239999999964
21
-127.2457309999999922
0
LINE
8
BLACK
6
CONTINUOUS
10
50.5426239999999964
20
-127.2457309999999922
11
50.5624679999999955
21
-127.0062509999999918
0
LINE
8
BLACK
6
CONTINUOUS
10
50.5624679999999955
20
-127.0062509999999918
11
50.5426239999999964
21
-126.7667709999999914
0
LINE
8
BLACK
6
CONTINUOUS
10
50.5426239999999964
20
-126.7667709999999914
11
50.483633999999995
21
-126.5338229999999982
0
LINE
8
BLACK
6
CONTINUOUS
10
50.483633999999995
20
-126.5338229999999982
11
50.3871059999999957
21
-126.313761999999997
0
LINE
8
BLACK
6
CONTINUOUS
10
50.3871059999999957
20
-126.313761999999997
11
50.2556739999999991
21
-126.1125909999999948
0
LINE
8
BLACK
6
CONTINUOUS
10
50.2556739999999991
20
-126.1125909999999948
11
50.092922999999999
21
-125.9357959999999963
0
LINE
8
BLACK
6
CONTINUOUS
10
50.092922999999999
20
-125.9357959999999963
11
49.9032920000000004
21
-125.7881999999999891
0
LINE
8
BLACK
6
CONTINUOUS
10
49.9032920000000004
20
-125.7881999999999891
11
49.691952999999998
21
-125.6738289999999978
0
LINE
8
BLACK
6
CONTINUOUS
10
49.691952999999998
20
-125.6738289999999978
11
49.4646729999999977
21
-125.5958040000000011
0
LINE
8
BLACK
6
CONTINUOUS
10
49.4646729999999977
20
-125.5958040000000011
11
49.2276489999999995
21
-125.5562509999999889
0
LINE
8
BLACK
6
CONTINUOUS
10
49.2276489999999995
20
-125.5562509999999889
11
48.9873489999999947
21
-125.5562509999999889
0
LINE
8
BLACK
6
CONTINUOUS
10
48.9873489999999947
20
-125.5562509999999889
11
48.7503249999999966
21
-125.5958040000000011
0
LINE
8
BLACK
6
CONTINUOUS
10
48.7503249999999966
20
-125.5958040000000011
11
48.5230449999999962
21
-125.6738289999999978
0
LINE
8
BLACK
6
CONTINUOUS
10
48.5230449999999962
20
-125.6738289999999978
11
48.3117060000000009
21
-125.7881999999999891
0
LINE
8
BLACK
6
CONTINUOUS
10
48.3117060000000009
20
-125.7881999999999891
11
48.1220749999999953
21
-125.9357959999999963
0
LINE
8
BLACK
6
CONTINUOUS
10
48.1220749999999953
20
-125.9357959999999963
11
47.9593239999999952
21
-126.1125909999999948
0
LINE
8
BLACK
6
CONTINUOUS
10
47.9593239999999952
20
-126.1125909999999948
11
47.8278919999999985
21
-126.313761999999997
0
LINE
8
BLACK
6
CONTINUOUS
10
47.8278919999999985
20
-126.313761999999997
11
47.7313639999999992
21
-126.5338229999999982
0
LINE
8
BLACK
6
CONTINUOUS
10
47.7313639999999992
20
-126.5338229999999982
11
47.6723739999999978
21
-126.7667709999999914
0
LINE
8
BLACK
6
CONTINUOUS
10
47.6723739999999978
20
-126.7667709999999914
11
47.6525299999999987
21
-127.0062509999999918
0
LINE
8
BLACK
6
CONTINUOUS
10
47.6525299999999987
20
-127.0062509999999918
11
47.6723739999999978
21
-127.2457309999999922
0
LINE
8
BLACK
6
CONTINUOUS
10
96.349971999999994
20
-125.4753339999999895
11
96.586474999999993
21
-125.5321129999999954
0
LINE
8
BLACK
6
CONTINUOUS
10
96.586474999999993
20
-125.5321129999999954
11
96.8111839999999972
21
-125.6251910000000009
0
LINE
8
BLACK
6
CONTINUOUS
10
96.8111839999999972
20
-125.6251910000000009
11
97.0185659999999928
21
-125.7522749999999974
0
LINE
8
BLACK
6
CONTINUOUS
10
97.0185659999999928
20
-125.7522749999999974
11
97.2035149999999959
21
-125.9102350000000001
0
LINE
8
BLACK
6
CONTINUOUS
10
97.2035149999999959
20
-125.9102350000000001
11
97.3614749999999987
21
-126.0951839999999891
0
LINE
8
BLACK
6
CONTINUOUS
10
97.3614749999999987
20
-126.0951839999999891
11
97.4885589999999951
21
-126.3025659999999988
0
LINE
8
BLACK
6
CONTINUOUS
10
97.4885589999999951
20
-126.3025659999999988
11
97.5816370000000006
21
-126.5272749999999888
0
LINE
8
BLACK
6
CONTINUOUS
10
97.5816370000000006
20
-126.5272749999999888
11
97.6384159999999923
21
-126.7637779999999879
0
LINE
8
BLACK
6
CONTINUOUS
10
97.6384159999999923
20
-126.7637779999999879
11
97.6574990000000014
21
-127.0062509999999918
0
LINE
8
BLACK
6
CONTINUOUS
10
97.6574990000000014
20
-127.0062509999999918
11
97.6384159999999923
21
-127.2487239999999957
0
LINE
8
BLACK
6
CONTINUOUS
10
97.6384159999999923
20
-127.2487239999999957
11
97.5816370000000006
21
-127.4852269999999947
0
LINE
8
BLACK
6
CONTINUOUS
10
97.5816370000000006
20
-127.4852269999999947
11
97.4885589999999951
21
-127.709935999999999
0
LINE
8
BLACK
6
CONTINUOUS
10
97.4885589999999951
20
-127.709935999999999
11
97.3614749999999987
21
-127.9173179999999945
0
LINE
8
BLACK
6
CONTINUOUS
10
97.3614749999999987
20
-127.9173179999999945
11
97.2035149999999959
21
-128.1022669999999835
0
LINE
8
BLACK
6
CONTINUOUS
10
97.2035149999999959
20
-128.1022669999999835
11
97.0185659999999928
21
-128.2602269999999862
0
LINE
8
BLACK
6
CONTINUOUS
10
97.0185659999999928
20
-128.2602269999999862
11
96.8111839999999972
21
-128.3873109999999826
0
LINE
8
BLACK
6
CONTINUOUS
10
96.8111839999999972
20
-128.3873109999999826
11
96.586474999999993
21
-128.4803890000000024
0
LINE
8
BLACK
6
CONTINUOUS
10
96.586474999999993
20
-128.4803890000000024
11
96.349971999999994
21
-128.5371680000000083
0
LINE
8
BLACK
6
CONTINUOUS
10
96.349971999999994
20
-128.5371680000000083
11
96.10749899999999
21
-128.5562510000000032
0
LINE
8
BLACK
6
CONTINUOUS
10
96.10749899999999
20
-128.5562510000000032
11
95.8650260000000003
21
-128.5371680000000083
0
LINE
8
BLACK
6
CONTINUOUS
10
95.8650260000000003
20
-128.5371680000000083
11
95.6285230000000013
21
-128.4803890000000024
0
LINE
8
BLACK
6
CONTINUOUS
10
95.6285230000000013
20
-128.4803890000000024
11
95.403813999999997
21
-128.3873109999999826
0
LINE
8
BLACK
6
CONTINUOUS
10
95.403813999999997
20
-128.3873109999999826
11
95.1964320000000015
21
-128.2602269999999862
0
LINE
8
BLACK
6
CONTINUOUS
10
95.1964320000000015
20
-128.2602269999999862
11
95.0114829999999984
21
-128.1022669999999835
0
LINE
8
BLACK
6
CONTINUOUS
10
95.0114829999999984
20
-128.1022669999999835
11
94.8535229999999956
21
-127.9173179999999945
0
LINE
8
BLACK
6
CONTINUOUS
10
94.8535229999999956
20
-127.9173179999999945
11
94.7264389999999992
21
-127.709935999999999
0
LINE
8
BLACK
6
CONTINUOUS
10
94.7264389999999992
20
-127.709935999999999
11
94.6333609999999936
21
-127.4852269999999947
0
LINE
8
BLACK
6
CONTINUOUS
10
94.6333609999999936
20
-127.4852269999999947
11
94.5765820000000019
21
-127.2487239999999957
0
LINE
8
BLACK
6
CONTINUOUS
10
94.5765820000000019
20
-127.2487239999999957
11
94.5574989999999929
21
-127.0062509999999918
0
LINE
8
BLACK
6
CONTINUOUS
10
94.5574989999999929
20
-127.0062509999999918
11
94.5765820000000019
21
-126.7637779999999879
0
LINE
8
BLACK
6
CONTINUOUS
10
94.5765820000000019
20
-126.7637779999999879
11
94.6333609999999936
21
-126.5272749999999888
0
LINE
8
BLACK
6
CONTINUOUS
10
94.6333609999999936
20
-126.5272749999999888
11
94.7264389999999992
21
-126.3025659999999988
0
LINE
8
BLACK
6
CONTINUOUS
10
94.7264389999999992
20
-126.3025659999999988
11
94.8535229999999956
21
-126.0951839999999891
0
LINE
8
BLACK
6
CONTINUOUS
10
94.8535229999999956
20
-126.0951839999999891
11
95.0114829999999984
21
-125.9102350000000001
0
LINE
8
BLACK
6
CONTINUOUS
10
95.0114829999999984
20
-125.9102350000000001
11
95.1964320000000015
21
-125.7522749999999974
0
LINE
8
BLACK
6
CONTINUOUS
10
95.1964320000000015
20
-125.7522749999999974
11
95.403813999999997
21
-125.6251910000000009
0
LINE
8
BLACK
6
CONTINUOUS
10
95.403813999999997
20
-125.6251910000000009
11
95.6285230000000013
21
-125.5321129999999954
0
LINE
8
BLACK
6
CONTINUOUS
10
95.6285230000000013
20
-125.5321129999999954
11
95.8650260000000003
21
-125.4753339999999895
0
LINE
8
BLACK
6
CONTINUOUS
10
95.8650260000000003
20
-125.4753339999999895
11
96.10749899999999
21
-125.4562509999999946
0
LINE
8
BLACK
6
CONTINUOUS
10
96.10749899999999
20
-125.4562509999999946
11
96.349971999999994
21
-125.4753339999999895
0
LINE
8
BLACK
6
CONTINUOUS
10
94.6723739999999907
20
-127.2457309999999922
11
94.7313639999999992
21
-127.4786789999999996
0
LINE
8
BLACK
6
CONTINUOUS
10
94.7313639999999992
20
-127.4786789999999996
11
94.8278919999999914
21
-127.6987400000000008
0
LINE
8
BLACK
6
CONTINUOUS
10
94.8278919999999914
20
-127.6987400000000008
11
94.9593239999999952
21
-127.8999109999999888
0
LINE
8
BLACK
6
CONTINUOUS
10
94.9593239999999952
20
-127.8999109999999888
11
95.1220749999999953
21
-128.0767060000000015
0
LINE
8
BLACK
6
CONTINUOUS
10
95.1220749999999953
20
-128.0767060000000015
11
95.3117060000000009
21
-128.2243019999999945
0
LINE
8
BLACK
6
CONTINUOUS
10
95.3117060000000009
20
-128.2243019999999945
11
95.5230449999999962
21
-128.338673
0
LINE
8
BLACK
6
CONTINUOUS
10
95.5230449999999962
20
-128.338673
11
95.7503249999999895
21
-128.4166979999999967
0
LINE
8
BLACK
6
CONTINUOUS
10
95.7503249999999895
20
-128.4166979999999967
11
95.9873489999999947
21
-128.4562509999999804
0
LINE
8
BLACK
6
CONTINUOUS
10
95.9873489999999947
20
-128.4562509999999804
11
96.2276489999999995
21
-128.4562509999999804
0
LINE
8
BLACK
6
CONTINUOUS
10
96.2276489999999995
20
-128.4562509999999804
11
96.4646729999999906
21
-128.4166979999999967
0
LINE
8
BLACK
6
CONTINUOUS
10
96.4646729999999906
20
-128.4166979999999967
11
96.691952999999998
21
-128.338673
0
LINE
8
BLACK
6
CONTINUOUS
10
96.691952999999998
20
-128.338673
11
96.9032919999999933
21
-128.2243019999999945
0
LINE
8
BLACK
6
CONTINUOUS
10
96.9032919999999933
20
-128.2243019999999945
11
97.092922999999999
21
-128.0767060000000015
0
LINE
8
BLACK
6
CONTINUOUS
10
97.092922999999999
20
-128.0767060000000015
11
97.2556739999999991
21
-127.8999109999999888
0
LINE
8
BLACK
6
CONTINUOUS
10
97.2556739999999991
20
-127.8999109999999888
11
97.3871059999999886
21
-127.6987400000000008
0
LINE
8
BLACK
6
CONTINUOUS
10
97.3871059999999886
20
-127.6987400000000008
11
97.483633999999995
21
-127.4786789999999996
0
LINE
8
BLACK
6
CONTINUOUS
10
97.483633999999995
20
-127.4786789999999996
11
97.5426239999999893
21
-127.2457309999999922
0
LINE
8
BLACK
6
CONTINUOUS
10
97.5426239999999893
20
-127.2457309999999922
11
97.5624679999999955
21
-127.0062509999999918
0
LINE
8
BLACK
6
CONTINUOUS
10
97.5624679999999955
20
-127.0062509999999918
11
97.5426239999999893
21
-126.7667709999999914
0
LINE
8
BLACK
6
CONTINUOUS
10
97.5426239999999893
20
-126.7667709999999914
11
97.483633999999995
21
-126.5338229999999982
0
LINE
8
BLACK
6
CONTINUOUS
10
97.483633999999995
20
-126.5338229999999982
11
97.3871059999999886
21
-126.313761999999997
0
LINE
8
BLACK
6
CONTINUOUS
10
97.3871059999999886
20
-126.313761999999997
11
97.2556739999999991
21
-126.1125909999999948
0
LINE
8
BLACK
6
CONTINUOUS
10
97.2556739999999991
20
-126.1125909999999948
11
97.092922999999999
21
-125.9357959999999963
0
LINE
8
BLACK
6
CONTINUOUS
10
97.092922999999999
20
-125.9357959999999963
11
96.9032919999999933
21
-125.7881999999999891
0
LINE
8
BLACK
6
CONTINUOUS
10
96.9032919999999933
20
-125.7881999999999891
11
96.691952999999998
21
-125.6738289999999978
0
LINE
8
BLACK
6
CONTINUOUS
10
96.691952999999998
20
-125.6738289999999978
11
96.4646729999999906
21
-125.5958040000000011
0
LINE
8
BLACK
6
CONTINUOUS
10
96.4646729999999906
20
-125.5958040000000011
11
96.2276489999999995
21
-125.5562509999999889
0
LINE
8
BLACK
6
CONTINUOUS
10
96.2276489999999995
20
-125.5562509999999889
11
95.9873489999999947
21
-125.5562509999999889
0
LINE
8
BLACK
6
CONTINUOUS
10
95.9873489999999947
20
-125.5562509999999889
11
95.7503249999999895
21
-125.5958040000000011
0
LINE
8
BLACK
6
CONTINUOUS
10
95.7503249999999895
20
-125.5958040000000011
11
95.5230449999999962
21
-125.6738289999999978
0
LINE
8
BLACK
6
CONTINUOUS
10
95.5230449999999962
20
-125.6738289999999978
11
95.3117060000000009
21
-125.7881999999999891
0
LINE
8
BLACK
6
CONTINUOUS
10
95.3117060000000009
20
-125.7881999999999891
11
95.1220749999999953
21
-125.9357959999999963
0
LINE
8
BLACK
6
CONTINUOUS
10
95.1220749999999953
20
-125.9357959999999963
11
94.9593239999999952
21
-126.1125909999999948
0
LINE
8
BLACK
6
CONTINUOUS
10
94.9593239999999952
20
-126.1125909999999948
11
94.8278919999999914
21
-126.313761999999997
0
LINE
8
BLACK
6
CONTINUOUS
10
94.8278919999999914
20
-126.313761999999997
11
94.7313639999999992
21
-126.5338229999999982
0
LINE
8
BLACK
6
CONTINUOUS
10
94.7313639999999992
20
-126.5338229999999982
11
94.6723739999999907
21
-126.7667709999999914
0
LINE
8
BLACK
6
CONTINUOUS
10
94.6723739999999907
20
-126.7667709999999914
11
94.6525299999999987
21
-127.0062509999999918
0
LINE
8
BLACK
6
CONTINUOUS
10
94.6525299999999987
20
-127.0062509999999918
11
94.6723739999999907
21
-127.2457309999999922
0
LINE
8
BLACK
6
CONTINUOUS
10
49.3499720000000011
20
-46.4753339999999966
11
49.5864750000000001
21
-46.5321129999999954
0
LINE
8
BLACK
6
CONTINUOUS
10
49.5864750000000001
20
-46.5321129999999954
11
49.8111839999999972
21
-46.6251910000000009
0
LINE
8
BLACK
6
CONTINUOUS
10
49.8111839999999972
20
-46.6251910000000009
11
50.0185659999999999
21
-46.7522749999999974
0
LINE
8
BLACK
6
CONTINUOUS
10
50.0185659999999999
20
-46.7522749999999974
11
50.2035149999999959
21
-46.9102350000000001
0
LINE
8
BLACK
6
CONTINUOUS
10
50.2035149999999959
20
-46.9102350000000001
11
50.3614749999999987
21
-47.0951839999999962
0
LINE
8
BLACK
6
CONTINUOUS
10
50.3614749999999987
20
-47.0951839999999962
11
50.4885589999999951
21
-47.3025659999999988
0
LINE
8
BLACK
6
CONTINUOUS
10
50.4885589999999951
20
-47.3025659999999988
11
50.5816370000000006
21
-47.5272749999999959
0
LINE
8
BLACK
6
CONTINUOUS
10
50.5816370000000006
20
-47.5272749999999959
11
50.6384159999999994
21
-47.763777999999995
0
LINE
8
BLACK
6
CONTINUOUS
10
50.6384159999999994
20
-47.763777999999995
11
50.6574989999999943
21
-48.0062509999999989
0
LINE
8
BLACK
6
CONTINUOUS
10
50.6574989999999943
20
-48.0062509999999989
11
50.6384159999999994
21
-48.2487239999999957
0
LINE
8
BLACK
6
CONTINUOUS
10
50.6384159999999994
20
-48.2487239999999957
11
50.5816370000000006
21
-48.4852269999999947
0
LINE
8
BLACK
6
CONTINUOUS
10
50.5816370000000006
20
-48.4852269999999947
11
50.4885589999999951
21
-48.709935999999999
0
LINE
8
BLACK
6
CONTINUOUS
10
50.4885589999999951
20
-48.709935999999999
11
50.3614749999999987
21
-48.9173179999999945
0
LINE
8
BLACK
6
CONTINUOUS
10
50.3614749999999987
20
-48.9173179999999945
11
50.2035149999999959
21
-49.1022669999999977
0
LINE
8
BLACK
6
CONTINUOUS
10
50.2035149999999959
20
-49.1022669999999977
11
50.0185659999999999
21
-49.2602270000000004
0
LINE
8
BLACK
6
CONTINUOUS
10
50.0185659999999999
20
-49.2602270000000004
11
49.8111839999999972
21
-49.3873109999999969
0
LINE
8
BLACK
6
CONTINUOUS
10
49.8111839999999972
20
-49.3873109999999969
11
49.5864750000000001
21
-49.4803889999999953
0
LINE
8
BLACK
6
CONTINUOUS
10
49.5864750000000001
20
-49.4803889999999953
11
49.3499720000000011
21
-49.5371680000000012
0
LINE
8
BLACK
6
CONTINUOUS
10
49.3499720000000011
20
-49.5371680000000012
11
49.1074989999999971
21
-49.5562509999999961
0
LINE
8
BLACK
6
CONTINUOUS
10
49.1074989999999971
20
-49.5562509999999961
11
48.8650260000000003
21
-49.5371680000000012
0
LINE
8
BLACK
6
CONTINUOUS
10
48.8650260000000003
20
-49.5371680000000012
11
48.6285230000000013
21
-49.4803889999999953
0
LINE
8
BLACK
6
CONTINUOUS
10
48.6285230000000013
20
-49.4803889999999953
11
48.403813999999997
21
-49.3873109999999969
0
LINE
8
BLACK
6
CONTINUOUS
10
48.403813999999997
20
-49.3873109999999969
11
48.1964319999999944
21
-49.2602270000000004
0
LINE
8
BLACK
6
CONTINUOUS
10
48.1964319999999944
20
-49.2602270000000004
11
48.0114829999999984
21
-49.1022669999999977
0
LINE
8
BLACK
6
CONTINUOUS
10
48.0114829999999984
20
-49.1022669999999977
11
47.8535229999999956
21
-48.9173179999999945
0
LINE
8
BLACK
6
CONTINUOUS
10
47.8535229999999956
20
-48.9173179999999945
11
47.7264389999999992
21
-48.709935999999999
0
LINE
8
BLACK
6
CONTINUOUS
10
47.7264389999999992
20
-48.709935999999999
11
47.6333610000000007
21
-48.4852269999999947
0
LINE
8
BLACK
6
CONTINUOUS
10
47.6333610000000007
20
-48.4852269999999947
11
47.5765819999999948
21
-48.2487239999999957
0
LINE
8
BLACK
6
CONTINUOUS
10
47.5765819999999948
20
-48.2487239999999957
11
47.557499
21
-48.0062509999999989
0
LINE
8
BLACK
6
CONTINUOUS
10
47.557499
20
-48.0062509999999989
11
47.5765819999999948
21
-47.763777999999995
0
LINE
8
BLACK
6
CONTINUOUS
10
47.5765819999999948
20
-47.763777999999995
11
47.6333610000000007
21
-47.5272749999999959
0
LINE
8
BLACK
6
CONTINUOUS
10
47.6333610000000007
20
-47.5272749999999959
11
47.7264389999999992
21
-47.3025659999999988
0
LINE
8
BLACK
6
CONTINUOUS
10
47.7264389999999992
20
-47.3025659999999988
11
47.8535229999999956
21
-47.0951839999999962
0
LINE
8
BLACK
6
CONTINUOUS
10
47.8535229999999956
20
-47.0951839999999962
11
48.0114829999999984
21
-46.9102350000000001
0
LINE
8
BLACK
6
CONTINUOUS
10
48.0114829999999984
20
-46.9102350000000001
11
48.1964319999999944
21
-46.7522749999999974
0
LINE
8
BLACK
6
CONTINUOUS
10
48.1964319999999944
20
-46.7522749999999974
11
48.403813999999997
21
-46.6251910000000009
0
LINE
8
BLACK
6
CONTINUOUS
10
48.403813999999997
20
-46.6251910000000009
11
48.6285230000000013
21
-46.5321129999999954
0
LINE
8
BLACK
6
CONTINUOUS
10
48.6285230000000013
20
-46.5321129999999954
11
48.8650260000000003
21
-46.4753339999999966
0
LINE
8
BLACK
6
CONTINUOUS
10
48.8650260000000003
20
-46.4753339999999966
11
49.1074989999999971
21
-46.4562509999999946
0
LINE
8
BLACK
6
CONTINUOUS
10
49.1074989999999971
20
-46.4562509999999946
11
49.3499720000000011
21
-46.4753339999999966
0
LINE
8
BLACK
6
CONTINUOUS
10
47.6723739999999978
20
-48.2457309999999993
11
47.7313639999999992
21
-48.4786789999999996
0
LINE
8
BLACK
6
CONTINUOUS
10
47.7313639999999992
20
-48.4786789999999996
11
47.8278919999999985
21
-48.6987400000000008
0
LINE
8
BLACK
6
CONTINUOUS
10
47.8278919999999985
20
-48.6987400000000008
11
47.9593239999999952
21
-48.8999109999999959
0
LINE
8
BLACK
6
CONTINUOUS
10
47.9593239999999952
20
-48.8999109999999959
11
48.1220749999999953
21
-49.0767059999999944
0
LINE
8
BLACK
6
CONTINUOUS
10
48.1220749999999953
20
-49.0767059999999944
11
48.3117060000000009
21
-49.2243019999999945
0
LINE
8
BLACK
6
CONTINUOUS
10
48.3117060000000009
20
-49.2243019999999945
11
48.5230449999999962
21
-49.338673
0
LINE
8
BLACK
6
CONTINUOUS
10
48.5230449999999962
20
-49.338673
11
48.7503249999999966
21
-49.4166979999999967
0
LINE
8
BLACK
6
CONTINUOUS
10
48.7503249999999966
20
-49.4166979999999967
11
48.9873489999999947
21
-49.4562509999999946
0
LINE
8
BLACK
6
CONTINUOUS
10
48.9873489999999947
20
-49.4562509999999946
11
49.2276489999999995
21
-49.4562509999999946
0
LINE
8
BLACK
6
CONTINUOUS
10
49.2276489999999995
20
-49.4562509999999946
11
49.4646729999999977
21
-49.4166979999999967
0
LINE
8
BLACK
6
CONTINUOUS
10
49.4646729999999977
20
-49.4166979999999967
11
49.691952999999998
21
-49.338673
0
LINE
8
BLACK
6
CONTINUOUS
10
49.691952999999998
20
-49.338673
11
49.9032920000000004
21
-49.2243019999999945
0
LINE
8
BLACK
6
CONTINUOUS
10
49.9032920000000004
20
-49.2243019999999945
11
50.092922999999999
21
-49.0767059999999944
0
LINE
8
BLACK
6
CONTINUOUS
10
50.092922999999999
20
-49.0767059999999944
11
50.2556739999999991
21
-48.8999109999999959
0
LINE
8
BLACK
6
CONTINUOUS
10
50.2556739999999991
20
-48.8999109999999959
11
50.3871059999999957
21
-48.6987400000000008
0
LINE
8
BLACK
6
CONTINUOUS
10
50.3871059999999957
20
-48.6987400000000008
11
50.483633999999995
21
-48.4786789999999996
0
LINE
8
BLACK
6
CONTINUOUS
10
50.483633999999995
20
-48.4786789999999996
11
50.5426239999999964
21
-48.2457309999999993
0
LINE
8
BLACK
6
CONTINUOUS
10
50.5426239999999964
20
-48.2457309999999993
11
50.5624679999999955
21
-48.0062509999999989
0
LINE
8
BLACK
6
CONTINUOUS
10
50.5624679999999955
20
-48.0062509999999989
11
50.5426239999999964
21
-47.7667709999999985
0
LINE
8
BLACK
6
CONTINUOUS
10
50.5426239999999964
20
-47.7667709999999985
11
50.483633999999995
21
-47.5338229999999982
0
LINE
8
BLACK
6
CONTINUOUS
10
50.483633999999995
20
-47.5338229999999982
11
50.3871059999999957
21
-47.313761999999997
0
LINE
8
BLACK
6
CONTINUOUS
10
50.3871059999999957
20
-47.313761999999997
11
50.2556739999999991
21
-47.1125909999999948
0
LINE
8
BLACK
6
CONTINUOUS
10
50.2556739999999991
20
-47.1125909999999948
11
50.092922999999999
21
-46.9357959999999963
0
LINE
8
BLACK
6
CONTINUOUS
10
50.092922999999999
20
-46.9357959999999963
11
49.9032920000000004
21
-46.7881999999999962
0
LINE
8
BLACK
6
CONTINUOUS
10
49.9032920000000004
20
-46.7881999999999962
11
49.691952999999998
21
-46.6738289999999978
0
LINE
8
BLACK
6
CONTINUOUS
10
49.691952999999998
20
-46.6738289999999978
11
49.4646729999999977
21
-46.5958040000000011
0
LINE
8
BLACK
6
CONTINUOUS
10
49.4646729999999977
20
-46.5958040000000011
11
49.2276489999999995
21
-46.5562509999999961
0
LINE
8
BLACK
6
CONTINUOUS
10
49.2276489999999995
20
-46.5562509999999961
11
48.9873489999999947
21
-46.5562509999999961
0
LINE
8
BLACK
6
CONTINUOUS
10
48.9873489999999947
20
-46.5562509999999961
11
48.7503249999999966
21
-46.5958040000000011
0
LINE
8
BLACK
6
CONTINUOUS
10
48.7503249999999966
20
-46.5958040000000011
11
48.5230449999999962
21
-46.6738289999999978
0
LINE
8
BLACK
6
CONTINUOUS
10
48.5230449999999962
20
-46.6738289999999978
11
48.3117060000000009
21
-46.7881999999999962
0
LINE
8
BLACK
6
CONTINUOUS
10
48.3117060000000009
20
-46.7881999999999962
11
48.1220749999999953
21
-46.9357959999999963
0
LINE
8
BLACK
6
CONTINUOUS
10
48.1220749999999953
20
-46.9357959999999963
11
47.9593239999999952
21
-47.1125909999999948
0
LINE
8
BLACK
6
CONTINUOUS
10
47.9593239999999952
20
-47.1125909999999948
11
47.8278919999999985
21
-47.313761999999997
0
LINE
8
BLACK
6
CONTINUOUS
10
47.8278919999999985
20
-47.313761999999997
11
47.7313639999999992
21
-47.5338229999999982
0
LINE
8
BLACK
6
CONTINUOUS
10
47.7313639999999992
20
-47.5338229999999982
11
47.6723739999999978
21
-47.7667709999999985
0
LINE
8
BLACK
6
CONTINUOUS
10
47.6723739999999978
20
-47.7667709999999985
11
47.6525299999999987
21
-48.0062509999999989
0
LINE
8
BLACK
6
CONTINUOUS
10
47.6525299999999987
20
-48.0062509999999989
11
47.6723739999999978
21
-48.2457309999999993
0
LINE
8
BLACK
6
CONTINUOUS
10
96.349971999999994
20
-46.4753339999999966
11
96.586474999999993
21
-46.5321129999999954
0
LINE
8
BLACK
6
CONTINUOUS
10
96.586474999999993
20
-46.5321129999999954
11
96.8111839999999972
21
-46.6251910000000009
0
LINE
8
BLACK
6
CONTINUOUS
10
96.8111839999999972
20
-46.6251910000000009
11
97.0185659999999928
21
-46.7522749999999974
0
LINE
8
BLACK
6
CONTINUOUS
10
97.0185659999999928
20
-46.7522749999999974
11
97.2035149999999959
21
-46.9102350000000001
0
LINE
8
BLACK
6
CONTINUOUS
10
97.2035149999999959
20
-46.9102350000000001
11
97.3614749999999987
21
-47.0951839999999962
0
LINE
8
BLACK
6
CONTINUOUS
10
97.3614749999999987
20
-47.0951839999999962
11
97.4885589999999951
21
-47.3025659999999988
0
LINE
8
BLACK
6
CONTINUOUS
10
97.4885589999999951
20
-47.3025659999999988
11
97.5816370000000006
21
-47.5272749999999959
0
LINE
8
BLACK
6
CONTINUOUS
10
97.5816370000000006
20
-47.5272749999999959
11
97.6384159999999923
21
-47.763777999999995
0
LINE
8
BLACK
6
CONTINUOUS
10
97.6384159999999923
20
-47.763777999999995
11
97.6574990000000014
21
-48.0062509999999989
0
LINE
8
BLACK
6
CONTINUOUS
10
97.6574990000000014
20
-48.0062509999999989
11
97.6384159999999923
21
-48.2487239999999957
0
LINE
8
BLACK
6
CONTINUOUS
10
97.6384159999999923
20
-48.2487239999999957
11
97.5816370000000006
21
-48.4852269999999947
0
LINE
8
BLACK
6
CONTINUOUS
10
97.5816370000000006
20
-48.4852269999999947
11
97.4885589999999951
21
-48.709935999999999
0
LINE
8
BLACK
6
CONTINUOUS
10
97.4885589999999951
20
-48.709935999999999
11
97.3614749999999987
21
-48.9173179999999945
0
LINE
8
BLACK
6
CONTINUOUS
10
97.3614749999999987
20
-48.9173179999999945
11
97.2035149999999959
21
-49.1022669999999977
0
LINE
8
BLACK
6
CONTINUOUS
10
97.2035149999999959
20
-49.1022669999999977
11
97.0185659999999928
21
-49.2602270000000004
0
LINE
8
BLACK
6
CONTINUOUS
10
97.0185659999999928
20
-49.2602270000000004
11
96.8111839999999972
21
-49.3873109999999969
0
LINE
8
BLACK
6
CONTINUOUS
10
96.8111839999999972
20
-49.3873109999999969
11
96.586474999999993
21
-49.4803889999999953
0
LINE
8
BLACK
6
CONTINUOUS
10
96.586474999999993
20
-49.4803889999999953
11
96.349971999999994
21
-49.5371680000000012
0
LINE
8
BLACK
6
CONTINUOUS
10
96.349971999999994
20
-49.5371680000000012
11
96.10749899999999
21
-49.5562509999999961
0
LINE
8
BLACK
6
CONTINUOUS
10
96.10749899999999
20
-49.5562509999999961
11
95.8650260000000003
21
-49.5371680000000012
0
LINE
8
BLACK
6
CONTINUOUS
10
95.8650260000000003
20
-49.5371680000000012
11
95.6285230000000013
21
-49.4803889999999953
0
LINE
8
BLACK
6
CONTINUOUS
10
95.6285230000000013
20
-49.4803889999999953
11
95.403813999999997
21
-49.3873109999999969
0
LINE
8
BLACK
6
CONTINUOUS
10
95.403813999999997
20
-49.3873109999999969
11
95.1964320000000015
21
-49.2602270000000004
0
LINE
8
BLACK
6
CONTINUOUS
10
95.1964320000000015
20
-49.2602270000000004
11
95.0114829999999984
21
-49.1022669999999977
0
LINE
8
BLACK
6
CONTINUOUS
10
95.0114829999999984
20
-49.1022669999999977
11
94.8535229999999956
21
-48.9173179999999945
0
LINE
8
BLACK
6
CONTINUOUS
10
94.8535229999999956
20
-48.9173179999999945
11
94.7264389999999992
21
-48.709935999999999
0
LINE
8
BLACK
6
CONTINUOUS
10
94.7264389999999992
20
-48.709935999999999
11
94.6333609999999936
21
-48.4852269999999947
0
LINE
8
BLACK
6
CONTINUOUS
10
94.6333609999999936
20
-48.4852269999999947
11
94.5765820000000019
21
-48.2487239999999957
0
LINE
8
BLACK
6
CONTINUOUS
10
94.5765820000000019
20
-48.2487239999999957
11
94.5574989999999929
21
-48.0062509999999989
0
LINE
8
BLACK
6
CONTINUOUS
10
94.5574989999999929
20
-48.0062509999999989
11
94.5765820000000019
21
-47.763777999999995
0
LINE
8
BLACK
6
CONTINUOUS
10
94.5765820000000019
20
-47.763777999999995
11
94.6333609999999936
21
-47.5272749999999959
0
LINE
8
BLACK
6
CONTINUOUS
10
94.6333609999999936
20
-47.5272749999999959
11
94.7264389999999992
21
-47.3025659999999988
0
LINE
8
BLACK
6
CONTINUOUS
10
94.7264389999999992
20
-47.3025659999999988
11
94.8535229999999956
21
-47.0951839999999962
0
LINE
8
BLACK
6
CONTINUOUS
10
94.8535229999999956
20
-47.0951839999999962
11
95.0114829999999984
21
-46.9102350000000001
0
LINE
8
BLACK
6
CONTINUOUS
10
95.0114829999999984
20
-46.9102350000000001
11
95.1964320000000015
21
-46.7522749999999974
0
LINE
8
BLACK
6
CONTINUOUS
10
95.1964320000000015
20
-46.7522749999999974
11
95.403813999999997
21
-46.6251910000000009
0
LINE
8
BLACK
6
CONTINUOUS
10
95.403813999999997
20
-46.6251910000000009
11
95.6285230000000013
21
-46.5321129999999954
0
LINE
8
BLACK
6
CONTINUOUS
10
95.6285230000000013
20
-46.5321129999999954
11
95.8650260000000003
21
-46.4753339999999966
0
LINE
8
BLACK
6
CONTINUOUS
10
95.8650260000000003
20
-46.4753339999999966
11
96.10749899999999
21
-46.4562509999999946
0
LINE
8
BLACK
6
CONTINUOUS
10
96.10749899999999
20
-46.4562509999999946
11
96.349971999999994
21
-46.4753339999999966
0
LINE
8
BLACK
6
CONTINUOUS
10
94.6723739999999907
20
-48.2457309999999993
11
94.7313639999999992
21
-48.4786789999999996
0
LINE
8
BLACK
6
CONTINUOUS
10
94.7313639999999992
20
-48.4786789999999996
11
94.8278919999999914
21
-48.6987400000000008
0
LINE
8
BLACK
6
CONTINUOUS
10
94.8278919999999914
20
-48.6987400000000008
11
94.9593239999999952
21
-48.8999109999999959
0
LINE
8
BLACK
6
CONTINUOUS
10
94.9593239999999952
20
-48.8999109999999959
11
95.1220749999999953
21
-49.0767059999999944
0
LINE
8
BLACK
6
CONTINUOUS
10
95.1220749999999953
20
-49.0767059999999944
11
95.3117060000000009
21
-49.2243019999999945
0
LINE
8
BLACK
6
CONTINUOUS
10
95.3117060000000009
20
-49.2243019999999945
11
95.5230449999999962
21
-49.338673
0
LINE
8
BLACK
6
CONTINUOUS
10
95.5230449999999962
20
-49.338673
11
95.7503249999999895
21
-49.4166979999999967
0
LINE
8
BLACK
6
CONTINUOUS
10
95.7503249999999895
20
-49.4166979999999967
11
95.9873489999999947
21
-49.4562509999999946
0
LINE
8
BLACK
6
CONTINUOUS
10
95.9873489999999947
20
-49.4562509999999946
11
96.2276489999999995
21
-49.4562509999999946
0
LINE
8
BLACK
6
CONTINUOUS
10
96.2276489999999995
20
-49.4562509999999946
11
96.4646729999999906
21
-49.4166979999999967
0
LINE
8
BLACK
6
CONTINUOUS
10
96.4646729999999906
20
-49.4166979999999967
11
96.691952999999998
21
-49.338673
0
LINE
8
BLACK
6
CONTINUOUS
10
96.691952999999998
20
-49.338673
11
96.9032919999999933
21
-49.2243019999999945
0
LINE
8
BLACK
6
CONTINUOUS
10
96.9032919999999933
20
-49.2243019999999945
11
97.092922999999999
21
-49.0767059999999944
0
LINE
8
BLACK
6
CONTINUOUS
10
97.092922999999999
20
-49.0767059999999944
11
97.2556739999999991
21
-48.8999109999999959
0
LINE
8
BLACK
6
CONTINUOUS
10
97.2556739999999991
20
-48.8999109999999959
11
97.3871059999999886
21
-48.6987400000000008
0
LINE
8
BLACK
6
CONTINUOUS
10
97.3871059999999886
20
-48.6987400000000008
11
97.483633999999995
21
-48.4786789999999996
0
LINE
8
BLACK
6
CONTINUOUS
10
97.483633999999995
20
-48.4786789999999996
11
97.5426239999999893
21
-48.2457309999999993
0
LINE
8
BLACK
6
CONTINUOUS
10
97.5426239999999893
20
-48.2457309999999993
11
97.5624679999999955
21
-48.0062509999999989
0
LINE
8
BLACK
6
CONTINUOUS
10
97.5624679999999955
20
-48.0062509999999989
11
97.5426239999999893
21
-47.7667709999999985
0
LINE
8
BLACK
6
CONTINUOUS
10
97.5426239999999893
20
-47.7667709999999985
11
97.483633999999995
21
-47.5338229999999982
0
LINE
8
BLACK
6
CONTINUOUS
10
97.483633999999995
20
-47.5338229999999982
11
97.3871059999999886
21
-47.313761999999997
0
LINE
8
BLACK
6
CONTINUOUS
10
97.3871059999999886
20
-47.313761999999997
11
97.2556739999999991
21
-47.1125909999999948
0
LINE
8
BLACK
6
CONTINUOUS
10
97.2556739999999991
20
-47.1125909999999948
11
97.092922999999999
21
-46.9357959999999963
0
LINE
8
BLACK
6
CONTINUOUS
10
97.092922999999999
20
-46.9357959999999963
11
96.9032919999999933
21
-46.7881999999999962
0
LINE
8
BLACK
6
CONTINUOUS
10
96.9032919999999933
20
-46.7881999999999962
11
96.691952999999998
21
-46.6738289999999978
0
LINE
8
BLACK
6
CONTINUOUS
10
96.691952999999998
20
-46.6738289999999978
11
96.4646729999999906
21
-46.5958040000000011
0
LINE
8
BLACK
6
CONTINUOUS
10
96.4646729999999906
20
-46.5958040000000011
11
96.2276489999999995
21
-46.5562509999999961
0
LINE
8
BLACK
6
CONTINUOUS
10
96.2276489999999995
20
-46.5562509999999961
11
95.9873489999999947
21
-46.5562509999999961
0
LINE
8
BLACK
6
CONTINUOUS
10
95.9873489999999947
20
-46.5562509999999961
11
95.7503249999999895
21
-46.5958040000000011
0
LINE
8
BLACK
6
CONTINUOUS
10
95.7503249999999895
20
-46.5958040000000011
11
95.5230449999999962
21
-46.6738289999999978
0
LINE
8
BLACK
6
CONTINUOUS
10
95.5230449999999962
20
-46.6738289999999978
11
95.3117060000000009
21
-46.7881999999999962
0
LINE
8
BLACK
6
CONTINUOUS
10
95.3117060000000009
20
-46.7881999999999962
11
95.1220749999999953
21
-46.9357959999999963
0
LINE
8
BLACK
6
CONTINUOUS
10
95.1220749999999953
20
-46.9357959999999963
11
94.9593239999999952
21
-47.1125909999999948
0
LINE
8
BLACK
6
CONTINUOUS
10
94.9593239999999952
20
-47.1125909999999948
11
94.8278919999999914
21
-47.313761999999997
0
LINE
8
BLACK
6
CONTINUOUS
10
94.8278919999999914
20
-47.313761999999997
11
94.7313639999999992
21
-47.5338229999999982
0
LINE
8
BLACK
6
CONTINUOUS
10
94.7313639999999992
20
-47.5338229999999982
11
94.6723739999999907
21
-47.7667709999999985
0
LINE
8
BLACK
6
CONTINUOUS
10
94.6723739999999907
20
-47.7667709999999985
11
94.6525299999999987
21
-48.0062509999999989
0
LINE
8
BLACK
6
CONTINUOUS
10
94.6525299999999987
20
-48.0062509999999989
11
94.6723739999999907
21
-48.2457309999999993
0
LINE
8
BLACK
6
CONTINUOUS
10
47.6074989999999971
20
-41.9562509999999946
11
97.60749899999999
21
-41.9562509999999946
0
LINE
8
BLACK
6
CONTINUOUS
10
97.60749899999999
20
-41.9562509999999946
11
97.9811839999999989
21
-41.9735279999999946
0
LINE
8
BLACK
6
CONTINUOUS
10
97.9811839999999989
20
-41.9735279999999946
11
98.3516809999999992
21
-42.0252100000000013
0
LINE
8
BLACK
6
CONTINUOUS
10
98.3516809999999992
20
-42.0252100000000013
11
98.7158289999999994
21
-42.1108569999999958
0
LINE
8
BLACK
6
CONTINUOUS
10
98.7158289999999994
20
-42.1108569999999958
11
99.0705209999999994
21
-42.229738999999995
0
LINE
8
BLACK
6
CONTINUOUS
10
99.0705209999999994
20
-42.229738999999995
11
99.4127309999999937
21
-42.3808409999999967
0
LINE
8
BLACK
6
CONTINUOUS
10
99.4127309999999937
20
-42.3808409999999967
11
99.739537999999996
21
-42.5628729999999962
0
LINE
8
BLACK
6
CONTINUOUS
10
99.739537999999996
20
-42.5628729999999962
11
100.0481559999999916
21
-42.7742829999999969
0
LINE
8
BLACK
6
CONTINUOUS
10
100.0481559999999916
20
-42.7742829999999969
11
100.3359509999999943
21
-43.0132679999999965
0
LINE
8
BLACK
6
CONTINUOUS
10
100.3359509999999943
20
-43.0132679999999965
11
100.6004669999999948
21
-43.2777869999999965
0
LINE
8
BLACK
6
CONTINUOUS
10
100.6004669999999948
20
-43.2777869999999965
11
100.8394469999999927
21
-43.5655840000000012
0
LINE
8
BLACK
6
CONTINUOUS
10
100.8394469999999927
20
-43.5655840000000012
11
101.0508529999999894
21
-43.8742049999999963
0
LINE
8
BLACK
6
CONTINUOUS
10
101.0508529999999894
20
-43.8742049999999963
11
101.2328819999999894
21
-44.2010149999999982
0
LINE
8
BLACK
6
CONTINUOUS
10
101.2328819999999894
20
-44.2010149999999982
11
101.3839789999999965
21
-44.5432259999999971
0
LINE
8
BLACK
6
CONTINUOUS
10
101.3839789999999965
20
-44.5432259999999971
11
101.5028559999999942
21
-44.8979199999999992
0
LINE
8
BLACK
6
CONTINUOUS
10
101.5028559999999942
20
-44.8979199999999992
11
101.5884989999999988
21
-45.2620679999999993
0
LINE
8
BLACK
6
CONTINUOUS
10
101.5884989999999988
20
-45.2620679999999993
11
101.6401769999999942
21
-45.6325659999999971
0
LINE
8
BLACK
6
CONTINUOUS
10
101.6401769999999942
20
-45.6325659999999971
11
101.657441999999989
21
-46.0061150000000012
0
LINE
8
BLACK
6
CONTINUOUS
10
101.657441999999989
20
-46.0061150000000012
11
101.6574990000000014
21
-46.0062509999999989
0
LINE
8
BLACK
6
CONTINUOUS
10
101.6574990000000014
20
-46.0062509999999989
11
101.6574990000000014
21
-129.0062499999999943
0
LINE
8
BLACK
6
CONTINUOUS
10
101.6574990000000014
20
-129.0062499999999943
11
101.6574990000000014
21
-129.0062509999999918
0
LINE
8
BLACK
6
CONTINUOUS
10
101.6574990000000014
20
-129.0062509999999918
11
101.6402219999999943
21
-129.3799379999999815
0
LINE
8
BLACK
6
CONTINUOUS
10
101.6402219999999943
20
-129.3799379999999815
11
101.5885399999999947
21
-129.7504360000000077
0
LINE
8
BLACK
6
CONTINUOUS
10
101.5885399999999947
20
-129.7504360000000077
11
101.5028930000000003
21
-130.1145860000000027
0
LINE
8
BLACK
6
CONTINUOUS
10
101.5028930000000003
20
-130.1145860000000027
11
101.384011000000001
21
-130.4692790000000002
0
LINE
8
BLACK
6
CONTINUOUS
10
101.384011000000001
20
-130.4692790000000002
11
101.2329099999999897
21
-130.8114909999999895
0
LINE
8
BLACK
6
CONTINUOUS
10
101.2329099999999897
20
-130.8114909999999895
11
101.0508779999999973
21
-131.1383009999999842
0
LINE
8
BLACK
6
CONTINUOUS
10
101.0508779999999973
20
-131.1383009999999842
11
100.8394679999999966
21
-131.4469200000000058
0
LINE
8
BLACK
6
CONTINUOUS
10
100.8394679999999966
20
-131.4469200000000058
11
100.6004849999999919
21
-131.7347169999999892
0
LINE
8
BLACK
6
CONTINUOUS
10
100.6004849999999919
20
-131.7347169999999892
11
100.3359659999999991
21
-131.9992359999999962
0
LINE
8
BLACK
6
CONTINUOUS
10
100.3359659999999991
20
-131.9992359999999962
11
100.0481690000000015
21
-132.2382199999999841
0
LINE
8
BLACK
6
CONTINUOUS
10
100.0481690000000015
20
-132.2382199999999841
11
99.7395489999999967
21
-132.4496289999999874
0
LINE
8
BLACK
6
CONTINUOUS
10
99.7395489999999967
20
-132.4496289999999874
11
99.412739000000002
21
-132.6316609999999798
0
LINE
8
BLACK
6
CONTINUOUS
10
99.412739000000002
20
-132.6316609999999798
11
99.0705269999999985
21
-132.7827619999999911
0
LINE
8
BLACK
6
CONTINUOUS
10
99.0705269999999985
20
-132.7827619999999911
11
98.715834000000001
21
-132.9016430000000071
0
LINE
8
BLACK
6
CONTINUOUS
10
98.715834000000001
20
-132.9016430000000071
11
98.3516839999999917
21
-132.9872900000000016
0
LINE
8
BLACK
6
CONTINUOUS
10
98.3516839999999917
20
-132.9872900000000016
11
97.9811859999999939
21
-133.0389729999999986
0
LINE
8
BLACK
6
CONTINUOUS
10
97.9811859999999939
20
-133.0389729999999986
11
97.6075039999999916
21
-133.0562479999999823
0
LINE
8
BLACK
6
CONTINUOUS
10
97.6075039999999916
20
-133.0562479999999823
11
97.60749899999999
21
-133.0562510000000032
0
LINE
8
BLACK
6
CONTINUOUS
10
97.60749899999999
20
-133.0562510000000032
11
47.6074989999999971
21
-133.0562510000000032
0
LINE
8
BLACK
6
CONTINUOUS
10
47.6074989999999971
20
-133.0562510000000032
11
47.2338109999999958
21
-133.0389739999999961
0
LINE
8
BLACK
6
CONTINUOUS
10
47.2338109999999958
20
-133.0389739999999961
11
46.8633099999999985
21
-132.9872919999999965
0
LINE
8
BLACK
6
CONTINUOUS
10
46.8633099999999985
20
-132.9872919999999965
11
46.4991589999999988
21
-132.901645000000002
0
LINE
8
BLACK
6
CONTINUOUS
10
46.4991589999999988
20
-132.901645000000002
11
46.1444629999999947
21
-132.782763999999986
0
LINE
8
BLACK
6
CONTINUOUS
10
46.1444629999999947
20
-132.782763999999986
11
45.8022500000000008
21
-132.6316630000000032
0
LINE
8
BLACK
6
CONTINUOUS
10
45.8022500000000008
20
-132.6316630000000032
11
45.4754379999999969
21
-132.4496319999999798
0
LINE
8
BLACK
6
CONTINUOUS
10
45.4754379999999969
20
-132.4496319999999798
11
45.1668149999999997
21
-132.238223000000005
0
LINE
8
BLACK
6
CONTINUOUS
10
45.1668149999999997
20
-132.238223000000005
11
44.879016
21
-131.9992399999999861
0
LINE
8
BLACK
6
CONTINUOUS
10
44.879016
20
-131.9992399999999861
11
44.6144940000000005
21
-131.734722000000005
0
LINE
8
BLACK
6
CONTINUOUS
10
44.6144940000000005
20
-131.734722000000005
11
44.3755079999999964
21
-131.4469249999999931
0
LINE
8
BLACK
6
CONTINUOUS
10
44.3755079999999964
20
-131.4469249999999931
11
44.1640949999999961
21
-131.1383050000000026
0
LINE
8
BLACK
6
CONTINUOUS
10
44.1640949999999961
20
-131.1383050000000026
11
43.9820589999999996
21
-130.8114950000000078
0
LINE
8
BLACK
6
CONTINUOUS
10
43.9820589999999996
20
-130.8114950000000078
11
43.8309539999999984
21
-130.4692839999999876
0
LINE
8
BLACK
6
CONTINUOUS
10
43.8309539999999984
20
-130.4692839999999876
11
43.7120689999999996
21
-130.1145899999999926
0
LINE
8
BLACK
6
CONTINUOUS
10
43.7120689999999996
20
-130.1145899999999926
11
43.6264169999999964
21
-129.7504399999999976
0
LINE
8
BLACK
6
CONTINUOUS
10
43.6264169999999964
20
-129.7504399999999976
11
43.5747299999999953
21
-129.3799400000000048
0
LINE
8
BLACK
6
CONTINUOUS
10
43.5747299999999953
20
-129.3799400000000048
11
43.5574489999999983
21
-129.0062519999999893
0
LINE
8
BLACK
6
CONTINUOUS
10
43.5574489999999983
20
-129.0062519999999893
11
43.557499
21
-129.0062519999999893
0
LINE
8
BLACK
6
CONTINUOUS
10
43.557499
20
-129.0062519999999893
11
43.557499
21
-129.0062509999999918
0
LINE
8
BLACK
6
CONTINUOUS
10
43.557499
20
-129.0062509999999918
11
43.557499
21
-46.0062509999999989
0
LINE
8
BLACK
6
CONTINUOUS
10
43.557499
20
-46.0062509999999989
11
43.557499
21
-46.0062500000000014
0
LINE
8
BLACK
6
CONTINUOUS
10
43.557499
20
-46.0062500000000014
11
43.5747749999999954
21
-45.632563999999995
0
LINE
8
BLACK
6
CONTINUOUS
10
43.5747749999999954
20
-45.632563999999995
11
43.6264579999999995
21
-45.2620649999999998
0
LINE
8
BLACK
6
CONTINUOUS
10
43.6264579999999995
20
-45.2620649999999998
11
43.7121050000000011
21
-44.8979159999999951
0
LINE
8
BLACK
6
CONTINUOUS
10
43.7121050000000011
20
-44.8979159999999951
11
43.8309859999999958
21
-44.5432220000000001
0
LINE
8
BLACK
6
CONTINUOUS
10
43.8309859999999958
20
-44.5432220000000001
11
43.9820869999999999
21
-44.2010099999999966
0
LINE
8
BLACK
6
CONTINUOUS
10
43.9820869999999999
20
-44.2010099999999966
11
44.1641189999999995
21
-43.8741999999999948
0
LINE
8
BLACK
6
CONTINUOUS
10
44.1641189999999995
20
-43.8741999999999948
11
44.3755290000000002
21
-43.5655799999999971
0
LINE
8
BLACK
6
CONTINUOUS
10
44.3755290000000002
20
-43.5655799999999971
11
44.6145119999999977
21
-43.2777829999999994
0
LINE
8
BLACK
6
CONTINUOUS
10
44.6145119999999977
20
-43.2777829999999994
11
44.8790309999999977
21
-43.0132639999999995
0
LINE
8
BLACK
6
CONTINUOUS
10
44.8790309999999977
20
-43.0132639999999995
11
45.1668279999999953
21
-42.7742799999999974
0
LINE
8
BLACK
6
CONTINUOUS
10
45.1668279999999953
20
-42.7742799999999974
11
45.4754480000000001
21
-42.5628699999999967
0
LINE
8
BLACK
6
CONTINUOUS
10
45.4754480000000001
20
-42.5628699999999967
11
45.8022579999999948
21
-42.3808379999999971
0
LINE
8
BLACK
6
CONTINUOUS
10
45.8022579999999948
20
-42.3808379999999971
11
46.1444699999999983
21
-42.2297370000000001
0
LINE
8
BLACK
6
CONTINUOUS
10
46.1444699999999983
20
-42.2297370000000001
11
46.4991640000000004
21
-42.1108550000000008
0
LINE
8
BLACK
6
CONTINUOUS
10
46.4991640000000004
20
-42.1108550000000008
11
46.863312999999998
21
-42.0252079999999992
0
LINE
8
BLACK
6
CONTINUOUS
10
46.863312999999998
20
-42.0252079999999992
11
47.2338120000000004
21
-41.9735259999999997
0
LINE
8
BLACK
6
CONTINUOUS
10
47.2338120000000004
20
-41.9735259999999997
11
47.6074989999999971
21
-41.9562489999999997
0
LINE
8
BLACK
6
CONTINUOUS
10
47.6074989999999971
20
-41.9562489999999997
11
47.6074989999999971
21
-41.9562509999999946
0
LINE
8
BLACK
6
CONTINUOUS
10
47.0611979999999974
20
-42.0899489999999972
11
46.7021779999999964
21
-42.1570619999999963
0
LINE
8
BLACK
6
CONTINUOUS
10
46.7021779999999964
20
-42.1570619999999963
11
46.3508819999999986
21
-42.2570149999999956
0
LINE
8
BLACK
6
CONTINUOUS
10
46.3508819999999986
20
-42.2570149999999956
11
46.0103069999999974
21
-42.3889539999999982
0
LINE
8
BLACK
6
CONTINUOUS
10
46.0103069999999974
20
-42.3889539999999982
11
45.6833579999999984
21
-42.551755
0
LINE
8
BLACK
6
CONTINUOUS
10
45.6833579999999984
20
-42.551755
11
45.3728249999999989
21
-42.7440289999999976
0
LINE
8
BLACK
6
CONTINUOUS
10
45.3728249999999989
20
-42.7440289999999976
11
45.0813579999999945
21
-42.9641349999999989
0
LINE
8
BLACK
6
CONTINUOUS
10
45.0813579999999945
20
-42.9641349999999989
11
44.8114439999999945
21
-43.2101949999999988
0
LINE
8
BLACK
6
CONTINUOUS
10
44.8114439999999945
20
-43.2101949999999988
11
44.5653839999999946
21
-43.4801099999999963
0
LINE
8
BLACK
6
CONTINUOUS
10
44.5653839999999946
20
-43.4801099999999963
11
44.3452780000000004
21
-43.7715770000000006
0
LINE
8
BLACK
6
CONTINUOUS
10
44.3452780000000004
20
-43.7715770000000006
11
44.1530039999999957
21
-44.0821100000000001
0
LINE
8
BLACK
6
CONTINUOUS
10
44.1530039999999957
20
-44.0821100000000001
11
43.9902030000000011
21
-44.4090579999999946
0
LINE
8
BLACK
6
CONTINUOUS
10
43.9902030000000011
20
-44.4090579999999946
11
43.8582639999999984
21
-44.7496340000000004
0
LINE
8
BLACK
6
CONTINUOUS
10
43.8582639999999984
20
-44.7496340000000004
11
43.7583119999999965
21
-45.1009299999999982
0
LINE
8
BLACK
6
CONTINUOUS
10
43.7583119999999965
20
-45.1009299999999982
11
43.6911989999999975
21
-45.4599499999999992
0
LINE
8
BLACK
6
CONTINUOUS
10
43.6911989999999975
20
-45.4599499999999992
11
43.6574990000000014
21
-45.8236309999999989
0
LINE
8
BLACK
6
CONTINUOUS
10
43.6574990000000014
20
-45.8236309999999989
11
43.6574990000000014
21
-46.0062500000000014
0
LINE
8
BLACK
6
CONTINUOUS
10
43.6574990000000014
20
-46.0062500000000014
11
43.6574990000000014
21
-46.0062509999999989
0
LINE
8
BLACK
6
CONTINUOUS
10
43.6574990000000014
20
-46.0062509999999989
11
43.6574990000000014
21
-129.0062509999999918
0
LINE
8
BLACK
6
CONTINUOUS
10
43.6574990000000014
20
-129.0062509999999918
11
43.6574489999999997
21
-129.0063710000000015
0
LINE
8
BLACK
6
CONTINUOUS
10
43.6574489999999997
20
-129.0063710000000015
11
43.6574519999999993
21
-129.188871000000006
0
LINE
8
BLACK
6
CONTINUOUS
10
43.6574519999999993
20
-129.188871000000006
11
43.6911559999999994
21
-129.552552999999989
0
LINE
8
BLACK
6
CONTINUOUS
10
43.6911559999999994
20
-129.552552999999989
11
43.7582729999999955
21
-129.9115740000000017
0
LINE
8
BLACK
6
CONTINUOUS
10
43.7582729999999955
20
-129.9115740000000017
11
43.8582290000000015
21
-130.2628709999999899
0
LINE
8
BLACK
6
CONTINUOUS
10
43.8582290000000015
20
-130.2628709999999899
11
43.9901729999999986
21
-130.603445999999991
0
LINE
8
BLACK
6
CONTINUOUS
10
43.9901729999999986
20
-130.603445999999991
11
44.1529779999999974
21
-130.9303950000000043
0
LINE
8
BLACK
6
CONTINUOUS
10
44.1529779999999974
20
-130.9303950000000043
11
44.3452549999999945
21
-131.2409269999999992
0
LINE
8
BLACK
6
CONTINUOUS
10
44.3452549999999945
20
-131.2409269999999992
11
44.5653629999999978
21
-131.5323939999999823
0
LINE
8
BLACK
6
CONTINUOUS
10
44.5653629999999978
20
-131.5323939999999823
11
44.8114259999999973
21
-131.8023090000000082
0
LINE
8
BLACK
6
CONTINUOUS
10
44.8114259999999973
20
-131.8023090000000082
11
45.0813440000000014
21
-132.0483679999999822
0
LINE
8
BLACK
6
CONTINUOUS
10
45.0813440000000014
20
-132.0483679999999822
11
45.3728130000000007
21
-132.2684730000000002
0
LINE
8
BLACK
6
CONTINUOUS
10
45.3728130000000007
20
-132.2684730000000002
11
45.6833479999999952
21
-132.4607460000000003
0
LINE
8
BLACK
6
CONTINUOUS
10
45.6833479999999952
20
-132.4607460000000003
11
46.0102989999999963
21
-132.6235470000000021
0
LINE
8
BLACK
6
CONTINUOUS
10
46.0102989999999963
20
-132.6235470000000021
11
46.3508759999999995
21
-132.7554859999999906
0
LINE
8
BLACK
6
CONTINUOUS
10
46.3508759999999995
20
-132.7554859999999906
11
46.7021739999999994
21
-132.8554379999999924
0
LINE
8
BLACK
6
CONTINUOUS
10
46.7021739999999994
20
-132.8554379999999924
11
47.0611959999999954
21
-132.9225509999999986
0
LINE
8
BLACK
6
CONTINUOUS
10
47.0611959999999954
20
-132.9225509999999986
11
47.4248789999999971
21
-132.9562509999999804
0
LINE
8
BLACK
6
CONTINUOUS
10
47.4248789999999971
20
-132.9562509999999804
11
47.6074989999999971
21
-132.9562509999999804
0
LINE
8
BLACK
6
CONTINUOUS
10
47.6074989999999971
20
-132.9562509999999804
11
97.60749899999999
21
-132.9562509999999804
0
LINE
8
BLACK
6
CONTINUOUS
10
97.60749899999999
20
-132.9562509999999804
11
97.60749899999999
21
-132.9562489999999855
0
LINE
8
BLACK
6
CONTINUOUS
10
97.60749899999999
20
-132.9562489999999855
11
97.7901179999999925
21
-132.9562489999999855
0
LINE
8
BLACK
6
CONTINUOUS
10
97.7901179999999925
20
-132.9562489999999855
11
98.1537989999999922
21
-132.9225490000000036
0
LINE
8
BLACK
6
CONTINUOUS
10
98.1537989999999922
20
-132.9225490000000036
11
98.5128189999999933
21
-132.8554369999999949
0
LINE
8
BLACK
6
CONTINUOUS
10
98.5128189999999933
20
-132.8554369999999949
11
98.8641159999999957
21
-132.7554839999999956
0
LINE
8
BLACK
6
CONTINUOUS
10
98.8641159999999957
20
-132.7554839999999956
11
99.2046909999999968
21
-132.6235450000000071
0
LINE
8
BLACK
6
CONTINUOUS
10
99.2046909999999968
20
-132.6235450000000071
11
99.5316389999999984
21
-132.4607440000000054
0
LINE
8
BLACK
6
CONTINUOUS
10
99.5316389999999984
20
-132.4607440000000054
11
99.8421719999999908
21
-132.2684700000000078
0
LINE
8
BLACK
6
CONTINUOUS
10
99.8421719999999908
20
-132.2684700000000078
11
100.1336390000000023
21
-132.0483649999999898
0
LINE
8
BLACK
6
CONTINUOUS
10
100.1336390000000023
20
-132.0483649999999898
11
100.4035539999999997
21
-131.8023049999999898
0
LINE
8
BLACK
6
CONTINUOUS
10
100.4035539999999997
20
-131.8023049999999898
11
100.6496139999999997
21
-131.5323899999999924
0
LINE
8
BLACK
6
CONTINUOUS
10
100.6496139999999997
20
-131.5323899999999924
11
100.8697189999999893
21
-131.2409229999999809
0
LINE
8
BLACK
6
CONTINUOUS
10
100.8697189999999893
20
-131.2409229999999809
11
101.0619930000000011
21
-130.930390999999986
0
LINE
8
BLACK
6
CONTINUOUS
10
101.0619930000000011
20
-130.930390999999986
11
101.2247939999999886
21
-130.6034429999999986
0
LINE
8
BLACK
6
CONTINUOUS
10
101.2247939999999886
20
-130.6034429999999986
11
101.3567339999999888
21
-130.262867
0
LINE
8
BLACK
6
CONTINUOUS
10
101.3567339999999888
20
-130.262867
11
101.4566859999999906
21
-129.9115709999999808
0
LINE
8
BLACK
6
CONTINUOUS
10
101.4566859999999906
20
-129.9115709999999808
11
101.5237989999999968
21
-129.552550999999994
0
LINE
8
BLACK
6
CONTINUOUS
10
101.5237989999999968
20
-129.552550999999994
11
101.5574989999999929
21
-129.1888699999999801
0
LINE
8
BLACK
6
CONTINUOUS
10
101.5574989999999929
20
-129.1888699999999801
11
101.5574989999999929
21
-129.0062509999999918
0
LINE
8
BLACK
6
CONTINUOUS
10
101.5574989999999929
20
-129.0062509999999918
11
101.5574989999999929
21
-129.0062499999999943
0
LINE
8
BLACK
6
CONTINUOUS
10
101.5574989999999929
20
-129.0062499999999943
11
101.5574989999999929
21
-46.0062509999999989
0
LINE
8
BLACK
6
CONTINUOUS
10
101.5574989999999929
20
-46.0062509999999989
11
101.5574989999999929
21
-46.0062500000000014
0
LINE
8
BLACK
6
CONTINUOUS
10
101.5574989999999929
20
-46.0062500000000014
11
101.5574489999999912
21
-46.0062500000000014
0
LINE
8
BLACK
6
CONTINUOUS
10
101.5574489999999912
20
-46.0062500000000014
11
101.5574510000000004
21
-45.8236319999999964
0
LINE
8
BLACK
6
CONTINUOUS
10
101.5574510000000004
20
-45.8236319999999964
11
101.5237559999999917
21
-45.4599520000000012
0
LINE
8
BLACK
6
CONTINUOUS
10
101.5237559999999917
20
-45.4599520000000012
11
101.4566469999999896
21
-45.1009329999999977
0
LINE
8
BLACK
6
CONTINUOUS
10
101.4566469999999896
20
-45.1009329999999977
11
101.3566989999999919
21
-44.7496369999999999
0
LINE
8
BLACK
6
CONTINUOUS
10
101.3566989999999919
20
-44.7496369999999999
11
101.2247639999999933
21
-44.4090619999999987
0
LINE
8
BLACK
6
CONTINUOUS
10
101.2247639999999933
20
-44.4090619999999987
11
101.0619659999999982
21
-44.0821139999999971
0
LINE
8
BLACK
6
CONTINUOUS
10
101.0619659999999982
20
-44.0821139999999971
11
100.8696959999999905
21
-43.7715809999999976
0
LINE
8
BLACK
6
CONTINUOUS
10
100.8696959999999905
20
-43.7715809999999976
11
100.6495929999999959
21
-43.4801140000000004
0
LINE
8
BLACK
6
CONTINUOUS
10
100.6495929999999959
20
-43.4801140000000004
11
100.4035360000000026
21
-43.2101979999999983
0
LINE
8
BLACK
6
CONTINUOUS
10
100.4035360000000026
20
-43.2101979999999983
11
100.1336239999999975
21
-42.9641379999999984
0
LINE
8
BLACK
6
CONTINUOUS
10
100.1336239999999975
20
-42.9641379999999984
11
99.8421599999999927
21
-42.7440319999999971
0
LINE
8
BLACK
6
CONTINUOUS
10
99.8421599999999927
20
-42.7440319999999971
11
99.5316299999999927
21
-42.5517579999999995
0
LINE
8
BLACK
6
CONTINUOUS
10
99.5316299999999927
20
-42.5517579999999995
11
99.2046829999999886
21
-42.3889560000000003
0
LINE
8
BLACK
6
CONTINUOUS
10
99.2046829999999886
20
-42.3889560000000003
11
98.8641099999999966
21
-42.2570169999999976
0
LINE
8
BLACK
6
CONTINUOUS
10
98.8641099999999966
20
-42.2570169999999976
11
98.5128149999999891
21
-42.1570639999999983
0
LINE
8
BLACK
6
CONTINUOUS
10
98.5128149999999891
20
-42.1570639999999983
11
98.1537969999999973
21
-42.0899509999999992
0
LINE
8
BLACK
6
CONTINUOUS
10
98.1537969999999973
20
-42.0899509999999992
11
97.7901179999999925
21
-42.0562509999999961
0
LINE
8
BLACK
6
CONTINUOUS
10
97.7901179999999925
20
-42.0562509999999961
11
97.60749899999999
21
-42.0562509999999961
0
LINE
8
BLACK
6
CONTINUOUS
10
97.60749899999999
20
-42.0562509999999961
11
47.6074989999999971
21
-42.0562509999999961
0
LINE
8
BLACK
6
CONTINUOUS
10
47.6074989999999971
20
-42.0562509999999961
11
47.6074939999999955
21
-42.0562490000000011
0
LINE
8
BLACK
6
CONTINUOUS
10
47.6074939999999955
20
-42.0562490000000011
11
47.4248789999999971
21
-42.0562490000000011
0
LINE
8
BLACK
6
CONTINUOUS
10
47.4248789999999971
20
-42.0562490000000011
11
47.0611979999999974
21
-42.0899489999999972
  0
ENDSEC
  0
EOF
